<?xml version="1.0" encoding="UTF-8"?>
<svg id="Capa_1" data-name="Capa 1" xmlns="http://www.w3.org/2000/svg" xmlns:xlink="http://www.w3.org/1999/xlink" viewBox="0 0 500 500">
  <defs>
    <style>
      .cls-1 {
        fill: #344a65;
      }

      .cls-1, .cls-2, .cls-3, .cls-4, .cls-5, .cls-6, .cls-7, .cls-8, .cls-9, .cls-10, .cls-11, .cls-12, .cls-13 {
        stroke-width: 0px;
      }

      .cls-2 {
        fill: #ffe97a;
      }

      .cls-14 {
        fill: #243d6d;
        stroke-width: 5.35px;
      }

      .cls-14, .cls-15, .cls-16, .cls-17, .cls-18, .cls-19, .cls-20, .cls-21, .cls-22, .cls-23 {
        stroke: #000;
      }

      .cls-14, .cls-15, .cls-16, .cls-18, .cls-19, .cls-20, .cls-21, .cls-23 {
        stroke-miterlimit: 10;
      }

      .cls-24 {
        opacity: .6;
      }

      .cls-25, .cls-15 {
        fill: #637a93;
      }

      .cls-26 {
        clip-path: url(#clippath-2);
      }

      .cls-3 {
        opacity: .18;
      }

      .cls-4 {
        fill: #99d3f6;
      }

      .cls-15, .cls-16 {
        stroke-width: 7.13px;
      }

      .cls-6 {
        fill: #1a1a1a;
      }

      .cls-7 {
        fill: #f4b56a;
      }

      .cls-8, .cls-27 {
        fill: #b8b8b8;
      }

      .cls-16, .cls-17, .cls-18, .cls-19, .cls-21, .cls-22, .cls-23 {
        fill: none;
      }

      .cls-17 {
        stroke-width: 5.86px;
      }

      .cls-17, .cls-18, .cls-22 {
        stroke-linecap: round;
      }

      .cls-17, .cls-22 {
        stroke-linejoin: round;
      }

      .cls-28 {
        clip-path: url(#clippath-1);
      }

      .cls-29 {
        clip-path: url(#clippath-4);
      }

      .cls-18 {
        stroke-width: 7.62px;
      }

      .cls-9 {
        fill: #fff;
      }

      .cls-19 {
        stroke-width: 8.87px;
      }

      .cls-30, .cls-20 {
        fill: #77a9c9;
      }

      .cls-20, .cls-23 {
        stroke-width: 3.56px;
      }

      .cls-21 {
        stroke-width: 1.78px;
      }

      .cls-10 {
        opacity: .11;
      }

      .cls-11 {
        fill: #ffedc0;
      }

      .cls-31 {
        clip-path: url(#clippath);
      }

      .cls-22 {
        stroke-width: 6.31px;
      }

      .cls-32 {
        clip-path: url(#clippath-3);
      }

      .cls-12 {
        fill: #9fb4ca;
      }

      .cls-33 {
        clip-path: url(#clippath-5);
      }

      .cls-13 {
        fill: #c69c6d;
      }
    </style>
    <clipPath id="clippath">
      <path class="cls-19" d="m427.4,394.96c.92-15.21.76-35.69,1.04-66.01-.17-60.92,3.29-119.95-17.55-170.66-45.34-110.35-177.25-116.7-230.96-29.31-20.82,33.87-19.38,76.75-13.15,109.13,6.47,33.6,4.01,61.32-.97,96.05-1.32,9.22-1.66,16.49-1.24,21.41.51,6.48,3.44,9.04,9.41,10.52,50.7,7.91,168.18,27.32,238.55,37.07,4.1.35,9.3,2.68,12.15-.13,1.52-1.49,2.39-5.14,2.72-8.07Z"/>
    </clipPath>
    <clipPath id="clippath-1">
      <path class="cls-22" d="m200.06,299.39c2.53-2.32,31.05-23.05,33.15-34.21,3.07-16.29,24.58-36.29,30.38-31.6,8.45,6.84-6.17,13.07-6.38,16.86,0,0,12.84-2.95,16.63,5.9,3.79,8.84,4.21,20.85,2.11,18.95,0,0-1.9,10.74-8.63,8.21,0,0-4.63,6.95-13.27,13.9-8.63,6.95-23.37,33.06-24.21,34.11s-29.78-32.11-29.78-32.11Z"/>
    </clipPath>
    <clipPath id="clippath-2">
      <path class="cls-15" d="m317.58,436.42s1.08,2.19,6.72,2.19,109.98-32.23,109.98-34.65-5.24-19.34-5.24-19.34l-224-31.83,112.53,83.63Z"/>
    </clipPath>
    <clipPath id="clippath-3">
      <path class="cls-20" d="m397,390l-125.3-14.93c-.22-.03-.45,0-.66.09l-39.8,16.75c-1.2.51-1,2.27.29,2.49l103.91,17.81c.21.04.42.02.62-.04l61.19-19.63c1.33-.43,1.15-2.37-.24-2.54Z"/>
    </clipPath>
    <clipPath id="clippath-4">
      <path class="cls-15" d="m133.88,420.37c-5.86-24.49-36.52-108.44-45.67-140.7-1.98-6.98,3.64-14.21,10.83-13.22,37.75,5.17,128.71,12.01,155.28,10.41,4.21-.25,8.86,2.75,10.35,6.7l52.24,138.84c1.8,4.78,6.52,13.64,2.77,16.21-4.18,2.86-140.18-1.86-177.65-10.27-4.01-.9-7.18-3.97-8.14-7.97Z"/>
    </clipPath>
    <clipPath id="clippath-5">
      <path class="cls-8" d="m405.62,311.74s-14.81,20.66-27.06,27.61c-12.94,7.34-19.97,10.73-33.49,7.11-15.24-4.07-31.13,10.6-27.5,28.06,4.79,4.73,8.96-.29,9.69-1.48,0,0-3.38,9.58,4.79,9.58,3.61-.46,5.36-4.36,5.36-4.36,0,0,1.55,11.25,8.26,8.29.71-.31,1.34-.84,1.72-1.52,2.17-3.77,1.21-9.81,3.07-10.47,2.03-.71,39.02,4.41,68.09-25.5l5.3-14.58-18.23-22.76Z"/>
    </clipPath>
  </defs>
  <g>
    <circle class="cls-9" cx="276.41" cy="231.94" r="6.17"/>
    <g>
      <g class="cls-31">
        <g>
          <polygon class="cls-11" points="510.14 248.73 134.08 291.41 139.71 227.49 515.77 184.81 510.14 248.73"/>
          <polygon class="cls-2" points="509.71 188.34 133.66 231.02 139.28 167.1 515.34 124.42 509.71 188.34"/>
          <polygon class="cls-7" points="512.35 138.71 136.3 181.39 141.92 117.47 517.98 74.79 512.35 138.71"/>
          <polygon class="cls-9" points="510.14 294.5 134.08 337.17 139.71 273.25 515.77 230.57 510.14 294.5"/>
          <polygon class="cls-8" points="502.77 340.23 126.72 382.9 132.34 318.98 508.4 276.31 502.77 340.23"/>
          <polygon class="cls-6" points="472.55 408.66 96.49 451.34 118.74 369.02 494.8 326.34 472.55 408.66"/>
          <polygon class="cls-13" points="512.35 90.42 136.3 133.1 141.92 69.18 517.98 26.5 512.35 90.42"/>
        </g>
        <path class="cls-10" d="m308.71,44.91s99.94,66.41,87.63,231.89c-9.32,125.19,1.89,175.56,1.89,175.56l75.52-29.57,37.07-196.62-23.9-194.41-131.18-62.96-47.03,76.11Z"/>
        <g>
          <path class="cls-6" d="m355.48,114.11c-2.62-4.01-7.47-6.19-12.18-5.97-2.25.03-4.41.43-6.64.57-2.51.19-5.13-.08-7.61-.87-3.61-1.07-7.28-3.05-11.13-2.56-4.17.45-7.68,4.35-8.01,8.46-.47,5.1,3.77,9.01,5.02,13.67.46,1.56.62,3.2.65,4.9.07,2.57-.22,5.22.46,7.7.97,3.26,3.58,5.29,6.85,6.64,5.9,2.16,10.96,1.57,14.99-3.47,2.84-3.34,4.98-7.3,7.97-10.54,4.4-5.32,14.89-10.67,9.67-18.48l-.04-.06Z"/>
          <ellipse class="cls-6" cx="334.86" cy="97.26" rx="7.46" ry="8.56" transform="translate(96.22 351.5) rotate(-63.01)"/>
          <ellipse class="cls-6" cx="305.05" cy="131.99" rx="7.46" ry="8.56" transform="translate(-15.56 219.66) rotate(-38.69)"/>
          <ellipse class="cls-6" cx="299.48" cy="109.5" rx="7.46" ry="8.56" transform="translate(8.85 240.69) rotate(-44.38)"/>
          <ellipse class="cls-6" cx="313.16" cy="93.71" rx="7.46" ry="8.56" transform="translate(10.15 216.33) rotate(-38.69)"/>
        </g>
      </g>
      <path class="cls-19" d="m427.4,394.96c.92-15.21.76-35.69,1.04-66.01-.17-60.92,3.29-119.95-17.55-170.66-45.34-110.35-177.25-116.7-230.96-29.31-20.82,33.87-19.38,76.75-13.15,109.13,6.47,33.6,4.01,61.32-.97,96.05-1.32,9.22-1.66,16.49-1.24,21.41.51,6.48,3.44,9.04,9.41,10.52,50.7,7.91,168.18,27.32,238.55,37.07,4.1.35,9.3,2.68,12.15-.13,1.52-1.49,2.39-5.14,2.72-8.07Z"/>
    </g>
    <path class="cls-18" d="m300.53,183.93c4.62,5.18,8.88,7.79,26.61-9"/>
    <path class="cls-18" d="m242.71,188.85c-6.33,3.32-8.88,7.79-26.61-9"/>
    <g>
      <g>
        <g class="cls-28">
          <polygon class="cls-8" points="185.9 270.7 307.74 289.54 315.19 249.91 289.67 199.46 166.76 237.67 185.9 270.7"/>
          <polygon class="cls-4" points="146.46 321.42 242.68 339.06 309.31 289.54 193.68 268.2 146.46 321.42"/>
        </g>
        <path class="cls-22" d="m200.06,299.39c2.53-2.32,31.05-23.05,33.15-34.21,3.07-16.29,24.58-36.29,30.38-31.6,8.45,6.84-6.17,13.07-6.38,16.86,0,0,12.84-2.95,16.63,5.9,3.79,8.84,4.21,20.85,2.11,18.95,0,0-1.9,10.74-8.63,8.21,0,0-4.63,6.95-13.27,13.9-8.63,6.95-23.37,33.06-24.21,34.11s-29.78-32.11-29.78-32.11Z"/>
      </g>
      <path class="cls-5" d="m272.81,275.48c-.14-4.97-4.49-7.97-9.11-8.72-2.33-.61-1.71-4.08.67-3.86,6.79.1,13.19,4.48,14.6,11.37,1.21,4.58-5.61,5.92-6.16,1.21h0Z"/>
      <path class="cls-5" d="m264.2,283.06c.43-1.09.25-2.73-.61-3.69-.34-.44-.95-.81-1.48-1.15-.9-.57-1.16-1.75-.6-2.65,1.18-1.71,3.32-.54,4.79.24,2.48,1.46,3.93,4.36,4.15,7.18.49,4.78-6.62,4.86-6.24.07h0Z"/>
    </g>
    <circle class="cls-3" cx="219.42" cy="207.47" r="20.79"/>
    <circle class="cls-3" cx="324.5" cy="202.18" r="20.79"/>
    <g>
      <circle class="cls-5" cx="219.42" cy="205.9" r="19.22"/>
      <circle class="cls-5" cx="324.5" cy="199.92" r="19.22"/>
    </g>
    <circle class="cls-9" cx="210.22" cy="204.17" r="5.89"/>
    <circle class="cls-9" cx="317.05" cy="198.29" r="5.89"/>
    <g>
      <g>
        <path class="cls-25" d="m317.58,436.42s1.08,2.19,6.72,2.19,109.98-32.23,109.98-34.65-5.24-19.34-5.24-19.34l-224-31.83,112.53,83.63Z"/>
        <g class="cls-26">
          <path class="cls-14" d="m437.11,386.24c-1.02-.77-137.78,45.93-137.78,45.93,0,0,9.27,22.56,32.63,21.35,23.37-1.21,153.5-30.62,105.15-67.28Z"/>
          <g>
            <path class="cls-30" d="m397,390l-125.3-14.93c-.22-.03-.45,0-.66.09l-39.8,16.75c-1.2.51-1,2.27.29,2.49l103.91,17.81c.21.04.42.02.62-.04l61.19-19.63c1.33-.43,1.15-2.37-.24-2.54Z"/>
            <g class="cls-32">
              <path class="cls-21" d="m358.4,406.72c-1.43,0-141.95-22.67-141.95-22.67"/>
              <path class="cls-21" d="m375.35,402.02c-1.43,0-150.74-23.69-150.74-23.69"/>
              <path class="cls-21" d="m390.47,397.32c-1.43,0-156.73-22.63-156.73-22.63"/>
              <line class="cls-21" x1="315.1" y1="412.23" x2="400.68" y2="382.41"/>
              <line class="cls-21" x1="301.75" y1="410.61" x2="387.33" y2="380.79"/>
              <line class="cls-21" x1="288.4" y1="409" x2="373.98" y2="379.18"/>
              <line class="cls-21" x1="275.05" y1="407.38" x2="360.63" y2="377.56"/>
              <line class="cls-21" x1="261.7" y1="405.76" x2="347.28" y2="375.95"/>
              <line class="cls-21" x1="248.35" y1="404.15" x2="333.93" y2="374.33"/>
              <line class="cls-21" x1="235" y1="402.53" x2="320.58" y2="372.71"/>
              <line class="cls-21" x1="221.65" y1="400.92" x2="307.23" y2="371.1"/>
              <line class="cls-21" x1="208.3" y1="399.3" x2="293.88" y2="369.48"/>
            </g>
            <path class="cls-23" d="m397,390l-125.3-14.93c-.22-.03-.45,0-.66.09l-39.8,16.75c-1.2.51-1,2.27.29,2.49l103.91,17.81c.21.04.42.02.62-.04l61.19-19.63c1.33-.43,1.15-2.37-.24-2.54Z"/>
          </g>
        </g>
        <path class="cls-16" d="m317.58,436.42s1.08,2.19,6.72,2.19,109.98-32.23,109.98-34.65-5.24-19.34-5.24-19.34l-224-31.83,112.53,83.63Z"/>
      </g>
      <g>
        <path class="cls-25" d="m133.88,420.37c-5.86-24.49-36.52-108.44-45.67-140.7-1.98-6.98,3.64-14.21,10.83-13.22,37.75,5.17,128.71,12.01,155.28,10.41,4.21-.25,8.86,2.75,10.35,6.7l52.24,138.84c1.8,4.78,6.52,13.64,2.77,16.21-4.18,2.86-140.18-1.86-177.65-10.27-4.01-.9-7.18-3.97-8.14-7.97Z"/>
        <g class="cls-29">
          <path class="cls-12" d="m80.38,282.81c1.93-.64,14.79-6.21,19.3-6,4.5.21,127.35,12.65,164.98,6.75,37.63-5.9-153.53-25.39-153.53-25.39l-29.01,5.21-1.74,19.42Z"/>
          <path class="cls-1" d="m146.89,425.69s154.09,6.14,155.65,3.25c1.56-2.89-16.72-67.12-16.72-67.12,0,0,25.43,68.63,25.34,72.67-.09,4.04-106.31.22-164.27-8.81Z"/>
        </g>
        <path class="cls-16" d="m133.88,420.37c-5.86-24.49-36.52-108.44-45.67-140.7-1.98-6.98,3.64-14.21,10.83-13.22,37.75,5.17,128.71,12.01,155.28,10.41,4.21-.25,8.86,2.75,10.35,6.7l52.24,138.84c1.8,4.78,6.52,13.64,2.77,16.21-4.18,2.86-140.18-1.86-177.65-10.27-4.01-.9-7.18-3.97-8.14-7.97Z"/>
      </g>
    </g>
    <g>
      <path class="cls-27" d="m405.62,311.74s-14.81,20.66-27.06,27.61c-12.94,7.34-19.97,10.73-33.49,7.11-15.24-4.07-31.13,10.6-27.5,28.06,4.79,4.73,8.96-.29,9.69-1.48,0,0-3.38,9.58,4.79,9.58,3.61-.46,5.36-4.36,5.36-4.36,0,0,1.55,11.25,8.26,8.29.71-.31,1.34-.84,1.72-1.52,2.17-3.77,1.21-9.81,3.07-10.47,2.03-.71,39.02,4.41,68.09-25.5l5.3-14.58-18.23-22.76Z"/>
      <g class="cls-33">
        <path class="cls-8" d="m356.41,346.22s60.2-26.37,93.24,1.34c33.04,27.72,25.89-56.06-26.19-51.3-52.08,4.76-67.05,49.96-67.05,49.96Z"/>
      </g>
    </g>
    <g>
      <path class="cls-17" d="m401.31,311.74s-10.5,22.45-22.75,29.4c-12.94,7.34-19.97,10.73-33.49,7.11-15.24-4.07-31.13,10.6-27.5,28.06,4.79,4.73,8.51-.34,9.24-1.52,0,0-2.93,9.63,5.24,9.62,3.61-.46,5.36-4.36,5.36-4.36,0,0,1.55,11.25,8.26,8.29.71-.31,1.34-.84,1.72-1.52,2.17-3.77,1.21-9.81,3.07-10.47,2.03-.71,47.79-.36,76.09-36.31"/>
      <path class="cls-5" d="m324.51,373.43c.94-6.49,5.48-13.92,12.92-13.01.78.04,1.37.71,1.33,1.48-.04.78-.7,1.33-1.45,1.34-1.24.13-2.42.35-3.37.98-3.05,1.99-4.04,6.15-4.18,9.61-.11,3.82-5.73,3.39-5.25-.41h0Z"/>
      <path class="cls-5" d="m335.21,380.69c-.04-5.54,2.76-12.39,9-12.89,1.57-.2,2.1,2.04.62,2.56-4.3,1.07-5.01,6.13-4.37,9.86.69,3.93-5.22,4.47-5.25.47h0Z"/>
    </g>
    <g class="cls-24">
      <path class="cls-12" d="m213.28,388l-20.99-39.92-4.72,39.33-2.64-.06s-27.49-49.42-28.77-51.25c-.82-1.24-2.08-2.15-3.79-2.73l.05-2.13,23.93.54-.05,2.13c-1.62-.04-2.74.21-3.36.73-.62.52-.94,1.13-.95,1.82-.01.65.48,2.62,1.49,5.9l11.81,21.25,1.82-20.94-.48-1.39c-.95-2.9-1.8-4.75-2.54-5.55-.74-.8-1.9-1.37-3.49-1.72l.05-2.13,24.29.55-.05,2.13c-1.9.07-3.1.34-3.62.81-.52.47-.79,1.14-.81,2.02-.02.84.43,2.71,1.34,5.61l11.56,21.25,1.18-19.29c.94-2.74,1.42-4.6,1.44-5.6.03-1.49-.26-2.59-.89-3.3-.63-.7-1.87-1.15-3.72-1.35l.05-2.13,14.04.32-.05,2.13c-1.56.2-2.81.79-3.74,1.78-.94,1-2.19,3.85-3.75,8.57l-1.78,42.68-2.89-.07Z"/>
    </g>
  </g>
  <path class="cls-5" d="m262.93,231.66s7.89-3.97,13.87-1.39c0,0-7.02,2.23-9.22,5.6s-4.65-4.22-4.65-4.22Z"/>
  <path class="cls-5" d="m277.42,269.45s7.15,5.17,7.61,11.67c0,0-5.22-5.21-9.22-5.61s1.6-6.06,1.6-6.06Z"/>
  <path class="cls-5" d="m276.17,276.37s7.15,5.17,7.61,11.67c0,0-5.22-5.21-9.22-5.61s1.6-6.06,1.6-6.06Z"/>
</svg>