<?xml version="1.0" encoding="UTF-8" standalone="no"?>
<svg
   id="Capa_1"
   data-name="Capa 1"
   viewBox="0 0 394.97095 415.40839"
   version="1.1"
   sodipodi:docname="barba_editor_bisexual.svg"
   width="394.97095"
   height="415.40839"
   inkscape:version="1.1.2 (0a00cf5339, 2022-02-04)"
   xmlns:inkscape="http://www.inkscape.org/namespaces/inkscape"
   xmlns:sodipodi="http://sodipodi.sourceforge.net/DTD/sodipodi-0.dtd"
   xmlns="http://www.w3.org/2000/svg"
   xmlns:svg="http://www.w3.org/2000/svg">
  <sodipodi:namedview
     id="namedview157"
     pagecolor="#ffffff"
     bordercolor="#666666"
     borderopacity="1.0"
     inkscape:pageshadow="2"
     inkscape:pageopacity="0.0"
     inkscape:pagecheckerboard="0"
     showgrid="false"
     fit-margin-top="15"
     fit-margin-left="15"
     fit-margin-right="20"
     fit-margin-bottom="15"
     inkscape:zoom="0.59679812"
     inkscape:cx="-66.186535"
     inkscape:cy="453.2521"
     inkscape:window-width="1920"
     inkscape:window-height="1016"
     inkscape:window-x="1920"
     inkscape:window-y="27"
     inkscape:window-maximized="1"
     inkscape:current-layer="Capa_1" />
  <defs
     id="defs22">
    <style
       id="style2">
      .cls-1 {
        fill: #344a65;
      }

      .cls-1, .cls-2, .cls-3, .cls-4, .cls-5, .cls-6, .cls-7, .cls-8, .cls-9, .cls-10 {
        stroke-width: 0px;
      }

      .cls-2 {
        fill: #da6b9a;
      }

      .cls-11 {
        stroke-width: 6.42px;
      }

      .cls-11, .cls-12, .cls-13, .cls-14, .cls-15, .cls-16, .cls-17, .cls-18, .cls-19, .cls-20 {
        stroke: #000;
      }

      .cls-11, .cls-12, .cls-14, .cls-16, .cls-17, .cls-19, .cls-20 {
        fill: none;
      }

      .cls-11, .cls-16 {
        stroke-linejoin: round;
      }

      .cls-11, .cls-16, .cls-20 {
        stroke-linecap: round;
      }

      .cls-12 {
        stroke-width: 1.81px;
      }

      .cls-12, .cls-13, .cls-14, .cls-15, .cls-17, .cls-18, .cls-19, .cls-20 {
        stroke-miterlimit: 10;
      }

      .cls-13, .cls-21 {
        fill: #637a93;
      }

      .cls-13, .cls-17 {
        stroke-width: 7.26px;
      }

      .cls-22 {
        opacity: .6;
      }

      .cls-23 {
        clip-path: url(#clippath-2);
      }

      .cls-3 {
        opacity: .18;
      }

      .cls-4 {
        fill: #99d3f6;
      }

      .cls-6 {
        fill: #ca98d8;
      }

      .cls-24 {
        clip-path: url(#clippath-1);
      }

      .cls-25 {
        clip-path: url(#clippath-4);
      }

      .cls-14, .cls-18 {
        stroke-width: 3.63px;
      }

      .cls-7 {
        fill: #fff;
      }

      .cls-26 {
        fill: #3b58ab;
      }

      .cls-27, .cls-18 {
        fill: #77a9c9;
      }

      .cls-15 {
        fill: #243d6d;
        stroke-width: 5.44px;
      }

      .cls-8 {
        opacity: .11;
      }

      .cls-28 {
        clip-path: url(#clippath);
      }

      .cls-9 {
        fill: #5e79c4;
      }

      .cls-29 {
        clip-path: url(#clippath-3);
      }

      .cls-16 {
        stroke-width: 5.97px;
      }

      .cls-10 {
        fill: #9fb4ca;
      }

      .cls-30 {
        clip-path: url(#clippath-5);
      }

      .cls-19 {
        stroke-width: 9.03px;
      }

      .cls-20 {
        stroke-width: 7.76px;
      }
    </style>
    <clipPath
       id="clippath">
      <path
         class="cls-19"
         d="m 424.32,919.79 c 0.94,-15.49 0.77,-36.33 1.06,-67.2 -0.17,-62.02 3.35,-122.11 -17.87,-173.74 -46.16,-112.34 -180.44,-118.8 -235.12,-29.83 -21.19,34.48 -19.73,78.13 -13.38,111.1 6.59,34.2 4.08,62.43 -0.99,97.78 -1.35,9.39 -1.69,16.78 -1.26,21.8 0.52,6.6 3.5,9.2 9.57,10.71 51.62,8.05 171.22,27.81 242.85,37.73 4.17,0.35 9.47,2.72 12.37,-0.13 1.54,-1.52 2.44,-5.23 2.77,-8.21 z"
         id="path4" />
    </clipPath>
    <clipPath
       id="clippath-1">
      <path
         class="cls-19"
         d="m 424.32,399.79 c 0.94,-15.49 0.77,-36.33 1.06,-67.2 -0.17,-62.02 3.35,-122.11 -17.87,-173.74 C 361.35,46.51 227.07,40.05 172.39,129.02 c -21.19,34.48 -19.73,78.13 -13.38,111.1 6.59,34.2 4.08,62.43 -0.99,97.78 -1.35,9.39 -1.69,16.78 -1.26,21.8 0.52,6.6 3.5,9.2 9.57,10.71 51.62,8.05 171.22,27.81 242.85,37.73 4.17,0.35 9.47,2.72 12.37,-0.13 1.54,-1.52 2.44,-5.23 2.77,-8.21 z"
         id="path7" />
    </clipPath>
    <clipPath
       id="clippath-2">
      <path
         class="cls-11"
         d="m 192.88,302.5 c 2.57,-2.36 31.61,-23.47 33.75,-34.83 3.12,-16.58 25.02,-36.94 30.93,-32.17 8.6,6.96 -6.28,13.3 -6.49,17.16 0,0 13.08,-3 16.93,6 3.86,9 4.29,21.22 2.14,19.29 0,0 -1.93,10.93 -8.79,8.36 0,0 -4.72,7.07 -13.5,14.15 -8.79,7.07 -23.79,33.65 -24.65,34.73 -0.86,1.08 -30.32,-32.69 -30.32,-32.69 z"
         id="path10" />
    </clipPath>
    <clipPath
       id="clippath-3">
      <path
         class="cls-13"
         d="m 312.52,442 c 0,0 1.1,2.23 6.84,2.23 5.74,0 111.97,-32.81 111.97,-35.27 0,-2.46 -5.33,-19.69 -5.33,-19.69 l -228.04,-32.4 z"
         id="path13" />
    </clipPath>
    <clipPath
       id="clippath-4">
      <path
         class="cls-18"
         d="M 393.36,394.74 265.8,379.54 c -0.23,-0.03 -0.46,0 -0.67,0.09 l -40.52,17.05 c -1.22,0.52 -1.02,2.31 0.29,2.53 l 105.78,18.13 c 0.21,0.04 0.43,0.02 0.63,-0.04 l 62.29,-19.98 c 1.36,-0.44 1.17,-2.42 -0.25,-2.58 z"
         id="path16" />
    </clipPath>
    <clipPath
       id="clippath-5">
      <path
         class="cls-13"
         d="M 125.51,425.66 C 119.54,400.73 88.33,315.26 79.02,282.43 77,275.32 82.73,267.97 90.04,268.97 c 38.43,5.26 131.03,12.23 158.08,10.6 4.29,-0.26 9.02,2.79 10.53,6.82 l 53.18,141.35 c 1.83,4.87 6.64,13.89 2.82,16.5 -4.26,2.92 -142.7,-1.9 -180.85,-10.45 -4.09,-0.92 -7.31,-4.04 -8.29,-8.12 z"
         id="path19" />
    </clipPath>
  </defs>
  <g
     id="g154"
     transform="translate(-59.989047,-48.317118)">
    <circle
       class="cls-7"
       cx="270.60001"
       cy="233.83"
       r="6.2800002"
       id="circle32" />
    <g
       id="g48">
      <g
         class="cls-24"
         clip-path="url(#clippath-1)"
         id="g44">
        <g
           id="g40">
          <polygon
             class="cls-6"
             points="131,200.73 513.84,157.28 507.5,269.07 124.66,312.52 "
             id="polygon34" />
          <polygon
             class="cls-9"
             points="113.21,350.68 105.95,351.51 100.22,416.58 466.94,434.37 484.79,331.16 494.03,330.11 499.32,270.03 116.93,308.48 "
             id="polygon36" />
          <polygon
             class="cls-2"
             points="127.96,141.95 133.3,141.34 126.17,250 511.52,211.56 516.53,93.38 511.2,93.99 516.53,33.43 133.69,76.87 "
             id="polygon38" />
        </g>
        <path
           class="cls-8"
           d="m 303.48,43.44 c 0,0 101.75,67.61 89.21,236.07 -9.48,127.45 1.92,178.73 1.92,178.73 L 471.49,428.14 509.23,227.97 484.9,30.06 351.36,-34.04 Z"
           id="path42" />
      </g>
      <path
         class="cls-19"
         d="m 424.32,399.79 c 0.94,-15.49 0.77,-36.33 1.06,-67.2 -0.17,-62.02 3.35,-122.11 -17.87,-173.74 C 361.35,46.51 227.07,40.05 172.39,129.02 c -21.19,34.48 -19.73,78.13 -13.38,111.1 6.59,34.2 4.08,62.43 -0.99,97.78 -1.35,9.39 -1.69,16.78 -1.26,21.8 0.52,6.6 3.5,9.2 9.57,10.71 51.62,8.05 171.22,27.81 242.85,37.73 4.17,0.35 9.47,2.72 12.37,-0.13 1.54,-1.52 2.44,-5.23 2.77,-8.21 z"
         id="path46" />
    </g>
    <path
       class="cls-20"
       d="m 295.16,184.96 c 4.7,5.28 9.04,7.93 27.09,-9.16"
       id="path50" />
    <path
       class="cls-20"
       d="m 236.3,189.96 c -6.45,3.38 -9.04,7.93 -27.09,-9.16"
       id="path52" />
    <g
       id="g68">
      <g
         id="g62">
        <g
           class="cls-23"
           clip-path="url(#clippath-2)"
           id="g58">
          <polygon
             class="cls-9"
             points="310.09,252.12 284.1,200.77 158.97,239.66 178.46,273.29 302.5,292.48 "
             id="polygon54" />
          <polygon
             class="cls-4"
             points="304.1,292.48 186.38,270.75 138.31,324.93 236.26,342.89 "
             id="polygon56" />
        </g>
        <path
           class="cls-11"
           d="m 192.88,302.5 c 2.57,-2.36 31.61,-23.47 33.75,-34.83 3.12,-16.58 25.02,-36.94 30.93,-32.17 8.6,6.96 -6.28,13.3 -6.49,17.16 0,0 13.08,-3 16.93,6 3.86,9 4.29,21.22 2.14,19.29 0,0 -1.93,10.93 -8.79,8.36 0,0 -4.72,7.07 -13.5,14.15 -8.79,7.07 -23.79,33.65 -24.65,34.73 -0.86,1.08 -30.32,-32.69 -30.32,-32.69 z"
           id="path60" />
      </g>
      <path
         class="cls-5"
         d="m 266.94,278.16 c -0.14,-5.06 -4.57,-8.11 -9.28,-8.87 -2.37,-0.62 -1.74,-4.15 0.68,-3.93 7.05,0.1 13.67,4.76 14.94,11.95 0.77,4.49 -5.88,5.4 -6.35,0.86 v 0 z"
         id="path64" />
      <path
         class="cls-5"
         d="m 258.18,285.88 c 0.31,-0.65 0.27,-1.82 0.03,-2.57 -0.29,-1.07 -1.19,-1.79 -2.17,-2.36 -0.91,-0.58 -1.18,-1.78 -0.61,-2.7 1.2,-1.74 3.38,-0.55 4.87,0.25 2.8,1.68 4.32,5.04 4.24,8.26 -0.69,4.18 -6.84,3.33 -6.36,-0.88 z"
         id="path66" />
    </g>
    <circle
       class="cls-3"
       cx="212.59"
       cy="208.92999"
       r="21.17"
       id="circle70" />
    <circle
       class="cls-3"
       cx="319.56"
       cy="203.53999"
       r="21.17"
       id="circle72" />
    <g
       id="g78">
      <circle
         class="cls-5"
         cx="212.59"
         cy="207.33"
         r="19.57"
         id="circle74" />
      <circle
         class="cls-5"
         cx="319.56"
         cy="201.24001"
         r="19.57"
         id="circle76" />
    </g>
    <circle
       class="cls-7"
       cx="203.22"
       cy="205.57001"
       r="5.9899998"
       id="circle80" />
    <circle
       class="cls-7"
       cx="311.97"
       cy="199.58"
       r="5.9899998"
       id="circle82" />
    <g
       id="g138">
      <g
         id="g124">
        <path
           class="cls-21"
           d="m 312.52,442 c 0,0 1.1,2.23 6.84,2.23 5.74,0 111.97,-32.81 111.97,-35.27 0,-2.46 -5.33,-19.69 -5.33,-19.69 l -228.04,-32.4 z"
           id="path84" />
        <g
           class="cls-29"
           clip-path="url(#clippath-3)"
           id="g120">
          <path
             class="cls-15"
             d="m 434.2,390.91 c -1.03,-0.78 -140.27,46.76 -140.27,46.76 0,0 9.43,22.97 33.22,21.74 23.79,-1.23 156.26,-31.17 107.05,-68.49 z"
             id="path86" />
          <g
             id="g118">
            <path
               class="cls-27"
               d="M 393.36,394.74 265.8,379.54 c -0.23,-0.03 -0.46,0 -0.67,0.09 l -40.52,17.05 c -1.22,0.52 -1.02,2.31 0.29,2.53 l 105.78,18.13 c 0.21,0.04 0.43,0.02 0.63,-0.04 l 62.29,-19.98 c 1.36,-0.44 1.17,-2.42 -0.25,-2.58 z"
               id="path88" />
            <g
               class="cls-25"
               clip-path="url(#clippath-4)"
               id="g114">
              <path
                 class="cls-12"
                 d="m 354.07,411.76 c -1.46,0 -144.51,-23.08 -144.51,-23.08"
                 id="path90" />
              <path
                 class="cls-12"
                 d="m 371.33,406.98 c -1.46,0 -153.45,-24.12 -153.45,-24.12"
                 id="path92" />
              <path
                 class="cls-12"
                 d="m 386.72,402.2 c -1.46,0 -159.55,-23.04 -159.55,-23.04"
                 id="path94" />
              <line
                 class="cls-12"
                 x1="309.98999"
                 y1="417.37"
                 x2="397.10999"
                 y2="387.01999"
                 id="line96" />
              <line
                 class="cls-12"
                 x1="296.39999"
                 y1="415.73001"
                 x2="383.51999"
                 y2="385.37"
                 id="line98" />
              <line
                 class="cls-12"
                 x1="282.81"
                 y1="414.07999"
                 x2="369.92999"
                 y2="383.73001"
                 id="line100" />
              <line
                 class="cls-12"
                 x1="269.22"
                 y1="412.44"
                 x2="356.34"
                 y2="382.07999"
                 id="line102" />
              <line
                 class="cls-12"
                 x1="255.63"
                 y1="410.79001"
                 x2="342.75"
                 y2="380.44"
                 id="line104" />
              <line
                 class="cls-12"
                 x1="242.03999"
                 y1="409.14999"
                 x2="329.16"
                 y2="378.79001"
                 id="line106" />
              <line
                 class="cls-12"
                 x1="228.45"
                 y1="407.5"
                 x2="315.57001"
                 y2="377.14999"
                 id="line108" />
              <line
                 class="cls-12"
                 x1="214.86"
                 y1="405.85999"
                 x2="301.98001"
                 y2="375.5"
                 id="line110" />
              <line
                 class="cls-12"
                 x1="201.27"
                 y1="404.20999"
                 x2="288.39001"
                 y2="373.85999"
                 id="line112" />
            </g>
            <path
               class="cls-14"
               d="M 393.36,394.74 265.8,379.54 c -0.23,-0.03 -0.46,0 -0.67,0.09 l -40.52,17.05 c -1.22,0.52 -1.02,2.31 0.29,2.53 l 105.78,18.13 c 0.21,0.04 0.43,0.02 0.63,-0.04 l 62.29,-19.98 c 1.36,-0.44 1.17,-2.42 -0.25,-2.58 z"
               id="path116" />
          </g>
        </g>
        <path
           class="cls-17"
           d="m 312.52,442 c 0,0 1.1,2.23 6.84,2.23 5.74,0 111.97,-32.81 111.97,-35.27 0,-2.46 -5.33,-19.69 -5.33,-19.69 l -228.04,-32.4 z"
           id="path122" />
      </g>
      <g
         id="g136">
        <path
           class="cls-21"
           d="M 125.51,425.66 C 119.54,400.73 88.33,315.26 79.02,282.43 77,275.32 82.73,267.97 90.04,268.97 c 38.43,5.26 131.03,12.23 158.08,10.6 4.29,-0.26 9.02,2.79 10.53,6.82 l 53.18,141.35 c 1.83,4.87 6.64,13.89 2.82,16.5 -4.26,2.92 -142.7,-1.9 -180.85,-10.45 -4.09,-0.92 -7.31,-4.04 -8.29,-8.12 z"
           id="path126" />
        <g
           class="cls-30"
           clip-path="url(#clippath-5)"
           id="g132">
          <path
             class="cls-10"
             d="m 71.04,285.62 c 1.96,-0.65 15.06,-6.32 19.64,-6.11 4.58,0.21 129.65,12.87 167.96,6.87 38.31,-6 -156.3,-25.84 -156.3,-25.84 l -29.53,5.31 z"
             id="path128" />
          <path
             class="cls-1"
             d="m 138.75,431.08 c 0,0 156.87,6.26 158.46,3.31 1.59,-2.94 -17.02,-68.33 -17.02,-68.33 0,0 25.89,69.87 25.79,73.98 -0.1,4.11 -108.22,0.22 -167.23,-8.96 z"
             id="path130" />
        </g>
        <path
           class="cls-17"
           d="M 125.51,425.66 C 119.54,400.73 88.33,315.26 79.02,282.43 77,275.32 82.73,267.97 90.04,268.97 c 38.43,5.26 131.03,12.23 158.08,10.6 4.29,-0.26 9.02,2.79 10.53,6.82 l 53.18,141.35 c 1.83,4.87 6.64,13.89 2.82,16.5 -4.26,2.92 -142.7,-1.9 -180.85,-10.45 -4.09,-0.92 -7.31,-4.04 -8.29,-8.12 z"
           id="path134" />
      </g>
    </g>
    <path
       class="cls-26"
       d="m 402.14,315.07 c 0,0 -15.08,21.03 -27.55,28.11 -13.17,7.47 -20.33,10.92 -34.1,7.24 -15.51,-4.15 -31.69,10.79 -27.99,28.57 4.87,4.81 9.12,-0.3 9.86,-1.5 0,0 -3.44,9.76 4.88,9.75 3.67,-0.47 5.46,-4.43 5.46,-4.43 0,0 1.58,11.46 8.41,8.44 0.73,-0.32 1.36,-0.86 1.76,-1.54 2.21,-3.84 1.23,-9.99 3.12,-10.65 2.06,-0.73 39.72,4.49 69.32,-25.96 l -13.17,-38 z"
       id="path140" />
    <g
       id="g148">
      <path
         class="cls-16"
         d="m 397.75,315.07 c 0,0 -10.69,22.85 -23.16,29.93 -13.17,7.47 -20.33,10.92 -34.1,7.24 -15.51,-4.15 -31.69,10.79 -27.99,28.57 4.87,4.81 8.67,-0.34 9.41,-1.55 0,0 -2.98,9.8 5.33,9.8 3.67,-0.47 5.46,-4.43 5.46,-4.43 0,0 1.58,11.46 8.41,8.44 0.73,-0.32 1.36,-0.86 1.76,-1.54 2.21,-3.84 1.23,-9.99 3.12,-10.65 2.06,-0.73 48.65,-0.37 77.46,-36.96"
         id="path142" />
      <path
         class="cls-5"
         d="m 319.57,377.87 c 0.96,-6.61 5.58,-14.17 13.15,-13.24 0.79,0.04 1.4,0.72 1.35,1.51 -0.04,0.8 -0.72,1.36 -1.48,1.37 -1.26,0.13 -2.46,0.35 -3.43,1 -3.1,2.03 -4.11,6.26 -4.25,9.78 -0.11,3.89 -5.84,3.45 -5.35,-0.41 v 0 z"
         id="path144" />
      <path
         class="cls-5"
         d="m 330.46,385.27 c -0.04,-5.64 2.81,-12.61 9.16,-13.13 1.6,-0.21 2.14,2.07 0.63,2.61 -4.38,1.08 -5.1,6.24 -4.45,10.04 0.7,4 -5.31,4.55 -5.34,0.47 v 0 z"
         id="path146" />
    </g>
    <g
       class="cls-22"
       id="g152">
      <path
         class="cls-10"
         d="m 206.33,392.71 -21.37,-40.64 -4.8,40.04 -2.68,-0.06 c 0,0 -27.98,-50.31 -29.28,-52.17 -0.83,-1.27 -2.12,-2.19 -3.86,-2.78 l 0.05,-2.16 24.36,0.55 -0.05,2.16 c -1.65,-0.04 -2.79,0.21 -3.43,0.74 -0.63,0.53 -0.95,1.15 -0.97,1.85 -0.02,0.66 0.49,2.67 1.52,6 l 12.03,21.64 1.86,-21.32 -0.48,-1.42 c -0.97,-2.95 -1.83,-4.83 -2.58,-5.65 -0.76,-0.82 -1.94,-1.4 -3.55,-1.75 l 0.05,-2.16 24.73,0.56 -0.05,2.16 c -1.93,0.07 -3.16,0.35 -3.69,0.82 -0.53,0.48 -0.8,1.16 -0.82,2.06 -0.02,0.9 0.44,2.76 1.37,5.71 l 11.77,21.63 1.2,-19.64 c 0.96,-2.79 1.45,-4.69 1.47,-5.7 0.03,-1.52 -0.27,-2.64 -0.9,-3.36 -0.64,-0.72 -1.9,-1.17 -3.79,-1.37 l 0.05,-2.16 14.3,0.32 -0.05,2.16 c -1.59,0.2 -2.86,0.8 -3.81,1.82 -0.95,1.01 -2.22,3.92 -3.81,8.72 l -1.82,43.45 -2.94,-0.07 z"
         id="path150" />
    </g>
  </g>
</svg>
