<?xml version="1.0" encoding="UTF-8"?>
<svg id="Capa_1" data-name="Capa 1" xmlns="http://www.w3.org/2000/svg" xmlns:xlink="http://www.w3.org/1999/xlink" viewBox="0 0 500 500">
  <defs>
    <style>
      .cls-1 {
        fill: #344a65;
      }

      .cls-1, .cls-2, .cls-3, .cls-4, .cls-5, .cls-6, .cls-7, .cls-8, .cls-9, .cls-10, .cls-11 {
        stroke-width: 0px;
      }

      .cls-12 {
        stroke-width: 6.42px;
      }

      .cls-12, .cls-13, .cls-14, .cls-15, .cls-16, .cls-17, .cls-18, .cls-19, .cls-20, .cls-21, .cls-22 {
        stroke: #000;
      }

      .cls-12, .cls-13, .cls-15, .cls-16, .cls-18, .cls-19, .cls-21, .cls-22 {
        fill: none;
      }

      .cls-12, .cls-18 {
        stroke-linejoin: round;
      }

      .cls-12, .cls-18, .cls-22 {
        stroke-linecap: round;
      }

      .cls-13 {
        stroke-width: 1.81px;
      }

      .cls-13, .cls-14, .cls-15, .cls-16, .cls-17, .cls-19, .cls-20, .cls-21, .cls-22 {
        stroke-miterlimit: 10;
      }

      .cls-14, .cls-23 {
        fill: #637a93;
      }

      .cls-14, .cls-19 {
        stroke-width: 7.26px;
      }

      .cls-24 {
        opacity: .6;
      }

      .cls-25 {
        clip-path: url(#clippath-2);
      }

      .cls-2 {
        opacity: .18;
      }

      .cls-3 {
        fill: #99d3f6;
      }

      .cls-26 {
        clip-path: url(#clippath-6);
      }

      .cls-27, .cls-11 {
        fill: #2c2c2a;
      }

      .cls-28 {
        clip-path: url(#clippath-1);
      }

      .cls-29 {
        clip-path: url(#clippath-4);
      }

      .cls-15, .cls-20 {
        stroke-width: 3.63px;
      }

      .cls-5 {
        fill: #8bd477;
      }

      .cls-6 {
        fill: #fff;
      }

      .cls-16 {
        stroke-width: 8.87px;
      }

      .cls-30, .cls-20 {
        fill: #77a9c9;
      }

      .cls-17 {
        fill: #243d6d;
        stroke-width: 5.44px;
      }

      .cls-7 {
        opacity: .11;
      }

      .cls-8 {
        fill: #bcf987;
      }

      .cls-9 {
        fill: #cbcbcb;
      }

      .cls-31 {
        clip-path: url(#clippath);
      }

      .cls-32 {
        clip-path: url(#clippath-3);
      }

      .cls-18 {
        stroke-width: 5.97px;
      }

      .cls-10 {
        fill: #9fb4ca;
      }

      .cls-21 {
        stroke-width: 9.03px;
      }

      .cls-22 {
        stroke-width: 7.76px;
      }
    </style>
    <clipPath id="clippath">
      <path class="cls-21" d="m424.32,399.79c.94-15.49.77-36.33,1.06-67.2-.17-62.02,3.35-122.11-17.87-173.74-46.16-112.34-180.44-118.8-235.12-29.83-21.19,34.48-19.73,78.13-13.38,111.1,6.59,34.2,4.08,62.43-.99,97.78-1.35,9.39-1.69,16.78-1.26,21.8.52,6.6,3.5,9.2,9.57,10.71,51.62,8.05,171.22,27.81,242.85,37.73,4.17.35,9.47,2.72,12.37-.13,1.54-1.52,2.44-5.23,2.77-8.21Z"/>
    </clipPath>
    <clipPath id="clippath-1">
      <path class="cls-12" d="m192.88,302.5c2.57-2.36,31.61-23.47,33.75-34.83,3.12-16.58,25.02-36.94,30.93-32.17,8.6,6.96-6.28,13.3-6.49,17.16,0,0,13.08-3,16.93,6,3.86,9,4.29,21.22,2.14,19.29,0,0-1.93,10.93-8.79,8.36,0,0-4.72,7.07-13.5,14.15-8.79,7.07-23.79,33.65-24.65,34.73s-30.32-32.69-30.32-32.69Z"/>
    </clipPath>
    <clipPath id="clippath-2">
      <path class="cls-14" d="m312.52,442s1.1,2.23,6.84,2.23,111.97-32.81,111.97-35.27-5.33-19.69-5.33-19.69l-228.04-32.4,114.56,85.13Z"/>
    </clipPath>
    <clipPath id="clippath-3">
      <path class="cls-20" d="m393.36,394.74l-127.56-15.2c-.23-.03-.46,0-.67.09l-40.52,17.05c-1.22.52-1.02,2.31.29,2.53l105.78,18.13c.21.04.43.02.63-.04l62.29-19.98c1.36-.44,1.17-2.42-.25-2.58Z"/>
    </clipPath>
    <clipPath id="clippath-4">
      <path class="cls-14" d="m125.51,425.66c-5.97-24.93-37.18-110.4-46.49-143.23-2.02-7.11,3.71-14.46,11.02-13.46,38.43,5.26,131.03,12.23,158.08,10.6,4.29-.26,9.02,2.79,10.53,6.82l53.18,141.35c1.83,4.87,6.64,13.89,2.82,16.5-4.26,2.92-142.7-1.9-180.85-10.45-4.09-.92-7.31-4.04-8.29-8.12Z"/>
    </clipPath>
    <clipPath id="clippath-6">
      <path class="cls-16" d="m427.4,914.96c.92-15.21.76-35.69,1.04-66.01-.17-60.92,3.29-119.95-17.55-170.66-45.34-110.35-177.25-116.7-230.96-29.31-20.82,33.87-19.38,76.75-13.15,109.13,6.47,33.6,4.01,61.32-.97,96.05-1.32,9.22-1.66,16.49-1.24,21.41.51,6.48,3.44,9.04,9.41,10.52,50.7,7.91,168.18,27.32,238.55,37.07,4.1.35,9.3,2.68,12.15-.13,1.52-1.49,2.39-5.14,2.72-8.07Z"/>
    </clipPath>
  </defs>
  <g>
    <circle class="cls-6" cx="270.6" cy="233.83" r="6.28"/>
    <g>
      <g class="cls-31">
        <g>
          <polygon class="cls-8" points="509.8 165.72 126.96 209.16 132.69 144.09 515.53 100.64 509.8 165.72"/>
          <polygon class="cls-6" points="507.11 230.36 124.28 273.8 130 208.73 512.84 165.28 507.11 230.36"/>
          <polygon class="cls-9" points="502.2 295.69 119.36 339.13 125.09 274.06 507.93 230.61 502.2 295.69"/>
          <polygon class="cls-11" points="500 406.4 113.3 399.61 119.03 334.54 501.86 291.09 500 406.4"/>
          <polygon class="cls-5" points="509.8 105.76 126.96 149.21 132.69 84.14 515.53 40.69 509.8 105.76"/>
        </g>
        <path class="cls-7" d="m302.48,49.44s101.75,67.61,89.21,236.07c-9.48,127.45,1.92,178.73,1.92,178.73l76.88-30.1,37.74-200.17-24.33-197.91L350.36-28.04l-47.88,77.48Z"/>
      </g>
      <path class="cls-21" d="m424.32,399.79c.94-15.49.77-36.33,1.06-67.2-.17-62.02,3.35-122.11-17.87-173.74-46.16-112.34-180.44-118.8-235.12-29.83-21.19,34.48-19.73,78.13-13.38,111.1,6.59,34.2,4.08,62.43-.99,97.78-1.35,9.39-1.69,16.78-1.26,21.8.52,6.6,3.5,9.2,9.57,10.71,51.62,8.05,171.22,27.81,242.85,37.73,4.17.35,9.47,2.72,12.37-.13,1.54-1.52,2.44-5.23,2.77-8.21Z"/>
    </g>
    <path class="cls-22" d="m295.16,184.96c4.7,5.28,9.04,7.93,27.09-9.16"/>
    <path class="cls-22" d="m236.3,189.96c-6.45,3.38-9.04,7.93-27.09-9.16"/>
    <g>
      <g>
        <g class="cls-28">
          <polygon class="cls-11" points="178.46 273.29 302.5 292.48 310.09 252.12 284.1 200.77 158.97 239.66 178.46 273.29"/>
          <polygon class="cls-3" points="138.31 324.93 236.26 342.89 304.1 292.48 186.38 270.75 138.31 324.93"/>
        </g>
        <path class="cls-12" d="m192.88,302.5c2.57-2.36,31.61-23.47,33.75-34.83,3.12-16.58,25.02-36.94,30.93-32.17,8.6,6.96-6.28,13.3-6.49,17.16,0,0,13.08-3,16.93,6,3.86,9,4.29,21.22,2.14,19.29,0,0-1.93,10.93-8.79,8.36,0,0-4.72,7.07-13.5,14.15-8.79,7.07-23.79,33.65-24.65,34.73s-30.32-32.69-30.32-32.69Z"/>
      </g>
      <path class="cls-4" d="m266.94,278.16c-.14-5.06-4.57-8.11-9.28-8.87-2.37-.62-1.74-4.15.68-3.93,7.05.1,13.67,4.76,14.94,11.95.77,4.49-5.88,5.4-6.35.86h0Z"/>
      <path class="cls-4" d="m258.18,285.88c.31-.65.27-1.82.03-2.57-.3-1.07-1.19-1.79-2.17-2.36-1.87-1.18-.58-4.1,1.53-3.55,4.25.81,7.16,5.1,6.97,9.36-.69,4.18-6.84,3.33-6.36-.88h0Z"/>
    </g>
    <circle class="cls-2" cx="212.59" cy="208.93" r="21.17"/>
    <circle class="cls-2" cx="319.56" cy="203.54" r="21.17"/>
    <g>
      <circle class="cls-4" cx="212.59" cy="207.33" r="19.57"/>
      <circle class="cls-4" cx="319.56" cy="201.24" r="19.57"/>
    </g>
    <circle class="cls-6" cx="203.22" cy="205.57" r="5.99"/>
    <circle class="cls-6" cx="311.97" cy="199.58" r="5.99"/>
    <g>
      <g>
        <path class="cls-23" d="m312.52,442s1.1,2.23,6.84,2.23,111.97-32.81,111.97-35.27-5.33-19.69-5.33-19.69l-228.04-32.4,114.56,85.13Z"/>
        <g class="cls-25">
          <path class="cls-17" d="m434.2,390.91c-1.03-.78-140.27,46.76-140.27,46.76,0,0,9.43,22.97,33.22,21.74,23.79-1.23,156.26-31.17,107.05-68.49Z"/>
          <g>
            <path class="cls-30" d="m393.36,394.74l-127.56-15.2c-.23-.03-.46,0-.67.09l-40.52,17.05c-1.22.52-1.02,2.31.29,2.53l105.78,18.13c.21.04.43.02.63-.04l62.29-19.98c1.36-.44,1.17-2.42-.25-2.58Z"/>
            <g class="cls-32">
              <path class="cls-13" d="m354.07,411.76c-1.46,0-144.51-23.08-144.51-23.08"/>
              <path class="cls-13" d="m371.33,406.98c-1.46,0-153.45-24.12-153.45-24.12"/>
              <path class="cls-13" d="m386.72,402.2c-1.46,0-159.55-23.04-159.55-23.04"/>
              <line class="cls-13" x1="309.99" y1="417.37" x2="397.11" y2="387.02"/>
              <line class="cls-13" x1="296.4" y1="415.73" x2="383.52" y2="385.37"/>
              <line class="cls-13" x1="282.81" y1="414.08" x2="369.93" y2="383.73"/>
              <line class="cls-13" x1="269.22" y1="412.44" x2="356.34" y2="382.08"/>
              <line class="cls-13" x1="255.63" y1="410.79" x2="342.75" y2="380.44"/>
              <line class="cls-13" x1="242.04" y1="409.15" x2="329.16" y2="378.79"/>
              <line class="cls-13" x1="228.45" y1="407.5" x2="315.57" y2="377.15"/>
              <line class="cls-13" x1="214.86" y1="405.86" x2="301.98" y2="375.5"/>
              <line class="cls-13" x1="201.27" y1="404.21" x2="288.39" y2="373.86"/>
            </g>
            <path class="cls-15" d="m393.36,394.74l-127.56-15.2c-.23-.03-.46,0-.67.09l-40.52,17.05c-1.22.52-1.02,2.31.29,2.53l105.78,18.13c.21.04.43.02.63-.04l62.29-19.98c1.36-.44,1.17-2.42-.25-2.58Z"/>
          </g>
        </g>
        <path class="cls-19" d="m312.52,442s1.1,2.23,6.84,2.23,111.97-32.81,111.97-35.27-5.33-19.69-5.33-19.69l-228.04-32.4,114.56,85.13Z"/>
      </g>
      <g>
        <path class="cls-23" d="m125.51,425.66c-5.97-24.93-37.18-110.4-46.49-143.23-2.02-7.11,3.71-14.46,11.02-13.46,38.43,5.26,131.03,12.23,158.08,10.6,4.29-.26,9.02,2.79,10.53,6.82l53.18,141.35c1.83,4.87,6.64,13.89,2.82,16.5-4.26,2.92-142.7-1.9-180.85-10.45-4.09-.92-7.31-4.04-8.29-8.12Z"/>
        <g class="cls-29">
          <path class="cls-10" d="m71.04,285.62c1.96-.65,15.06-6.32,19.64-6.11,4.58.21,129.65,12.87,167.96,6.87,38.31-6-156.3-25.84-156.3-25.84l-29.53,5.31-1.77,19.77Z"/>
          <path class="cls-1" d="m138.75,431.08s156.87,6.26,158.46,3.31c1.59-2.94-17.02-68.33-17.02-68.33,0,0,25.89,69.87,25.79,73.98s-108.22.22-167.23-8.96Z"/>
        </g>
        <path class="cls-19" d="m125.51,425.66c-5.97-24.93-37.18-110.4-46.49-143.23-2.02-7.11,3.71-14.46,11.02-13.46,38.43,5.26,131.03,12.23,158.08,10.6,4.29-.26,9.02,2.79,10.53,6.82l53.18,141.35c1.83,4.87,6.64,13.89,2.82,16.5-4.26,2.92-142.7-1.9-180.85-10.45-4.09-.92-7.31-4.04-8.29-8.12Z"/>
      </g>
    </g>
    <path class="cls-27" d="m402.14,315.07s-15.08,21.03-27.55,28.11c-13.17,7.47-20.33,10.92-34.1,7.24-15.51-4.15-31.69,10.79-27.99,28.57,4.87,4.81,9.12-.3,9.86-1.5,0,0-3.44,9.76,4.88,9.75,3.67-.47,5.46-4.43,5.46-4.43,0,0,1.58,11.46,8.41,8.44.73-.32,1.36-.86,1.76-1.54,2.21-3.84,1.23-9.99,3.12-10.65,2.06-.73,39.72,4.49,69.32-25.96l-13.17-38Z"/>
    <g>
      <path class="cls-18" d="m397.75,315.07s-10.69,22.85-23.16,29.93c-13.17,7.47-20.33,10.92-34.1,7.24-15.51-4.15-31.69,10.79-27.99,28.57,4.87,4.81,8.67-.34,9.41-1.55,0,0-2.98,9.8,5.33,9.8,3.67-.47,5.46-4.43,5.46-4.43,0,0,1.58,11.46,8.41,8.44.73-.32,1.36-.86,1.76-1.54,2.21-3.84,1.23-9.99,3.12-10.65,2.06-.73,48.65-.37,77.46-36.96"/>
      <path class="cls-4" d="m319.57,377.87c.96-6.61,5.58-14.17,13.15-13.24.79.04,1.4.72,1.35,1.51-.04.8-.72,1.36-1.48,1.37-1.26.13-2.46.35-3.43,1-3.1,2.03-4.11,6.26-4.25,9.78-.11,3.89-5.83,3.45-5.35-.41h0Z"/>
      <path class="cls-4" d="m330.46,385.27c-.04-5.64,2.81-12.61,9.16-13.13,1.6-.21,2.14,2.07.63,2.61-4.38,1.09-5.1,6.24-4.45,10.04.7,4-5.31,4.55-5.34.47h0Z"/>
    </g>
    <g class="cls-24">
      <path class="cls-10" d="m206.33,392.71l-21.37-40.64-4.8,40.04-2.68-.06s-27.98-50.31-29.28-52.17c-.83-1.27-2.12-2.19-3.86-2.78l.05-2.16,24.36.55-.05,2.16c-1.65-.04-2.79.21-3.43.74-.63.53-.95,1.15-.97,1.85-.02.66.49,2.67,1.52,6l12.03,21.64,1.86-21.32-.48-1.42c-.97-2.95-1.83-4.83-2.58-5.65-.76-.82-1.94-1.4-3.55-1.75l.05-2.16,24.73.56-.05,2.16c-1.93.07-3.16.35-3.69.82-.53.48-.8,1.16-.82,2.06s.44,2.76,1.37,5.71l11.77,21.63,1.2-19.64c.96-2.79,1.45-4.69,1.47-5.7.03-1.52-.27-2.64-.9-3.36-.64-.72-1.9-1.17-3.79-1.37l.05-2.16,14.3.32-.05,2.16c-1.59.2-2.86.8-3.81,1.82-.95,1.01-2.22,3.92-3.81,8.72l-1.82,43.45-2.94-.07Z"/>
    </g>
  </g>
  <g>
    <g class="cls-26">
      <path class="cls-7" d="m308.71,564.91s99.94,66.41,87.63,231.89c-9.32,125.19,1.89,175.56,1.89,175.56l75.52-29.57,37.07-196.62-23.9-194.41-131.18-62.96-47.03,76.11Z"/>
    </g>
    <path class="cls-16" d="m427.4,914.96c.92-15.21.76-35.69,1.04-66.01-.17-60.92,3.29-119.95-17.55-170.66-45.34-110.35-177.25-116.7-230.96-29.31-20.82,33.87-19.38,76.75-13.15,109.13,6.47,33.6,4.01,61.32-.97,96.05-1.32,9.22-1.66,16.49-1.24,21.41.51,6.48,3.44,9.04,9.41,10.52,50.7,7.91,168.18,27.32,238.55,37.07,4.1.35,9.3,2.68,12.15-.13,1.52-1.49,2.39-5.14,2.72-8.07Z"/>
  </g>
</svg>