<?xml version="1.0" encoding="UTF-8" standalone="no"?>
<svg
   id="Capa_1"
   data-name="Capa 1"
   viewBox="0 0 388.59262 408.5665"
   version="1.1"
   sodipodi:docname="barba_editor_bear.svg"
   width="388.59262"
   height="408.5665"
   inkscape:version="1.1.2 (0a00cf5339, 2022-02-04)"
   xmlns:inkscape="http://www.inkscape.org/namespaces/inkscape"
   xmlns:sodipodi="http://sodipodi.sourceforge.net/DTD/sodipodi-0.dtd"
   xmlns="http://www.w3.org/2000/svg"
   xmlns:svg="http://www.w3.org/2000/svg">
  <sodipodi:namedview
     id="namedview181"
     pagecolor="#ffffff"
     bordercolor="#666666"
     borderopacity="1.0"
     inkscape:pageshadow="2"
     inkscape:pageopacity="0.0"
     inkscape:pagecheckerboard="0"
     showgrid="false"
     fit-margin-top="15"
     fit-margin-left="15"
     fit-margin-right="20"
     fit-margin-bottom="15"
     inkscape:zoom="0.844"
     inkscape:cx="-57.464455"
     inkscape:cy="230.45024"
     inkscape:window-width="1920"
     inkscape:window-height="1016"
     inkscape:window-x="1920"
     inkscape:window-y="27"
     inkscape:window-maximized="1"
     inkscape:current-layer="Capa_1" />
  <defs
     id="defs22">
    <style
       id="style2">
      .cls-1 {
        fill: #344a65;
      }

      .cls-1, .cls-2, .cls-3, .cls-4, .cls-5, .cls-6, .cls-7, .cls-8, .cls-9, .cls-10, .cls-11, .cls-12, .cls-13 {
        stroke-width: 0px;
      }

      .cls-2 {
        fill: #ffe97a;
      }

      .cls-14 {
        fill: #243d6d;
        stroke-width: 5.35px;
      }

      .cls-14, .cls-15, .cls-16, .cls-17, .cls-18, .cls-19, .cls-20, .cls-21, .cls-22, .cls-23 {
        stroke: #000;
      }

      .cls-14, .cls-15, .cls-16, .cls-18, .cls-19, .cls-20, .cls-21, .cls-23 {
        stroke-miterlimit: 10;
      }

      .cls-24 {
        opacity: .6;
      }

      .cls-25, .cls-15 {
        fill: #637a93;
      }

      .cls-26 {
        clip-path: url(#clippath-2);
      }

      .cls-3 {
        opacity: .18;
      }

      .cls-4 {
        fill: #99d3f6;
      }

      .cls-15, .cls-16 {
        stroke-width: 7.13px;
      }

      .cls-6 {
        fill: #1a1a1a;
      }

      .cls-7 {
        fill: #f4b56a;
      }

      .cls-8, .cls-27 {
        fill: #b8b8b8;
      }

      .cls-16, .cls-17, .cls-18, .cls-19, .cls-21, .cls-22, .cls-23 {
        fill: none;
      }

      .cls-17 {
        stroke-width: 5.86px;
      }

      .cls-17, .cls-18, .cls-22 {
        stroke-linecap: round;
      }

      .cls-17, .cls-22 {
        stroke-linejoin: round;
      }

      .cls-28 {
        clip-path: url(#clippath-1);
      }

      .cls-29 {
        clip-path: url(#clippath-4);
      }

      .cls-18 {
        stroke-width: 7.62px;
      }

      .cls-9 {
        fill: #fff;
      }

      .cls-19 {
        stroke-width: 8.87px;
      }

      .cls-30, .cls-20 {
        fill: #77a9c9;
      }

      .cls-20, .cls-23 {
        stroke-width: 3.56px;
      }

      .cls-21 {
        stroke-width: 1.78px;
      }

      .cls-10 {
        opacity: .11;
      }

      .cls-11 {
        fill: #ffedc0;
      }

      .cls-31 {
        clip-path: url(#clippath);
      }

      .cls-22 {
        stroke-width: 6.31px;
      }

      .cls-32 {
        clip-path: url(#clippath-3);
      }

      .cls-12 {
        fill: #9fb4ca;
      }

      .cls-33 {
        clip-path: url(#clippath-5);
      }

      .cls-13 {
        fill: #c69c6d;
      }
    </style>
    <clipPath
       id="clippath">
      <path
         class="cls-19"
         d="m 427.4,394.96 c 0.92,-15.21 0.76,-35.69 1.04,-66.01 C 428.27,268.03 431.73,209 410.89,158.29 365.55,47.94 233.64,41.59 179.93,128.98 c -20.82,33.87 -19.38,76.75 -13.15,109.13 6.47,33.6 4.01,61.32 -0.97,96.05 -1.32,9.22 -1.66,16.49 -1.24,21.41 0.51,6.48 3.44,9.04 9.41,10.52 50.7,7.91 168.18,27.32 238.55,37.07 4.1,0.35 9.3,2.68 12.15,-0.13 1.52,-1.49 2.39,-5.14 2.72,-8.07 z"
         id="path4" />
    </clipPath>
    <clipPath
       id="clippath-1">
      <path
         class="cls-22"
         d="m 200.06,299.39 c 2.53,-2.32 31.05,-23.05 33.15,-34.21 3.07,-16.29 24.58,-36.29 30.38,-31.6 8.45,6.84 -6.17,13.07 -6.38,16.86 0,0 12.84,-2.95 16.63,5.9 3.79,8.84 4.21,20.85 2.11,18.95 0,0 -1.9,10.74 -8.63,8.21 0,0 -4.63,6.95 -13.27,13.9 -8.63,6.95 -23.37,33.06 -24.21,34.11 -0.84,1.05 -29.78,-32.11 -29.78,-32.11 z"
         id="path7" />
    </clipPath>
    <clipPath
       id="clippath-2">
      <path
         class="cls-15"
         d="m 317.58,436.42 c 0,0 1.08,2.19 6.72,2.19 5.64,0 109.98,-32.23 109.98,-34.65 0,-2.42 -5.24,-19.34 -5.24,-19.34 l -224,-31.83 112.53,83.63 z"
         id="path10" />
    </clipPath>
    <clipPath
       id="clippath-3">
      <path
         class="cls-20"
         d="M 397,390 271.7,375.07 c -0.22,-0.03 -0.45,0 -0.66,0.09 l -39.8,16.75 c -1.2,0.51 -1,2.27 0.29,2.49 l 103.91,17.81 c 0.21,0.04 0.42,0.02 0.62,-0.04 l 61.19,-19.63 c 1.33,-0.43 1.15,-2.37 -0.24,-2.54 z"
         id="path13" />
    </clipPath>
    <clipPath
       id="clippath-4">
      <path
         class="cls-15"
         d="m 133.88,420.37 c -5.86,-24.49 -36.52,-108.44 -45.67,-140.7 -1.98,-6.98 3.64,-14.21 10.83,-13.22 37.75,5.17 128.71,12.01 155.28,10.41 4.21,-0.25 8.86,2.75 10.35,6.7 l 52.24,138.84 c 1.8,4.78 6.52,13.64 2.77,16.21 -4.18,2.86 -140.18,-1.86 -177.65,-10.27 -4.01,-0.9 -7.18,-3.97 -8.14,-7.97 z"
         id="path16" />
    </clipPath>
    <clipPath
       id="clippath-5">
      <path
         class="cls-8"
         d="m 405.62,311.74 c 0,0 -14.81,20.66 -27.06,27.61 -12.94,7.34 -19.97,10.73 -33.49,7.11 -15.24,-4.07 -31.13,10.6 -27.5,28.06 4.79,4.73 8.96,-0.29 9.69,-1.48 0,0 -3.38,9.58 4.79,9.58 3.61,-0.46 5.36,-4.36 5.36,-4.36 0,0 1.55,11.25 8.26,8.29 0.71,-0.31 1.34,-0.84 1.72,-1.52 2.17,-3.77 1.21,-9.81 3.07,-10.47 2.03,-0.71 39.02,4.41 68.09,-25.5 l 5.3,-14.58 -18.23,-22.76 z"
         id="path19" />
    </clipPath>
  </defs>
  <g
     id="g172"
     transform="translate(-69.252366,-49.446257)">
    <circle
       class="cls-9"
       cx="276.41"
       cy="231.94"
       r="6.1700001"
       id="circle24" />
    <g
       id="g60">
      <g
         class="cls-31"
         clip-path="url(#clippath)"
         id="g56">
        <g
           id="g40">
          <polygon
             class="cls-11"
             points="510.14,248.73 134.08,291.41 139.71,227.49 515.77,184.81 "
             id="polygon26" />
          <polygon
             class="cls-2"
             points="509.71,188.34 133.66,231.02 139.28,167.1 515.34,124.42 "
             id="polygon28" />
          <polygon
             class="cls-7"
             points="512.35,138.71 136.3,181.39 141.92,117.47 517.98,74.79 "
             id="polygon30" />
          <polygon
             class="cls-9"
             points="510.14,294.5 134.08,337.17 139.71,273.25 515.77,230.57 "
             id="polygon32" />
          <polygon
             class="cls-8"
             points="502.77,340.23 126.72,382.9 132.34,318.98 508.4,276.31 "
             id="polygon34" />
          <polygon
             class="cls-6"
             points="472.55,408.66 96.49,451.34 118.74,369.02 494.8,326.34 "
             id="polygon36" />
          <polygon
             class="cls-13"
             points="512.35,90.42 136.3,133.1 141.92,69.18 517.98,26.5 "
             id="polygon38" />
        </g>
        <path
           class="cls-10"
           d="m 308.71,44.91 c 0,0 99.94,66.41 87.63,231.89 -9.32,125.19 1.89,175.56 1.89,175.56 L 473.75,422.79 510.82,226.17 486.92,31.76 355.74,-31.2 Z"
           id="path42" />
        <g
           id="g54">
          <path
             class="cls-6"
             d="m 355.48,114.11 c -2.62,-4.01 -7.47,-6.19 -12.18,-5.97 -2.25,0.03 -4.41,0.43 -6.64,0.57 -2.51,0.19 -5.13,-0.08 -7.61,-0.87 -3.61,-1.07 -7.28,-3.05 -11.13,-2.56 -4.17,0.45 -7.68,4.35 -8.01,8.46 -0.47,5.1 3.77,9.01 5.02,13.67 0.46,1.56 0.62,3.2 0.65,4.9 0.07,2.57 -0.22,5.22 0.46,7.7 0.97,3.26 3.58,5.29 6.85,6.64 5.9,2.16 10.96,1.57 14.99,-3.47 2.84,-3.34 4.98,-7.3 7.97,-10.54 4.4,-5.32 14.89,-10.67 9.67,-18.48 l -0.04,-0.06 z"
             id="path44" />
          <ellipse
             class="cls-6"
             cx="334.85999"
             cy="97.260002"
             rx="7.46"
             ry="8.5600004"
             transform="rotate(-63.01,334.85176,97.256992)"
             id="ellipse46" />
          <ellipse
             class="cls-6"
             cx="305.04999"
             cy="131.99001"
             rx="7.46"
             ry="8.5600004"
             transform="rotate(-38.69,305.05737,131.99038)"
             id="ellipse48" />
          <ellipse
             class="cls-6"
             cx="299.48001"
             cy="109.5"
             rx="7.46"
             ry="8.5600004"
             transform="rotate(-44.38,299.46861,109.49646)"
             id="ellipse50" />
          <ellipse
             class="cls-6"
             cx="313.16"
             cy="93.709999"
             rx="7.46"
             ry="8.5600004"
             transform="rotate(-38.69,313.16982,93.709481)"
             id="ellipse52" />
        </g>
      </g>
      <path
         class="cls-19"
         d="m 427.4,394.96 c 0.92,-15.21 0.76,-35.69 1.04,-66.01 C 428.27,268.03 431.73,209 410.89,158.29 365.55,47.94 233.64,41.59 179.93,128.98 c -20.82,33.87 -19.38,76.75 -13.15,109.13 6.47,33.6 4.01,61.32 -0.97,96.05 -1.32,9.22 -1.66,16.49 -1.24,21.41 0.51,6.48 3.44,9.04 9.41,10.52 50.7,7.91 168.18,27.32 238.55,37.07 4.1,0.35 9.3,2.68 12.15,-0.13 1.52,-1.49 2.39,-5.14 2.72,-8.07 z"
         id="path58" />
    </g>
    <path
       class="cls-18"
       d="m 300.53,183.93 c 4.62,5.18 8.88,7.79 26.61,-9"
       id="path62" />
    <path
       class="cls-18"
       d="m 242.71,188.85 c -6.33,3.32 -8.88,7.79 -26.61,-9"
       id="path64" />
    <g
       id="g80">
      <g
         id="g74">
        <g
           class="cls-28"
           clip-path="url(#clippath-1)"
           id="g70">
          <polygon
             class="cls-8"
             points="166.76,237.67 185.9,270.7 307.74,289.54 315.19,249.91 289.67,199.46 "
             id="polygon66" />
          <polygon
             class="cls-4"
             points="146.46,321.42 242.68,339.06 309.31,289.54 193.68,268.2 "
             id="polygon68" />
        </g>
        <path
           class="cls-22"
           d="m 200.06,299.39 c 2.53,-2.32 31.05,-23.05 33.15,-34.21 3.07,-16.29 24.58,-36.29 30.38,-31.6 8.45,6.84 -6.17,13.07 -6.38,16.86 0,0 12.84,-2.95 16.63,5.9 3.79,8.84 4.21,20.85 2.11,18.95 0,0 -1.9,10.74 -8.63,8.21 0,0 -4.63,6.95 -13.27,13.9 -8.63,6.95 -23.37,33.06 -24.21,34.11 -0.84,1.05 -29.78,-32.11 -29.78,-32.11 z"
           id="path72" />
      </g>
      <path
         class="cls-5"
         d="m 272.81,275.48 c -0.14,-4.97 -4.49,-7.97 -9.11,-8.72 -2.33,-0.61 -1.71,-4.08 0.67,-3.86 6.79,0.1 13.19,4.48 14.6,11.37 1.21,4.58 -5.61,5.92 -6.16,1.21 z"
         id="path76" />
      <path
         class="cls-5"
         d="m 264.2,283.06 c 0.43,-1.09 0.25,-2.73 -0.61,-3.69 -0.34,-0.44 -0.95,-0.81 -1.48,-1.15 -0.9,-0.57 -1.16,-1.75 -0.6,-2.65 1.18,-1.71 3.32,-0.54 4.79,0.24 2.48,1.46 3.93,4.36 4.15,7.18 0.49,4.78 -6.62,4.86 -6.24,0.07 v 0 z"
         id="path78" />
    </g>
    <circle
       class="cls-3"
       cx="219.42"
       cy="207.47"
       r="20.790001"
       id="circle82" />
    <circle
       class="cls-3"
       cx="324.5"
       cy="202.17999"
       r="20.790001"
       id="circle84" />
    <g
       id="g90">
      <circle
         class="cls-5"
         cx="219.42"
         cy="205.89999"
         r="19.219999"
         id="circle86" />
      <circle
         class="cls-5"
         cx="324.5"
         cy="199.92"
         r="19.219999"
         id="circle88" />
    </g>
    <circle
       class="cls-9"
       cx="210.22"
       cy="204.17"
       r="5.8899999"
       id="circle92" />
    <circle
       class="cls-9"
       cx="317.04999"
       cy="198.28999"
       r="5.8899999"
       id="circle94" />
    <g
       id="g150">
      <g
         id="g136">
        <path
           class="cls-25"
           d="m 317.58,436.42 c 0,0 1.08,2.19 6.72,2.19 5.64,0 109.98,-32.23 109.98,-34.65 0,-2.42 -5.24,-19.34 -5.24,-19.34 l -224,-31.83 112.53,83.63 z"
           id="path96" />
        <g
           class="cls-26"
           clip-path="url(#clippath-2)"
           id="g132">
          <path
             class="cls-14"
             d="m 437.11,386.24 c -1.02,-0.77 -137.78,45.93 -137.78,45.93 0,0 9.27,22.56 32.63,21.35 23.37,-1.21 153.5,-30.62 105.15,-67.28 z"
             id="path98" />
          <g
             id="g130">
            <path
               class="cls-30"
               d="M 397,390 271.7,375.07 c -0.22,-0.03 -0.45,0 -0.66,0.09 l -39.8,16.75 c -1.2,0.51 -1,2.27 0.29,2.49 l 103.91,17.81 c 0.21,0.04 0.42,0.02 0.62,-0.04 l 61.19,-19.63 c 1.33,-0.43 1.15,-2.37 -0.24,-2.54 z"
               id="path100" />
            <g
               class="cls-32"
               clip-path="url(#clippath-3)"
               id="g126">
              <path
                 class="cls-21"
                 d="m 358.4,406.72 c -1.43,0 -141.95,-22.67 -141.95,-22.67"
                 id="path102" />
              <path
                 class="cls-21"
                 d="m 375.35,402.02 c -1.43,0 -150.74,-23.69 -150.74,-23.69"
                 id="path104" />
              <path
                 class="cls-21"
                 d="m 390.47,397.32 c -1.43,0 -156.73,-22.63 -156.73,-22.63"
                 id="path106" />
              <line
                 class="cls-21"
                 x1="315.10001"
                 y1="412.23001"
                 x2="400.67999"
                 y2="382.41"
                 id="line108" />
              <line
                 class="cls-21"
                 x1="301.75"
                 y1="410.60999"
                 x2="387.32999"
                 y2="380.79001"
                 id="line110" />
              <line
                 class="cls-21"
                 x1="288.39999"
                 y1="409"
                 x2="373.98001"
                 y2="379.17999"
                 id="line112" />
              <line
                 class="cls-21"
                 x1="275.04999"
                 y1="407.38"
                 x2="360.63"
                 y2="377.56"
                 id="line114" />
              <line
                 class="cls-21"
                 x1="261.70001"
                 y1="405.76001"
                 x2="347.28"
                 y2="375.95001"
                 id="line116" />
              <line
                 class="cls-21"
                 x1="248.35001"
                 y1="404.14999"
                 x2="333.92999"
                 y2="374.32999"
                 id="line118" />
              <line
                 class="cls-21"
                 x1="235"
                 y1="402.53"
                 x2="320.57999"
                 y2="372.70999"
                 id="line120" />
              <line
                 class="cls-21"
                 x1="221.64999"
                 y1="400.92001"
                 x2="307.23001"
                 y2="371.10001"
                 id="line122" />
              <line
                 class="cls-21"
                 x1="208.3"
                 y1="399.29999"
                 x2="293.88"
                 y2="369.48001"
                 id="line124" />
            </g>
            <path
               class="cls-23"
               d="M 397,390 271.7,375.07 c -0.22,-0.03 -0.45,0 -0.66,0.09 l -39.8,16.75 c -1.2,0.51 -1,2.27 0.29,2.49 l 103.91,17.81 c 0.21,0.04 0.42,0.02 0.62,-0.04 l 61.19,-19.63 c 1.33,-0.43 1.15,-2.37 -0.24,-2.54 z"
               id="path128" />
          </g>
        </g>
        <path
           class="cls-16"
           d="m 317.58,436.42 c 0,0 1.08,2.19 6.72,2.19 5.64,0 109.98,-32.23 109.98,-34.65 0,-2.42 -5.24,-19.34 -5.24,-19.34 l -224,-31.83 112.53,83.63 z"
           id="path134" />
      </g>
      <g
         id="g148">
        <path
           class="cls-25"
           d="m 133.88,420.37 c -5.86,-24.49 -36.52,-108.44 -45.67,-140.7 -1.98,-6.98 3.64,-14.21 10.83,-13.22 37.75,5.17 128.71,12.01 155.28,10.41 4.21,-0.25 8.86,2.75 10.35,6.7 l 52.24,138.84 c 1.8,4.78 6.52,13.64 2.77,16.21 -4.18,2.86 -140.18,-1.86 -177.65,-10.27 -4.01,-0.9 -7.18,-3.97 -8.14,-7.97 z"
           id="path138" />
        <g
           class="cls-29"
           clip-path="url(#clippath-4)"
           id="g144">
          <path
             class="cls-12"
             d="m 80.38,282.81 c 1.93,-0.64 14.79,-6.21 19.3,-6 4.5,0.21 127.35,12.65 164.98,6.75 37.63,-5.9 -153.53,-25.39 -153.53,-25.39 l -29.01,5.21 -1.74,19.42 z"
             id="path140" />
          <path
             class="cls-1"
             d="m 146.89,425.69 c 0,0 154.09,6.14 155.65,3.25 1.56,-2.89 -16.72,-67.12 -16.72,-67.12 0,0 25.43,68.63 25.34,72.67 -0.09,4.04 -106.31,0.22 -164.27,-8.81 z"
             id="path142" />
        </g>
        <path
           class="cls-16"
           d="m 133.88,420.37 c -5.86,-24.49 -36.52,-108.44 -45.67,-140.7 -1.98,-6.98 3.64,-14.21 10.83,-13.22 37.75,5.17 128.71,12.01 155.28,10.41 4.21,-0.25 8.86,2.75 10.35,6.7 l 52.24,138.84 c 1.8,4.78 6.52,13.64 2.77,16.21 -4.18,2.86 -140.18,-1.86 -177.65,-10.27 -4.01,-0.9 -7.18,-3.97 -8.14,-7.97 z"
           id="path146" />
      </g>
    </g>
    <g
       id="g158">
      <path
         class="cls-27"
         d="m 405.62,311.74 c 0,0 -14.81,20.66 -27.06,27.61 -12.94,7.34 -19.97,10.73 -33.49,7.11 -15.24,-4.07 -31.13,10.6 -27.5,28.06 4.79,4.73 8.96,-0.29 9.69,-1.48 0,0 -3.38,9.58 4.79,9.58 3.61,-0.46 5.36,-4.36 5.36,-4.36 0,0 1.55,11.25 8.26,8.29 0.71,-0.31 1.34,-0.84 1.72,-1.52 2.17,-3.77 1.21,-9.81 3.07,-10.47 2.03,-0.71 39.02,4.41 68.09,-25.5 l 5.3,-14.58 -18.23,-22.76 z"
         id="path152" />
      <g
         class="cls-33"
         clip-path="url(#clippath-5)"
         id="g156">
        <path
           class="cls-8"
           d="m 356.41,346.22 c 0,0 60.2,-26.37 93.24,1.34 33.04,27.72 25.89,-56.06 -26.19,-51.3 -52.08,4.76 -67.05,49.96 -67.05,49.96 z"
           id="path154" />
      </g>
    </g>
    <g
       id="g166">
      <path
         class="cls-17"
         d="m 401.31,311.74 c 0,0 -10.5,22.45 -22.75,29.4 -12.94,7.34 -19.97,10.73 -33.49,7.11 -15.24,-4.07 -31.13,10.6 -27.5,28.06 4.79,4.73 8.51,-0.34 9.24,-1.52 0,0 -2.93,9.63 5.24,9.62 3.61,-0.46 5.36,-4.36 5.36,-4.36 0,0 1.55,11.25 8.26,8.29 0.71,-0.31 1.34,-0.84 1.72,-1.52 2.17,-3.77 1.21,-9.81 3.07,-10.47 2.03,-0.71 47.79,-0.36 76.09,-36.31"
         id="path160" />
      <path
         class="cls-5"
         d="m 324.51,373.43 c 0.94,-6.49 5.48,-13.92 12.92,-13.01 0.78,0.04 1.37,0.71 1.33,1.48 -0.04,0.78 -0.7,1.33 -1.45,1.34 -1.24,0.13 -2.42,0.35 -3.37,0.98 -3.05,1.99 -4.04,6.15 -4.18,9.61 -0.11,3.82 -5.73,3.39 -5.25,-0.41 v 0 z"
         id="path162" />
      <path
         class="cls-5"
         d="m 335.21,380.69 c -0.04,-5.54 2.76,-12.39 9,-12.89 1.57,-0.2 2.1,2.04 0.62,2.56 -4.3,1.07 -5.01,6.13 -4.37,9.86 0.69,3.93 -5.22,4.47 -5.25,0.47 z"
         id="path164" />
    </g>
    <g
       class="cls-24"
       id="g170">
      <path
         class="cls-12"
         d="m 213.28,388 -20.99,-39.92 -4.72,39.33 -2.64,-0.06 c 0,0 -27.49,-49.42 -28.77,-51.25 -0.82,-1.24 -2.08,-2.15 -3.79,-2.73 l 0.05,-2.13 23.93,0.54 -0.05,2.13 c -1.62,-0.04 -2.74,0.21 -3.36,0.73 -0.62,0.52 -0.94,1.13 -0.95,1.82 -0.01,0.65 0.48,2.62 1.49,5.9 l 11.81,21.25 1.82,-20.94 -0.48,-1.39 c -0.95,-2.9 -1.8,-4.75 -2.54,-5.55 -0.74,-0.8 -1.9,-1.37 -3.49,-1.72 l 0.05,-2.13 24.29,0.55 -0.05,2.13 c -1.9,0.07 -3.1,0.34 -3.62,0.81 -0.52,0.47 -0.79,1.14 -0.81,2.02 -0.02,0.84 0.43,2.71 1.34,5.61 l 11.56,21.25 1.18,-19.29 c 0.94,-2.74 1.42,-4.6 1.44,-5.6 0.03,-1.49 -0.26,-2.59 -0.89,-3.3 -0.63,-0.7 -1.87,-1.15 -3.72,-1.35 l 0.05,-2.13 14.04,0.32 -0.05,2.13 c -1.56,0.2 -2.81,0.79 -3.74,1.78 -0.94,1 -2.19,3.85 -3.75,8.57 l -1.78,42.68 -2.89,-0.07 z"
         id="path168" />
    </g>
  </g>
  <path
     class="cls-5"
     d="m 193.67763,182.21374 c 0,0 7.89,-3.97 13.87,-1.39 0,0 -7.02,2.23 -9.22,5.6 -2.2,3.37 -4.65,-4.22 -4.65,-4.22 z"
     id="path174" />
  <path
     class="cls-5"
     d="m 208.16763,220.00374 c 0,0 7.15,5.17 7.61,11.67 0,0 -5.22,-5.21 -9.22,-5.61 -4,-0.4 1.6,-6.06 1.6,-6.06 z"
     id="path176" />
  <path
     class="cls-5"
     d="m 206.91763,226.92374 c 0,0 7.15,5.17 7.61,11.67 0,0 -5.22,-5.21 -9.22,-5.61 -4,-0.4 1.6,-6.06 1.6,-6.06 z"
     id="path178" />
</svg>
