<?xml version="1.0" encoding="UTF-8"?>
<svg id="Capa_1" data-name="Capa 1" xmlns="http://www.w3.org/2000/svg" xmlns:xlink="http://www.w3.org/1999/xlink" viewBox="0 0 500 500">
  <defs>
    <style>
      .cls-1 {
        stroke-width: 4.93px;
      }

      .cls-1, .cls-2, .cls-3, .cls-4, .cls-5, .cls-6, .cls-7, .cls-8, .cls-9, .cls-10, .cls-11, .cls-12, .cls-13 {
        stroke-miterlimit: 10;
      }

      .cls-1, .cls-2, .cls-3, .cls-4, .cls-5, .cls-7, .cls-8, .cls-9, .cls-10, .cls-11, .cls-12, .cls-13 {
        stroke: #000;
      }

      .cls-1, .cls-5, .cls-9, .cls-10, .cls-13 {
        fill: none;
      }

      .cls-14 {
        fill: #f47a6c;
      }

      .cls-14, .cls-15, .cls-16, .cls-17, .cls-18, .cls-19, .cls-20, .cls-21, .cls-22, .cls-23, .cls-24, .cls-25 {
        stroke-width: 0px;
      }

      .cls-2 {
        fill: #0f374c;
        stroke-width: 4.86px;
      }

      .cls-15 {
        fill: #99d3f6;
        opacity: .65;
      }

      .cls-16 {
        fill: #ffe97a;
      }

      .cls-3 {
        fill: #fc6;
        stroke-width: 3.59px;
      }

      .cls-26 {
        clip-path: url(#clippath-2);
      }

      .cls-17 {
        opacity: .18;
      }

      .cls-4, .cls-27, .cls-7 {
        fill: #ccacfd;
      }

      .cls-4, .cls-9 {
        stroke-width: 7.17px;
      }

      .cls-19 {
        fill: #1a1a1a;
      }

      .cls-20 {
        fill: #f4b56a;
      }

      .cls-5 {
        stroke-width: 8.93px;
      }

      .cls-21 {
        fill: #b8b8b8;
      }

      .cls-28 {
        clip-path: url(#clippath-4);
      }

      .cls-6 {
        stroke: #173b56;
      }

      .cls-6, .cls-29, .cls-11, .cls-12 {
        fill: #6d8aa5;
      }

      .cls-6, .cls-11, .cls-13 {
        stroke-width: 2.78px;
      }

      .cls-22 {
        fill: #fff;
      }

      .cls-23 {
        opacity: .11;
      }

      .cls-24 {
        fill: #ffedc0;
      }

      .cls-30 {
        clip-path: url(#clippath);
      }

      .cls-31 {
        clip-path: url(#clippath-3);
      }

      .cls-7, .cls-10 {
        stroke-linecap: round;
        stroke-width: 6.56px;
      }

      .cls-8 {
        fill: #e23333;
        stroke-width: 1.39px;
      }

      .cls-32 {
        fill: #315977;
      }

      .cls-12 {
        stroke-width: 4.69px;
      }

      .cls-25 {
        fill: #c69c6d;
      }
    </style>
    <clipPath id="clippath">
      <path class="cls-5" d="m113.64,441.36c4.8,5.14,12.18,7.72,19.7,5.78l13.66-3.53c8.86-2.29,80.93-19.81,93.53-22.79l14.63-3.46c9.27-2.19,80.13-14.82,92.65-17.57l23.56-5.17v-182.72c.49-4.57.75-9.21.75-13.92,0-71.59-58.03-129.62-129.62-129.62S112.89,126.4,112.89,197.98c0,4.7.27,9.34.75,13.92v229.46Z"/>
    </clipPath>
    <clipPath id="clippath-2">
      <path class="cls-11" d="m172.24,246.56h20.88c2.96,0,5.35,2.4,5.35,5.35v6.96h-31.59v-6.96c0-2.96,2.4-5.35,5.35-5.35Z"/>
    </clipPath>
    <clipPath id="clippath-3">
      <path class="cls-4" d="m109.43,270.03s-16.44,20.12-17.73,37.46c-1.28,17.34,9.02,22.68,25.72,21.72,16.7-.96,38.93.44,38.29-16.57-.64-17.02-45.64-25.26-47.57-23.98l1.28-18.62Z"/>
    </clipPath>
    <clipPath id="clippath-4">
      <path class="cls-7" d="m359.86,278.62s-16.25,15.92-27.46,18.53c-11.21,2.61-22.94,11.21-17.73,22.16,5.21,10.95,37.54,13.37,58.03.72,20.79-12.83,16-33.83.62-51.03"/>
    </clipPath>
  </defs>
  <g>
    <g>
      <g>
        <g class="cls-30">
          <g>
            <polygon class="cls-24" points="449.14 258.73 73.08 301.41 78.71 237.49 454.77 194.81 449.14 258.73"/>
            <polygon class="cls-16" points="448.71 198.34 72.66 241.02 78.28 177.1 454.34 134.42 448.71 198.34"/>
            <polygon class="cls-20" points="451.35 148.71 75.3 191.39 80.92 127.47 456.98 84.79 451.35 148.71"/>
            <polygon class="cls-22" points="449.14 304.5 73.08 347.17 78.71 283.25 454.77 240.57 449.14 304.5"/>
            <polygon class="cls-21" points="441.77 350.23 65.72 392.9 71.34 328.98 447.4 286.31 441.77 350.23"/>
            <polygon class="cls-19" points="411.55 418.66 35.49 461.34 57.74 379.02 433.8 336.34 411.55 418.66"/>
            <polygon class="cls-25" points="451.35 100.42 75.3 143.1 80.92 79.18 456.98 36.5 451.35 100.42"/>
          </g>
          <path class="cls-23" d="m179.91,58.73s-47.12,81.61-49.39,128.44c-2.27,46.83,0,301.52,0,301.52h-57.99l10.23-386.59,97.15-43.38Z"/>
          <g>
            <path class="cls-19" d="m321.39,120.94c-2.62-4.01-7.47-6.19-12.18-5.97-2.25.03-4.41.43-6.64.57-2.51.19-5.13-.08-7.61-.87-3.61-1.07-7.28-3.05-11.13-2.56-4.17.45-7.68,4.35-8.01,8.46-.47,5.1,3.77,9.01,5.02,13.67.46,1.56.62,3.2.65,4.9.07,2.57-.22,5.22.46,7.7.97,3.26,3.58,5.29,6.85,6.64,5.9,2.16,10.96,1.57,14.99-3.47,2.84-3.34,4.98-7.3,7.97-10.54,4.4-5.32,14.89-10.67,9.67-18.48l-.04-.06Z"/>
            <ellipse class="cls-19" cx="300.77" cy="104.08" rx="7.46" ry="8.56" transform="translate(71.51 324.85) rotate(-63.01)"/>
            <ellipse class="cls-19" cx="270.96" cy="138.81" rx="7.46" ry="8.56" transform="translate(-27.31 199.85) rotate(-38.69)"/>
            <ellipse class="cls-19" cx="265.39" cy="116.33" rx="7.46" ry="8.56" transform="translate(-5.65 218.8) rotate(-44.38)"/>
            <ellipse class="cls-19" cx="279.07" cy="100.54" rx="7.46" ry="8.56" transform="translate(-1.6 196.52) rotate(-38.69)"/>
          </g>
        </g>
        <path class="cls-5" d="m113.64,441.36c4.8,5.14,12.18,7.72,19.7,5.78l13.66-3.53c8.86-2.29,80.93-19.81,93.53-22.79l14.63-3.46c9.27-2.19,80.13-14.82,92.65-17.57l23.56-5.17v-182.72c.49-4.57.75-9.21.75-13.92,0-71.59-58.03-129.62-129.62-129.62S112.89,126.4,112.89,197.98c0,4.7.27,9.34.75,13.92v229.46Z"/>
      </g>
      <g>
        <circle class="cls-18" cx="179.91" cy="184.38" r="20.93"/>
        <circle class="cls-18" cx="318.96" cy="185.45" r="20.93"/>
        <circle class="cls-17" cx="179.91" cy="188.36" r="20.93"/>
        <circle class="cls-17" cx="318.96" cy="189.42" r="20.93"/>
        <ellipse class="cls-22" cx="322.69" cy="175.59" rx="5.48" ry="5.9"/>
        <ellipse class="cls-22" cx="315.39" cy="187.38" rx="3.57" ry="3.84"/>
        <ellipse class="cls-22" cx="182.68" cy="175.59" rx="5.48" ry="5.9"/>
        <ellipse class="cls-22" cx="178.09" cy="188.36" rx="3.5" ry="3.76"/>
      </g>
    </g>
    <g>
      <g>
        <path class="cls-32" d="m215.14,257.88l4.26-13.63c1.51-4.83,7.02-8.23,13.34-8.23h38.04c6.33,0,11.84,3.4,13.34,8.23l4.26,13.63h53.7c8.68,0,15.72,5.54,15.72,12.37v91.46c0,6.83-7.04,12.37-15.72,12.37h-184.17c-8.68,0-15.72-5.54-15.72-12.37v-91.46c0-6.83,7.04-12.37,15.72-12.37h57.22Z"/>
        <path class="cls-1" d="m215.14,257.88l4.26-13.63c1.51-4.83,7.02-8.23,13.34-8.23h38.04c6.33,0,11.84,3.4,13.34,8.23l4.26,13.63h53.7c8.68,0,15.72,5.54,15.72,12.37v91.46c0,6.83-7.04,12.37-15.72,12.37h-184.17c-8.68,0-15.72-5.54-15.72-12.37v-91.46c0-6.83,7.04-12.37,15.72-12.37h57.22Z"/>
      </g>
      <rect class="cls-6" x="157.53" y="273.1" width="186.14" height="89.21" rx="7.51" ry="7.51"/>
      <ellipse class="cls-12" cx="250" cy="325.75" rx="55.99" ry="60.04" transform="translate(-114.73 514.39) rotate(-79.84)"/>
      <ellipse class="cls-2" cx="250" cy="325.75" rx="44.14" ry="47.34" transform="translate(-114.73 514.39) rotate(-79.84)"/>
      <path class="cls-15" d="m244.8,291.94c13.4-1.83,30.38,5.24,28.24,14.99s-17.04,1.1-26.01,3.64c-12.89,3.65-16.93,10.03-22.53,3-6.59-8.29,6.9-19.8,20.3-21.63Z"/>
      <path class="cls-8" d="m315.98,249.44h13.42c2.11,0,3.83,1.72,3.83,3.83v5.6h-21.08v-5.6c0-2.11,1.72-3.83,3.83-3.83Z"/>
      <g>
        <path class="cls-29" d="m172.24,246.56h20.88c2.96,0,5.35,2.4,5.35,5.35v6.96h-31.59v-6.96c0-2.96,2.4-5.35,5.35-5.35Z"/>
        <g class="cls-26">
          <line class="cls-13" x1="174.34" y1="239.64" x2="174.34" y2="265.16"/>
          <line class="cls-13" x1="182.68" y1="239.96" x2="182.68" y2="265.48"/>
          <line class="cls-13" x1="191.02" y1="240.27" x2="191.02" y2="265.79"/>
        </g>
        <path class="cls-13" d="m172.24,246.56h20.88c2.96,0,5.35,2.4,5.35,5.35v6.96h-31.59v-6.96c0-2.96,2.4-5.35,5.35-5.35Z"/>
      </g>
    </g>
    <g>
      <path class="cls-27" d="m109.43,270.03s-16.44,20.12-17.73,37.46c-1.28,17.34,9.02,22.68,25.72,21.72,16.7-.96,38.93.44,38.29-16.57-.64-17.02-45.64-25.26-47.57-23.98l1.28-18.62Z"/>
      <g class="cls-31">
        <path class="cls-22" d="m57.72,311.94c1.33.07,87.32-25.03,87.32-25.03l23.24,69.32-98.17,19.9s-47.76-17.69-46.87-19.9c.88-2.21,34.49-44.29,34.49-44.29Z"/>
        <polygon class="cls-24" points="65.68 262.93 60.38 311.94 153.75 285.14 81.64 254.52 65.68 262.93"/>
      </g>
      <path class="cls-9" d="m109.43,270.03s-16.44,20.12-17.73,37.46c-1.28,17.34,9.02,22.68,25.72,21.72,16.7-.96,38.93.44,38.29-16.57-.64-17.02-45.64-25.26-47.57-23.98l1.28-18.62Z"/>
    </g>
    <g>
      <path class="cls-27" d="m359.86,278.62s-16.25,15.92-27.46,18.53c-11.21,2.61-22.94,11.21-17.73,22.16,5.21,10.95,37.54,13.37,58.03.72,20.79-12.83,16-33.83.62-51.03"/>
      <g class="cls-28">
        <path class="cls-21" d="m396.22,287.01c-1.81.9-106.64,29.42-106.64,29.42l71.84,39.91,39.03-8.78,4.35-24.85-8.59-35.7Z"/>
        <polygon class="cls-22" points="397.04 287.91 278.2 323.61 286.79 285.71 398.2 265.08 397.04 287.91"/>
      </g>
      <path class="cls-10" d="m359.86,278.62s-16.25,15.92-27.46,18.53c-11.21,2.61-22.94,11.21-17.73,22.16,5.21,10.95,37.54,13.37,58.03.72,20.79-12.83,16-33.83.62-51.03"/>
    </g>
    <ellipse class="cls-14" cx="318.96" cy="207.76" rx="18.2" ry="9.43"/>
    <ellipse class="cls-14" cx="181.36" cy="205.31" rx="18.2" ry="9.43"/>
    <path class="cls-3" d="m402.57,99.23l1.45,7.5c1.33,6.88,5.54,12.87,11.57,16.44l8.96,5.31-10.09,2.61c-6.79,1.76-12.5,6.33-15.69,12.57l-3.48,6.8-1.45-7.5c-1.33-6.88-5.54-12.87-11.57-16.44l-8.96-5.31,10.09-2.61c6.79-1.76,12.5-6.33,15.69-12.57l3.48-6.8Z"/>
    <path class="cls-3" d="m439.19,103.74l.68,3.52c.63,3.23,2.6,6.04,5.43,7.72l4.21,2.49-4.74,1.23c-3.19.82-5.87,2.97-7.37,5.9l-1.63,3.19-.68-3.52c-.63-3.23-2.6-6.04-5.43-7.72l-4.21-2.49,4.74-1.23c3.19-.82,5.87-2.97,7.37-5.9l1.63-3.19Z"/>
  </g>
  <path class="cls-18" d="m152.99,306.16c-4.12,2.65-8.4,4.85-13.27,5.64-1.47.15-6.6.74-6.07-1.86.19-.69.87-1.1,1.55-.97,5.51.38,10.64-3.45,14.73-6.76,2.71-2.23,5.91,1.89,3.06,3.96h0Z"/>
  <path class="cls-18" d="m155.45,318.03c-3.98.74-7.86.98-11.87.77-1.3-.07-2.6-.23-3.89-.43-.36-.06-.61-.4-.56-.76.05-.31.3-.54.6-.56,2.48-.19,4.92-.65,7.32-1.32,2.29-.63,4.72-1.47,6.84-2.45,1.26-.59,2.76-.05,3.35,1.21.71,1.45-.21,3.26-1.8,3.55h0Z"/>
  <path class="cls-18" d="m137.75,300.75c-2.29.43-5.23.91-7.05,2.37-.42.53-1.1.81-1.65.28-1.55-2.39,5.32-6.41,7.08-7.38,3.62-1.79,5.58,3.92,1.63,4.73h0Z"/>
  <path class="cls-18" d="m317.77,304.98c5,2.05,10.97,4.46,16.39,2.79.39-.17.85.01,1,.41.13.34,0,.71-.29.9-2.81,1.73-6.19,1.94-9.37,1.88-3.21-.1-6.23-.53-9.39-1.27-1.35-.33-2.18-1.69-1.85-3.04.35-1.53,2.1-2.36,3.51-1.68h0Z"/>
  <path class="cls-18" d="m316.93,315.34c6.69,2.27,14.32,4.07,21.33,2.3.95-.3,1.5,1.12.57,1.52-7.38,3.06-15.61,2.36-23.32.97-3.47-.88-1.99-5.94,1.41-4.8h0Z"/>
</svg>