<?xml version="1.0" encoding="UTF-8"?>
<svg id="Capa_1" data-name="Capa 1" xmlns="http://www.w3.org/2000/svg" xmlns:xlink="http://www.w3.org/1999/xlink" viewBox="0 0 500 500">
  <defs>
    <style>
      .cls-1 {
        stroke-width: 18.85px;
      }

      .cls-1, .cls-2, .cls-3, .cls-4 {
        fill: none;
        stroke: #000;
        stroke-miterlimit: 10;
      }

      .cls-1, .cls-3, .cls-4 {
        stroke-linecap: round;
      }

      .cls-2, .cls-4 {
        stroke-width: 8.96px;
      }

      .cls-5 {
        fill: #ffe97a;
      }

      .cls-5, .cls-6, .cls-7, .cls-8, .cls-9, .cls-10, .cls-11, .cls-12, .cls-13, .cls-14 {
        stroke-width: 0px;
      }

      .cls-3 {
        stroke-width: 8.64px;
      }

      .cls-15 {
        clip-path: url(#clippath-2);
      }

      .cls-6 {
        opacity: .18;
      }

      .cls-8 {
        fill: #1a1a1a;
      }

      .cls-9 {
        fill: #f4b56a;
      }

      .cls-10 {
        fill: #b8b8b8;
      }

      .cls-16 {
        clip-path: url(#clippath-1);
      }

      .cls-11 {
        fill: #fff;
      }

      .cls-12 {
        opacity: .11;
      }

      .cls-13 {
        fill: #ffedc0;
      }

      .cls-17 {
        clip-path: url(#clippath);
      }

      .cls-14 {
        fill: #c69c6d;
      }
    </style>
    <clipPath id="clippath">
      <path class="cls-2" d="m117.58,441.59c4.62,4.95,11.74,7.44,18.97,5.57l13.16-3.4c8.53-2.2,14.5-9.9,14.5-18.72v-24.25c0-9.42,6.78-17.46,16.06-19.05l13.16-2.26c11.81-2.02,22.6,7.07,22.6,19.05v4.46c0,12.47,11.64,21.68,23.78,18.81l14.09-3.33c8.93-2.11,15.15-10.21,14.87-19.39l-.41-13.85c-.29-9.73,6.7-18.16,16.32-19.67l12.66-1.99c11.73-1.84,22.33,7.22,22.33,19.1s11.42,21.53,23.48,18.88l22.7-4.98v-176.01c.47-4.41.73-8.88.73-13.41,0-68.96-55.9-124.86-124.86-124.86s-124.86,55.9-124.86,124.86c0,4.53.26,9,.73,13.41v221.04Z"/>
    </clipPath>
    <clipPath id="clippath-1">
      <path class="cls-4" d="m142.92,285.73c-10.32-.34-21.98-3.06-30.99-11.59-16.95-16.04-18.54-33.25-37.12-33.58-1.48-.03-13.82,2.05-15.63,2.59-34.28,10.12-.45,15.64,9.66,21.26,10.12,5.62,8.51,12.82,20.87,30.54,8.05,11.53,25.59,21,42.75,23.11"/>
    </clipPath>
    <clipPath id="clippath-2">
      <path class="cls-4" d="m343.54,275.73c10.32-.34,21.98-3.06,30.99-11.59,16.95-16.04,16.74-33.25,35.32-33.58,1.48-.03,3.06.05,4.77.25s3.68.53,5.74.99c1.61.36,3.32.81,5.12,1.34,34.28,10.12.45,15.64-9.66,21.26-10.12,5.62-6.71,12.82-19.07,30.54-8.05,11.53-25.59,21-42.75,23.11"/>
    </clipPath>
  </defs>
  <g>
    <g>
      <g class="cls-17">
        <g>
          <polygon class="cls-13" points="440.14 268.73 64.08 311.41 69.71 247.49 445.77 204.81 440.14 268.73"/>
          <polygon class="cls-5" points="439.71 208.34 63.66 251.02 69.28 187.1 445.34 144.42 439.71 208.34"/>
          <polygon class="cls-9" points="442.35 158.71 66.3 201.39 71.92 137.47 447.98 94.79 442.35 158.71"/>
          <polygon class="cls-11" points="440.14 314.5 64.08 357.17 69.71 293.25 445.77 250.57 440.14 314.5"/>
          <polygon class="cls-10" points="432.77 360.23 56.72 402.9 62.34 338.98 438.4 296.31 432.77 360.23"/>
          <polygon class="cls-8" points="402.55 428.66 26.49 471.34 48.74 389.02 424.8 346.34 402.55 428.66"/>
          <polygon class="cls-14" points="442.35 110.42 66.3 153.1 71.92 89.18 447.98 46.5 442.35 110.42"/>
        </g>
        <path class="cls-12" d="m193.89,73.16s-45.39,78.61-47.58,123.73c-2.19,45.11,0,290.46,0,290.46h-55.86l9.86-372.4,93.58-41.79Z"/>
        <g>
          <path class="cls-8" d="m308.39,121.94c-2.62-4.01-7.47-6.19-12.18-5.97-2.25.03-4.41.43-6.64.57-2.51.19-5.13-.08-7.61-.87-3.61-1.07-7.28-3.05-11.13-2.56-4.17.45-7.68,4.35-8.01,8.46-.47,5.1,3.77,9.01,5.02,13.67.46,1.56.62,3.2.65,4.9.07,2.57-.22,5.22.46,7.7.97,3.26,3.58,5.29,6.85,6.64,5.9,2.16,10.96,1.57,14.99-3.47,2.84-3.34,4.98-7.3,7.97-10.54,4.4-5.32,14.89-10.67,9.67-18.48l-.04-.06Z"/>
          <ellipse class="cls-8" cx="287.77" cy="105.08" rx="7.46" ry="8.56" transform="translate(63.52 313.81) rotate(-63.01)"/>
          <ellipse class="cls-8" cx="257.96" cy="139.81" rx="7.46" ry="8.56" transform="translate(-30.79 191.94) rotate(-38.69)"/>
          <ellipse class="cls-8" cx="252.39" cy="117.33" rx="7.46" ry="8.56" transform="translate(-10.06 209.99) rotate(-44.38)"/>
          <ellipse class="cls-8" cx="266.07" cy="101.54" rx="7.46" ry="8.56" transform="translate(-5.08 188.61) rotate(-38.69)"/>
        </g>
      </g>
      <path class="cls-2" d="m117.58,441.59c4.62,4.95,11.74,7.44,18.97,5.57l13.16-3.4c8.53-2.2,14.5-9.9,14.5-18.72v-24.25c0-9.42,6.78-17.46,16.06-19.05l13.16-2.26c11.81-2.02,22.6,7.07,22.6,19.05v4.46c0,12.47,11.64,21.68,23.78,18.81l14.09-3.33c8.93-2.11,15.15-10.21,14.87-19.39l-.41-13.85c-.29-9.73,6.7-18.16,16.32-19.67l12.66-1.99c11.73-1.84,22.33,7.22,22.33,19.1s11.42,21.53,23.48,18.88l22.7-4.98v-176.01c.47-4.41.73-8.88.73-13.41,0-68.96-55.9-124.86-124.86-124.86s-124.86,55.9-124.86,124.86c0,4.53.26,9,.73,13.41v221.04Z"/>
    </g>
    <g>
      <circle class="cls-7" cx="195.62" cy="194.05" r="20.16"/>
      <circle class="cls-7" cx="329.56" cy="195.07" r="20.16"/>
      <circle class="cls-6" cx="195.62" cy="197.88" r="20.16"/>
      <circle class="cls-6" cx="329.56" cy="198.9" r="20.16"/>
      <ellipse class="cls-11" cx="338.27" cy="192.2" rx="5.28" ry="5.68"/>
      <ellipse class="cls-11" cx="206.07" cy="192.2" rx="5.28" ry="5.68"/>
    </g>
  </g>
  <path class="cls-1" d="m401.09,124.05c-4.08-7.79-3.02-18.25,1.62-26.4,2.71-5.39,6.39-10.39,7.77-16.23,4.76-19.1-18.19-38.62-37.96-24.23-5.77,4.08-8.89,16.83-1.63,23.34"/>
  <circle class="cls-7" cx="409.69" cy="145.49" r="8.68"/>
  <path class="cls-3" d="m173.43,152.28s19.46-20.75,42.1-1.84"/>
  <path class="cls-3" d="m307.37,148.5s19.46-20.75,42.1-1.84"/>
  <g>
    <g class="cls-16">
      <polygon class="cls-13" points="11.72 286.49 76.63 286.13 137.29 266.66 71.62 221.12 32.79 230.31 22.88 258.82 11.72 286.49"/>
      <path class="cls-11" d="m85.17,339.58l44.4-10.11,18.93-50.17-32.21-6.69s-47.85-19.02-22.74,39.23c1.4,3.26-15.59,20.21-15.59,20.21l7.21,7.54Z"/>
    </g>
    <path class="cls-4" d="m142.92,285.73c-10.32-.34-21.98-3.06-30.99-11.59-16.95-16.04-18.54-33.25-37.12-33.58-1.48-.03-13.82,2.05-15.63,2.59-34.28,10.12-.45,15.64,9.66,21.26,10.12,5.62,8.51,12.82,20.87,30.54,8.05,11.53,25.59,21,42.75,23.11"/>
  </g>
  <g>
    <g class="cls-15">
      <polygon class="cls-13" points="474.74 276.49 409.84 276.13 349.17 256.66 413.05 211.12 451.87 220.31 461.79 248.82 474.74 276.49"/>
      <path class="cls-11" d="m401.3,329.58l-44.4-10.11-18.93-50.17,32.21-6.69s47.85-19.02,22.74,39.23c-1.4,3.26,15.59,20.21,15.59,20.21l-7.21,7.54Z"/>
    </g>
    <path class="cls-4" d="m343.54,275.73c10.32-.34,21.98-3.06,30.99-11.59,16.95-16.04,16.74-33.25,35.32-33.58,1.48-.03,3.06.05,4.77.25s3.68.53,5.74.99c1.61.36,3.32.81,5.12,1.34,34.28,10.12.45,15.64-9.66,21.26-10.12,5.62-6.71,12.82-19.07,30.54-8.05,11.53-25.59,21-42.75,23.11"/>
  </g>
  <path class="cls-7" d="m42.03,255.37s-7.99-4.5-9.23-11.15c0,0,5.99,4.76,10.17,4.7s-.94,6.44-.94,6.44Z"/>
  <path class="cls-7" d="m51.14,247.06s-7.99-4.5-9.23-11.15c0,0,5.99,4.76,10.17,4.7s-.94,6.44-.94,6.44Z"/>
  <path class="cls-7" d="m64.82,243.32s-7.38-5.44-7.79-12.19c0,0,5.37,5.46,9.52,5.91s-1.72,6.28-1.72,6.28Z"/>
  <path class="cls-7" d="m82.81,244.22s-7.99-4.5-9.23-11.15c0,0,5.99,4.76,10.17,4.7s-.94,6.44-.94,6.44Z"/>
  <path class="cls-7" d="m442.17,246.37s7.99-4.5,9.23-11.15c0,0-5.99,4.76-10.17,4.7s.94,6.44.94,6.44Z"/>
  <path class="cls-7" d="m433.06,238.06s7.99-4.5,9.23-11.15c0,0-5.99,4.76-10.17,4.7s.94,6.44.94,6.44Z"/>
  <path class="cls-7" d="m419.38,234.32s7.38-5.44,7.79-12.19c0,0-5.37,5.46-9.52,5.91s1.72,6.28,1.72,6.28Z"/>
  <path class="cls-7" d="m401.39,235.22s7.99-4.5,9.23-11.15c0,0-5.99,4.76-10.17,4.7s.94,6.44.94,6.44Z"/>
</svg>