<?xml version="1.0" encoding="UTF-8"?>
<svg id="Capa_1" data-name="Capa 1" xmlns="http://www.w3.org/2000/svg" xmlns:xlink="http://www.w3.org/1999/xlink" viewBox="0 0 500 500">
  <defs>
    <style>
      .cls-1 {
        stroke-width: 18.85px;
      }

      .cls-1, .cls-2, .cls-3, .cls-4, .cls-5 {
        fill: none;
        stroke-miterlimit: 10;
      }

      .cls-1, .cls-3, .cls-4, .cls-5 {
        stroke: #000;
      }

      .cls-1, .cls-4, .cls-5 {
        stroke-linecap: round;
      }

      .cls-2 {
        stroke: #ccacfd;
        stroke-width: 29px;
      }

      .cls-3, .cls-5 {
        stroke-width: 8.96px;
      }

      .cls-4 {
        stroke-width: 8.64px;
      }

      .cls-6 {
        opacity: .18;
      }

      .cls-6, .cls-7, .cls-8, .cls-9, .cls-10 {
        stroke-width: 0px;
      }

      .cls-11 {
        fill: #ccacfd;
      }

      .cls-8 {
        fill: #fff;
      }

      .cls-9 {
        opacity: .11;
      }

      .cls-12 {
        clip-path: url(#clippath);
      }

      .cls-10 {
        fill: #ffe974;
      }
    </style>
    <clipPath id="clippath">
      <path class="cls-3" d="m117.58,441.59c4.62,4.95,11.74,7.44,18.97,5.57l13.16-3.4c8.53-2.2,14.5-9.9,14.5-18.72v-24.25c0-9.42,6.78-17.46,16.06-19.05l13.16-2.26c11.81-2.02,22.6,7.07,22.6,19.05v4.46c0,12.47,11.64,21.68,23.78,18.81l14.09-3.33c8.93-2.11,15.15-10.21,14.87-19.39l-.41-13.85c-.29-9.73,6.7-18.16,16.32-19.67l12.66-1.99c11.73-1.84,22.33,7.22,22.33,19.1s11.42,21.53,23.48,18.88l22.7-4.98v-176.01c.47-4.41.73-8.88.73-13.41,0-68.96-55.9-124.86-124.86-124.86s-124.86,55.9-124.86,124.86c0,4.53.26,9,.73,13.41v221.04Z"/>
    </clipPath>
  </defs>
  <g>
    <g>
      <g class="cls-12">
        <g>
          <rect class="cls-10" x="63.69" y="70.97" width="376.05" height="416.65"/>
          <circle class="cls-2" cx="256.15" cy="241.44" r="65.02"/>
        </g>
        <path class="cls-9" d="m193.89,73.16s-45.39,78.61-47.58,123.73c-2.19,45.11,0,290.46,0,290.46h-55.86l9.86-372.4,93.58-41.79Z"/>
      </g>
      <path class="cls-3" d="m117.58,441.59c4.62,4.95,11.74,7.44,18.97,5.57l13.16-3.4c8.53-2.2,14.5-9.9,14.5-18.72v-24.25c0-9.42,6.78-17.46,16.06-19.05l13.16-2.26c11.81-2.02,22.6,7.07,22.6,19.05v4.46c0,12.47,11.64,21.68,23.78,18.81l14.09-3.33c8.93-2.11,15.15-10.21,14.87-19.39l-.41-13.85c-.29-9.73,6.7-18.16,16.32-19.67l12.66-1.99c11.73-1.84,22.33,7.22,22.33,19.1s11.42,21.53,23.48,18.88l22.7-4.98v-176.01c.47-4.41.73-8.88.73-13.41,0-68.96-55.9-124.86-124.86-124.86s-124.86,55.9-124.86,124.86c0,4.53.26,9,.73,13.41v221.04Z"/>
    </g>
    <g>
      <circle class="cls-7" cx="195.62" cy="194.05" r="20.16"/>
      <circle class="cls-7" cx="329.56" cy="195.07" r="20.16"/>
      <circle class="cls-6" cx="195.62" cy="197.88" r="20.16"/>
      <circle class="cls-6" cx="329.56" cy="198.9" r="20.16"/>
      <ellipse class="cls-8" cx="338.27" cy="192.2" rx="5.28" ry="5.68"/>
      <ellipse class="cls-8" cx="206.07" cy="192.2" rx="5.28" ry="5.68"/>
    </g>
  </g>
  <path class="cls-1" d="m401.09,124.05c-4.08-7.79-3.02-18.25,1.62-26.4,2.71-5.39,6.39-10.39,7.77-16.23,4.76-19.1-18.19-38.62-37.96-24.23-5.77,4.08-8.89,16.83-1.63,23.34"/>
  <circle class="cls-7" cx="409.69" cy="145.49" r="8.68"/>
  <path class="cls-4" d="m173.43,152.28s19.46-20.75,42.1-1.84"/>
  <path class="cls-4" d="m307.37,148.5s19.46-20.75,42.1-1.84"/>
  <g>
    <path class="cls-11" d="m142.92,285.73c-10.32-.34-21.98-3.06-30.99-11.59-16.95-16.04-18.54-33.25-37.12-33.58-1.48-.03-13.82,2.05-15.63,2.59-34.28,10.12-.45,15.64,9.66,21.26,10.12,5.62,8.51,12.82,20.87,30.54,8.05,11.53,25.59,21,42.75,23.11"/>
    <path class="cls-5" d="m142.92,285.73c-10.32-.34-21.98-3.06-30.99-11.59-16.95-16.04-18.54-33.25-37.12-33.58-1.48-.03-13.82,2.05-15.63,2.59-34.28,10.12-.45,15.64,9.66,21.26,10.12,5.62,8.51,12.82,20.87,30.54,8.05,11.53,25.59,21,42.75,23.11"/>
  </g>
  <g>
    <path class="cls-11" d="m343.54,285.73c10.32-.34,21.98-3.06,30.99-11.59,16.95-16.04,16.74-33.25,35.32-33.58,1.48-.03,3.06.05,4.77.25s3.68.53,5.74.99c1.61.36,3.32.81,5.12,1.34,34.28,10.12.45,15.64-9.66,21.26-10.12,5.62-6.71,12.82-19.07,30.54-8.05,11.53-25.59,21-42.75,23.11"/>
    <path class="cls-5" d="m343.54,285.73c10.32-.34,21.98-3.06,30.99-11.59,16.95-16.04,16.74-33.25,35.32-33.58,1.48-.03,3.06.05,4.77.25s3.68.53,5.74.99c1.61.36,3.32.81,5.12,1.34,34.28,10.12.45,15.64-9.66,21.26-10.12,5.62-6.71,12.82-19.07,30.54-8.05,11.53-25.59,21-42.75,23.11"/>
  </g>
</svg>