<?xml version="1.0" encoding="UTF-8"?>
<svg id="Capa_1" data-name="Capa 1" xmlns="http://www.w3.org/2000/svg" xmlns:xlink="http://www.w3.org/1999/xlink" viewBox="0 0 500 500">
  <defs>
    <style>
      .cls-1 {
        fill: #f47a6c;
      }

      .cls-1, .cls-2, .cls-3, .cls-4, .cls-5, .cls-6, .cls-7, .cls-8, .cls-9, .cls-10 {
        stroke-width: 0px;
      }

      .cls-11 {
        stroke-width: 18.85px;
      }

      .cls-11, .cls-12, .cls-13, .cls-14 {
        fill: none;
        stroke: #000;
        stroke-miterlimit: 10;
      }

      .cls-11, .cls-13, .cls-14 {
        stroke-linecap: round;
      }

      .cls-12, .cls-14 {
        stroke-width: 8.96px;
      }

      .cls-2 {
        fill: #ccacfd;
      }

      .cls-13 {
        stroke-width: 8.64px;
      }

      .cls-15 {
        clip-path: url(#clippath-2);
      }

      .cls-3 {
        opacity: .18;
      }

      .cls-4 {
        fill: #99d3f6;
      }

      .cls-16 {
        clip-path: url(#clippath-1);
      }

      .cls-6 {
        fill: #fff;
      }

      .cls-7 {
        opacity: .11;
      }

      .cls-8 {
        fill: #bcf987;
      }

      .cls-17 {
        clip-path: url(#clippath);
      }

      .cls-9 {
        fill: #ffe974;
      }

      .cls-10 {
        fill: #f4a16a;
      }
    </style>
    <clipPath id="clippath">
      <path class="cls-12" d="m117.58,441.59c4.62,4.95,11.74,7.44,18.97,5.57l13.16-3.4c8.53-2.2,14.5-9.9,14.5-18.72v-24.25c0-9.42,6.78-17.46,16.06-19.05l13.16-2.26c11.81-2.02,22.6,7.07,22.6,19.05v4.46c0,12.47,11.64,21.68,23.78,18.81l14.09-3.33c8.93-2.11,15.15-10.21,14.87-19.39l-.41-13.85c-.29-9.73,6.7-18.16,16.32-19.67l12.66-1.99c11.73-1.84,22.33,7.22,22.33,19.1s11.42,21.53,23.48,18.88l22.7-4.98v-176.01c.47-4.41.73-8.88.73-13.41,0-68.96-55.9-124.86-124.86-124.86s-124.86,55.9-124.86,124.86c0,4.53.26,9,.73,13.41v221.04Z"/>
    </clipPath>
    <clipPath id="clippath-1">
      <path class="cls-14" d="m142.92,285.73c-10.32-.34-21.98-3.06-30.99-11.59-16.95-16.04-18.54-33.25-37.12-33.58-1.48-.03-13.82,2.05-15.63,2.59-34.28,10.12-.45,15.64,9.66,21.26,10.12,5.62,8.51,12.82,20.87,30.54,8.05,11.53,25.59,21,42.75,23.11"/>
    </clipPath>
    <clipPath id="clippath-2">
      <path class="cls-14" d="m343.54,285.73c10.32-.34,21.98-3.06,30.99-11.59,16.95-16.04,16.74-33.25,35.32-33.58,1.48-.03,3.06.05,4.77.25s3.68.53,5.74.99c1.61.36,3.32.81,5.12,1.34,34.28,10.12.45,15.64-9.66,21.26-10.12,5.62-6.71,12.82-19.07,30.54-8.05,11.53-25.59,21-42.75,23.11"/>
    </clipPath>
  </defs>
  <g>
    <g>
      <g class="cls-17">
        <g>
          <polygon class="cls-1" points="401.71 92.32 46.46 164.64 46.46 103.17 401.71 30.85 401.71 92.32"/>
          <polygon class="cls-10" points="401.71 153.79 46.46 226.1 46.46 164.64 401.71 92.32 401.71 153.79"/>
          <polygon class="cls-9" points="401.71 215.25 46.46 287.57 46.46 226.1 401.71 153.79 401.71 215.25"/>
          <polygon class="cls-8" points="401.71 276.72 46.46 349.04 46.46 287.57 401.71 215.25 401.71 276.72"/>
          <polygon class="cls-4" points="401.71 338.19 46.46 410.5 46.46 349.04 401.71 276.72 401.71 338.19"/>
          <polygon class="cls-2" points="407.56 391.8 52.31 464.11 52.31 402.64 407.56 330.33 407.56 391.8"/>
        </g>
        <path class="cls-7" d="m193.89,73.16s-45.39,78.61-47.58,123.73c-2.19,45.11,0,290.46,0,290.46h-55.86l9.86-372.4,93.58-41.79Z"/>
      </g>
      <path class="cls-12" d="m117.58,441.59c4.62,4.95,11.74,7.44,18.97,5.57l13.16-3.4c8.53-2.2,14.5-9.9,14.5-18.72v-24.25c0-9.42,6.78-17.46,16.06-19.05l13.16-2.26c11.81-2.02,22.6,7.07,22.6,19.05v4.46c0,12.47,11.64,21.68,23.78,18.81l14.09-3.33c8.93-2.11,15.15-10.21,14.87-19.39l-.41-13.85c-.29-9.73,6.7-18.16,16.32-19.67l12.66-1.99c11.73-1.84,22.33,7.22,22.33,19.1s11.42,21.53,23.48,18.88l22.7-4.98v-176.01c.47-4.41.73-8.88.73-13.41,0-68.96-55.9-124.86-124.86-124.86s-124.86,55.9-124.86,124.86c0,4.53.26,9,.73,13.41v221.04Z"/>
    </g>
    <g>
      <circle class="cls-5" cx="195.62" cy="194.05" r="20.16"/>
      <circle class="cls-5" cx="329.56" cy="195.07" r="20.16"/>
      <circle class="cls-3" cx="195.62" cy="197.88" r="20.16"/>
      <circle class="cls-3" cx="329.56" cy="198.9" r="20.16"/>
      <ellipse class="cls-6" cx="338.27" cy="192.2" rx="5.28" ry="5.68"/>
      <ellipse class="cls-6" cx="206.07" cy="192.2" rx="5.28" ry="5.68"/>
    </g>
  </g>
  <path class="cls-11" d="m401.09,124.05c-4.08-7.79-3.02-18.25,1.62-26.4,2.71-5.39,6.39-10.39,7.77-16.23,4.76-19.1-18.19-38.62-37.96-24.23-5.77,4.08-8.89,16.83-1.63,23.34"/>
  <circle class="cls-5" cx="409.69" cy="145.49" r="8.68"/>
  <path class="cls-13" d="m173.43,152.28s19.46-20.75,42.1-1.84"/>
  <path class="cls-13" d="m307.37,148.5s19.46-20.75,42.1-1.84"/>
  <g>
    <g class="cls-16">
      <polygon class="cls-9" points="11.72 286.49 76.63 286.13 137.29 266.66 71.62 221.12 32.79 230.31 22.88 258.82 11.72 286.49"/>
      <path class="cls-8" d="m85.17,339.58l44.4-10.11,18.93-50.17-32.21-6.69s-47.85-19.02-22.74,39.23c1.4,3.26-15.59,20.21-15.59,20.21l7.21,7.54Z"/>
    </g>
    <path class="cls-14" d="m142.92,285.73c-10.32-.34-21.98-3.06-30.99-11.59-16.95-16.04-18.54-33.25-37.12-33.58-1.48-.03-13.82,2.05-15.63,2.59-34.28,10.12-.45,15.64,9.66,21.26,10.12,5.62,8.51,12.82,20.87,30.54,8.05,11.53,25.59,21,42.75,23.11"/>
  </g>
  <g>
    <g class="cls-15">
      <polygon class="cls-8" points="474.74 286.49 409.84 286.13 349.17 266.66 413.05 221.12 451.87 230.31 461.79 258.82 474.74 286.49"/>
      <path class="cls-4" d="m401.3,339.58l-44.4-10.11-18.93-50.17,32.21-6.69s47.85-19.02,22.74,39.23c-1.4,3.26,15.59,20.21,15.59,20.21l-7.21,7.54Z"/>
    </g>
    <path class="cls-14" d="m343.54,285.73c10.32-.34,21.98-3.06,30.99-11.59,16.95-16.04,16.74-33.25,35.32-33.58,1.48-.03,3.06.05,4.77.25s3.68.53,5.74.99c1.61.36,3.32.81,5.12,1.34,34.28,10.12.45,15.64-9.66,21.26-10.12,5.62-6.71,12.82-19.07,30.54-8.05,11.53-25.59,21-42.75,23.11"/>
  </g>
</svg>