<?xml version="1.0" encoding="UTF-8" standalone="no"?>
<svg
   id="Capa_1"
   data-name="Capa 1"
   viewBox="0 0 500 500"
   version="1.1"
   sodipodi:docname="entre barba-sin-gadget_lgtb 2.svg"
   inkscape:version="1.1.2 (0a00cf5339, 2022-02-04)"
   xmlns:inkscape="http://www.inkscape.org/namespaces/inkscape"
   xmlns:sodipodi="http://sodipodi.sourceforge.net/DTD/sodipodi-0.dtd"
   xmlns="http://www.w3.org/2000/svg"
   xmlns:svg="http://www.w3.org/2000/svg">
  <sodipodi:namedview
     id="namedview172"
     pagecolor="#ffffff"
     bordercolor="#666666"
     borderopacity="1.0"
     inkscape:pageshadow="2"
     inkscape:pageopacity="0.0"
     inkscape:pagecheckerboard="0"
     showgrid="false"
     inkscape:zoom="0.844"
     inkscape:cx="438.98104"
     inkscape:cy="116.70616"
     inkscape:window-width="1920"
     inkscape:window-height="1016"
     inkscape:window-x="0"
     inkscape:window-y="27"
     inkscape:window-maximized="1"
     inkscape:current-layer="Capa_1" />
  <defs
     id="defs25">
    <style
       id="style2">
      .cls-1 {
        fill: #f47a6c;
      }

      .cls-1, .cls-2, .cls-3, .cls-4, .cls-5, .cls-6, .cls-7, .cls-8, .cls-9, .cls-10, .cls-11, .cls-12, .cls-13 {
        stroke-width: 0px;
      }

      .cls-2 {
        fill: #344a65;
      }

      .cls-3, .cls-14 {
        fill: #ccacfd;
      }

      .cls-15 {
        fill: #243d6d;
        stroke-width: 5.35px;
      }

      .cls-15, .cls-16, .cls-17, .cls-18, .cls-19, .cls-20, .cls-21, .cls-22, .cls-23, .cls-24, .cls-25 {
        stroke: #000;
      }

      .cls-15, .cls-16, .cls-17, .cls-19, .cls-20, .cls-21, .cls-22, .cls-24, .cls-25 {
        stroke-miterlimit: 10;
      }

      .cls-26 {
        opacity: .6;
      }

      .cls-27, .cls-16 {
        fill: #637a93;
      }

      .cls-28 {
        clip-path: url(#clippath-2);
      }

      .cls-4 {
        opacity: .18;
      }

      .cls-5 {
        fill: #99d3f6;
      }

      .cls-16, .cls-17 {
        stroke-width: 7.13px;
      }

      .cls-29 {
        clip-path: url(#clippath-6);
      }

      .cls-17, .cls-18, .cls-19, .cls-20, .cls-22, .cls-23, .cls-24, .cls-25 {
        fill: none;
      }

      .cls-18 {
        stroke-width: 5.86px;
      }

      .cls-18, .cls-19, .cls-23 {
        stroke-linecap: round;
      }

      .cls-18, .cls-23 {
        stroke-linejoin: round;
      }

      .cls-30 {
        clip-path: url(#clippath-1);
      }

      .cls-31 {
        clip-path: url(#clippath-4);
      }

      .cls-19 {
        stroke-width: 7.62px;
      }

      .cls-7 {
        fill: #fff;
      }

      .cls-20 {
        stroke-width: 8.87px;
      }

      .cls-32, .cls-21 {
        fill: #77a9c9;
      }

      .cls-21, .cls-24 {
        stroke-width: 3.56px;
      }

      .cls-22 {
        stroke-width: 1.78px;
      }

      .cls-8 {
        opacity: .11;
      }

      .cls-9 {
        fill: #bcf987;
      }

      .cls-10 {
        fill: #88bcdb;
      }

      .cls-33 {
        clip-path: url(#clippath);
      }

      .cls-23 {
        stroke-width: 6.31px;
      }

      .cls-11 {
        fill: #ffe974;
      }

      .cls-34 {
        clip-path: url(#clippath-3);
      }

      .cls-12 {
        fill: #9fb4ca;
      }

      .cls-13 {
        fill: #f4a16a;
      }

      .cls-35 {
        clip-path: url(#clippath-5);
      }

      .cls-25 {
        stroke-width: 9.03px;
      }
    </style>
    <clipPath
       id="clippath">
      <path
         class="cls-25"
         d="m424.32,919.79c.94-15.49.77-36.33,1.06-67.2-.17-62.02,3.35-122.11-17.87-173.74-46.16-112.34-180.44-118.8-235.12-29.83-21.19,34.48-19.73,78.13-13.38,111.1,6.59,34.2,4.08,62.43-.99,97.78-1.35,9.39-1.69,16.78-1.26,21.8.52,6.6,3.5,9.2,9.57,10.71,51.62,8.05,171.22,27.81,242.85,37.73,4.17.35,9.47,2.72,12.37-.13,1.54-1.52,2.44-5.23,2.77-8.21Z"
         id="path4" />
    </clipPath>
    <clipPath
       id="clippath-1">
      <path
         class="cls-20"
         d="m427.4,394.96c.92-15.21.76-35.69,1.04-66.01-.17-60.92,3.29-119.95-17.55-170.66-45.34-110.35-177.25-116.7-230.96-29.31-20.82,33.87-19.38,76.75-13.15,109.13,6.47,33.6,4.01,61.32-.97,96.05-1.32,9.22-1.66,16.49-1.24,21.41.51,6.48,3.44,9.04,9.41,10.52,50.7,7.91,168.18,27.32,238.55,37.07,4.1.35,9.3,2.68,12.15-.13,1.52-1.49,2.39-5.14,2.72-8.07Z"
         id="path7" />
    </clipPath>
    <clipPath
       id="clippath-2">
      <path
         class="cls-23"
         d="m200.06,299.39c2.53-2.32,31.05-23.05,33.15-34.21,3.07-16.29,24.58-36.29,30.38-31.6,8.45,6.84-6.17,13.07-6.38,16.86,0,0,12.84-2.95,16.63,5.9,3.79,8.84,4.21,20.85,2.11,18.95,0,0-1.9,10.74-8.63,8.21,0,0-4.63,6.95-13.27,13.9-8.63,6.95-23.37,33.06-24.21,34.11s-29.78-32.11-29.78-32.11Z"
         id="path10" />
    </clipPath>
    <clipPath
       id="clippath-3">
      <path
         class="cls-16"
         d="m317.58,436.42s1.08,2.19,6.72,2.19,109.98-32.23,109.98-34.65-5.24-19.34-5.24-19.34l-224-31.83,112.53,83.63Z"
         id="path13" />
    </clipPath>
    <clipPath
       id="clippath-4">
      <path
         class="cls-21"
         d="m397,390l-125.3-14.93c-.22-.03-.45,0-.66.09l-39.8,16.75c-1.2.51-1,2.27.29,2.49l103.91,17.81c.21.04.42.02.62-.04l61.19-19.63c1.33-.43,1.15-2.37-.24-2.54Z"
         id="path16" />
    </clipPath>
    <clipPath
       id="clippath-5">
      <path
         class="cls-16"
         d="m133.88,420.37c-5.86-24.49-36.52-108.44-45.67-140.7-1.98-6.98,3.64-14.21,10.83-13.22,37.75,5.17,128.71,12.01,155.28,10.41,4.21-.25,8.86,2.75,10.35,6.7l52.24,138.84c1.8,4.78,6.52,13.64,2.77,16.21-4.18,2.86-140.18-1.86-177.65-10.27-4.01-.9-7.18-3.97-8.14-7.97Z"
         id="path19" />
    </clipPath>
    <clipPath
       id="clippath-6">
      <path
         class="cls-3"
         d="m405.62,311.74s-14.81,20.66-27.06,27.61c-12.94,7.34-19.97,10.73-33.49,7.11-15.24-4.07-31.13,10.6-27.5,28.06,4.79,4.73,8.96-.29,9.69-1.48,0,0-3.38,9.58,4.79,9.58,3.61-.46,5.36-4.36,5.36-4.36,0,0,1.55,11.25,8.26,8.29.71-.31,1.34-.84,1.72-1.52,2.17-3.77,1.21-9.81,3.07-10.47,2.03-.71,39.02,4.41,68.09-25.5l-12.94-37.33Z"
         id="path22" />
    </clipPath>
  </defs>
  <g
     id="g33">
    <g
       class="cls-33"
       clip-path="url(#clippath)"
       id="g29">
      <path
         class="cls-8"
         d="m303.48,563.44s101.75,67.61,89.21,236.07c-9.48,127.45,1.92,178.73,1.92,178.73l76.88-30.1,37.74-200.17-24.33-197.91-133.54-64.1-47.88,77.48Z"
         id="path27" />
    </g>
    <path
       class="cls-25"
       d="m424.32,919.79c.94-15.49.77-36.33,1.06-67.2-.17-62.02,3.35-122.11-17.87-173.74-46.16-112.34-180.44-118.8-235.12-29.83-21.19,34.48-19.73,78.13-13.38,111.1,6.59,34.2,4.08,62.43-.99,97.78-1.35,9.39-1.69,16.78-1.26,21.8.52,6.6,3.5,9.2,9.57,10.71,51.62,8.05,171.22,27.81,242.85,37.73,4.17.35,9.47,2.72,12.37-.13,1.54-1.52,2.44-5.23,2.77-8.21Z"
       id="path31" />
  </g>
  <g
     id="g169"
     transform="matrix(1.2091816,0,0,1.2091816,-71.993208,-61.69802)">
    <circle
       class="cls-7"
       cx="276.41"
       cy="231.94"
       r="6.1700001"
       id="circle35" />
    <g
       id="g57">
      <g
         class="cls-30"
         clip-path="url(#clippath-1)"
         id="g53">
        <g
           id="g49">
          <polygon
             class="cls-13"
             points="136.3,191.99 141.92,128.07 517.98,85.39 512.35,149.31 "
             id="polygon37" />
          <polygon
             class="cls-11"
             points="133.66,255.48 139.28,191.56 515.34,148.88 509.71,212.8 "
             id="polygon39" />
          <polygon
             class="cls-9"
             points="128.83,319.66 134.46,255.74 510.51,213.06 504.89,276.98 "
             id="polygon41" />
          <polygon
             class="cls-5"
             points="122.87,379.06 128.5,315.14 504.56,272.46 498.93,336.38 "
             id="polygon43" />
          <polygon
             class="cls-3"
             points="96.49,451.34 118.74,369.02 494.8,326.34 472.55,408.66 "
             id="polygon45" />
          <polygon
             class="cls-1"
             points="136.3,133.1 141.92,69.18 517.98,26.5 512.35,90.42 "
             id="polygon47" />
        </g>
        <path
           class="cls-8"
           d="m 308.71,44.91 c 0,0 99.94,66.41 87.63,231.89 -9.32,125.19 1.89,175.56 1.89,175.56 L 473.75,422.79 510.82,226.17 486.92,31.76 355.74,-31.2 Z"
           id="path51" />
      </g>
      <path
         class="cls-20"
         d="m 427.4,394.96 c 0.92,-15.21 0.76,-35.69 1.04,-66.01 C 428.27,268.03 431.73,209 410.89,158.29 365.55,47.94 233.64,41.59 179.93,128.98 c -20.82,33.87 -19.38,76.75 -13.15,109.13 6.47,33.6 4.01,61.32 -0.97,96.05 -1.32,9.22 -1.66,16.49 -1.24,21.41 0.51,6.48 3.44,9.04 9.41,10.52 50.7,7.91 168.18,27.32 238.55,37.07 4.1,0.35 9.3,2.68 12.15,-0.13 1.52,-1.49 2.39,-5.14 2.72,-8.07 z"
         id="path55" />
    </g>
    <path
       class="cls-19"
       d="m 300.53,183.93 c 4.62,5.18 8.88,7.79 26.61,-9"
       id="path59" />
    <path
       class="cls-19"
       d="m 242.71,188.85 c -6.33,3.32 -8.88,7.79 -26.61,-9"
       id="path61" />
    <g
       id="g77">
      <g
         id="g71">
        <g
           class="cls-28"
           clip-path="url(#clippath-2)"
           id="g67">
          <polygon
             class="cls-3"
             points="185.9,270.7 307.74,289.54 315.19,249.91 289.67,199.46 166.76,237.67 "
             id="polygon63" />
          <polygon
             class="cls-5"
             points="242.68,339.06 309.31,289.54 193.68,268.2 146.46,321.42 "
             id="polygon65" />
        </g>
        <path
           class="cls-23"
           d="m 200.06,299.39 c 2.53,-2.32 31.05,-23.05 33.15,-34.21 3.07,-16.29 24.58,-36.29 30.38,-31.6 8.45,6.84 -6.17,13.07 -6.38,16.86 0,0 12.84,-2.95 16.63,5.9 3.79,8.84 4.21,20.85 2.11,18.95 0,0 -1.9,10.74 -8.63,8.21 0,0 -4.63,6.95 -13.27,13.9 -8.63,6.95 -23.37,33.06 -24.21,34.11 -0.84,1.05 -29.78,-32.11 -29.78,-32.11 z"
           id="path69" />
      </g>
      <path
         class="cls-6"
         d="m 272.81,275.48 c -0.14,-4.97 -4.49,-7.97 -9.11,-8.72 -2.33,-0.61 -1.71,-4.08 0.67,-3.86 6.79,0.1 13.19,4.48 14.6,11.37 1.21,4.58 -5.61,5.92 -6.16,1.21 z"
         id="path73" />
      <path
         class="cls-6"
         d="m 264.2,283.06 c 0.43,-1.09 0.25,-2.73 -0.61,-3.69 -0.34,-0.44 -0.95,-0.81 -1.48,-1.15 -0.9,-0.57 -1.16,-1.75 -0.6,-2.65 1.18,-1.71 3.32,-0.54 4.79,0.24 2.48,1.46 3.93,4.36 4.15,7.18 0.49,4.78 -6.62,4.86 -6.24,0.07 v 0 z"
         id="path75" />
    </g>
    <circle
       class="cls-4"
       cx="219.42"
       cy="207.47"
       r="20.790001"
       id="circle79" />
    <circle
       class="cls-4"
       cx="324.5"
       cy="202.17999"
       r="20.790001"
       id="circle81" />
    <g
       id="g87">
      <circle
         class="cls-6"
         cx="219.42"
         cy="205.89999"
         r="19.219999"
         id="circle83" />
      <circle
         class="cls-6"
         cx="324.5"
         cy="199.92"
         r="19.219999"
         id="circle85" />
    </g>
    <circle
       class="cls-7"
       cx="210.22"
       cy="204.17"
       r="5.8899999"
       id="circle89" />
    <circle
       class="cls-7"
       cx="317.04999"
       cy="198.28999"
       r="5.8899999"
       id="circle91" />
    <g
       id="g147">
      <g
         id="g133">
        <path
           class="cls-27"
           d="m 317.58,436.42 c 0,0 1.08,2.19 6.72,2.19 5.64,0 109.98,-32.23 109.98,-34.65 0,-2.42 -5.24,-19.34 -5.24,-19.34 l -224,-31.83 112.53,83.63 z"
           id="path93" />
        <g
           class="cls-34"
           clip-path="url(#clippath-3)"
           id="g129">
          <path
             class="cls-15"
             d="m 437.11,386.24 c -1.02,-0.77 -137.78,45.93 -137.78,45.93 0,0 9.27,22.56 32.63,21.35 23.37,-1.21 153.5,-30.62 105.15,-67.28 z"
             id="path95" />
          <g
             id="g127">
            <path
               class="cls-32"
               d="M 397,390 271.7,375.07 c -0.22,-0.03 -0.45,0 -0.66,0.09 l -39.8,16.75 c -1.2,0.51 -1,2.27 0.29,2.49 l 103.91,17.81 c 0.21,0.04 0.42,0.02 0.62,-0.04 l 61.19,-19.63 c 1.33,-0.43 1.15,-2.37 -0.24,-2.54 z"
               id="path97" />
            <g
               class="cls-31"
               clip-path="url(#clippath-4)"
               id="g123">
              <path
                 class="cls-22"
                 d="m 358.4,406.72 c -1.43,0 -141.95,-22.67 -141.95,-22.67"
                 id="path99" />
              <path
                 class="cls-22"
                 d="m 375.35,402.02 c -1.43,0 -150.74,-23.69 -150.74,-23.69"
                 id="path101" />
              <path
                 class="cls-22"
                 d="m 390.47,397.32 c -1.43,0 -156.73,-22.63 -156.73,-22.63"
                 id="path103" />
              <line
                 class="cls-22"
                 x1="315.10001"
                 y1="412.23001"
                 x2="400.67999"
                 y2="382.41"
                 id="line105" />
              <line
                 class="cls-22"
                 x1="301.75"
                 y1="410.60999"
                 x2="387.32999"
                 y2="380.79001"
                 id="line107" />
              <line
                 class="cls-22"
                 x1="288.39999"
                 y1="409"
                 x2="373.98001"
                 y2="379.17999"
                 id="line109" />
              <line
                 class="cls-22"
                 x1="275.04999"
                 y1="407.38"
                 x2="360.63"
                 y2="377.56"
                 id="line111" />
              <line
                 class="cls-22"
                 x1="261.70001"
                 y1="405.76001"
                 x2="347.28"
                 y2="375.95001"
                 id="line113" />
              <line
                 class="cls-22"
                 x1="248.35001"
                 y1="404.14999"
                 x2="333.92999"
                 y2="374.32999"
                 id="line115" />
              <line
                 class="cls-22"
                 x1="235"
                 y1="402.53"
                 x2="320.57999"
                 y2="372.70999"
                 id="line117" />
              <line
                 class="cls-22"
                 x1="221.64999"
                 y1="400.92001"
                 x2="307.23001"
                 y2="371.10001"
                 id="line119" />
              <line
                 class="cls-22"
                 x1="208.3"
                 y1="399.29999"
                 x2="293.88"
                 y2="369.48001"
                 id="line121" />
            </g>
            <path
               class="cls-24"
               d="M 397,390 271.7,375.07 c -0.22,-0.03 -0.45,0 -0.66,0.09 l -39.8,16.75 c -1.2,0.51 -1,2.27 0.29,2.49 l 103.91,17.81 c 0.21,0.04 0.42,0.02 0.62,-0.04 l 61.19,-19.63 c 1.33,-0.43 1.15,-2.37 -0.24,-2.54 z"
               id="path125" />
          </g>
        </g>
        <path
           class="cls-17"
           d="m 317.58,436.42 c 0,0 1.08,2.19 6.72,2.19 5.64,0 109.98,-32.23 109.98,-34.65 0,-2.42 -5.24,-19.34 -5.24,-19.34 l -224,-31.83 112.53,83.63 z"
           id="path131" />
      </g>
      <g
         id="g145">
        <path
           class="cls-27"
           d="m 133.88,420.37 c -5.86,-24.49 -36.52,-108.44 -45.67,-140.7 -1.98,-6.98 3.64,-14.21 10.83,-13.22 37.75,5.17 128.71,12.01 155.28,10.41 4.21,-0.25 8.86,2.75 10.35,6.7 l 52.24,138.84 c 1.8,4.78 6.52,13.64 2.77,16.21 -4.18,2.86 -140.18,-1.86 -177.65,-10.27 -4.01,-0.9 -7.18,-3.97 -8.14,-7.97 z"
           id="path135" />
        <g
           class="cls-35"
           clip-path="url(#clippath-5)"
           id="g141">
          <path
             class="cls-12"
             d="m 80.38,282.81 c 1.93,-0.64 14.79,-6.21 19.3,-6 4.51,0.21 127.35,12.65 164.98,6.75 37.63,-5.9 -153.53,-25.39 -153.53,-25.39 l -29.01,5.21 -1.74,19.42 z"
             id="path137" />
          <path
             class="cls-2"
             d="m 146.89,425.69 c 0,0 154.09,6.14 155.65,3.25 1.56,-2.89 -16.72,-67.12 -16.72,-67.12 0,0 25.43,68.63 25.34,72.67 -0.09,4.04 -106.31,0.22 -164.27,-8.81 z"
             id="path139" />
        </g>
        <path
           class="cls-17"
           d="m 133.88,420.37 c -5.86,-24.49 -36.52,-108.44 -45.67,-140.7 -1.98,-6.98 3.64,-14.21 10.83,-13.22 37.75,5.17 128.71,12.01 155.28,10.41 4.21,-0.25 8.86,2.75 10.35,6.7 l 52.24,138.84 c 1.8,4.78 6.52,13.64 2.77,16.21 -4.18,2.86 -140.18,-1.86 -177.65,-10.27 -4.01,-0.9 -7.18,-3.97 -8.14,-7.97 z"
           id="path143" />
      </g>
    </g>
    <g
       id="g155">
      <path
         class="cls-14"
         d="m 405.62,311.74 c 0,0 -14.81,20.66 -27.06,27.61 -12.94,7.34 -19.97,10.73 -33.49,7.11 -15.24,-4.07 -31.13,10.6 -27.5,28.06 4.79,4.73 8.96,-0.29 9.69,-1.48 0,0 -3.38,9.58 4.79,9.58 3.61,-0.46 5.36,-4.36 5.36,-4.36 0,0 1.55,11.25 8.26,8.29 0.71,-0.31 1.34,-0.84 1.72,-1.52 2.17,-3.77 1.21,-9.81 3.07,-10.47 2.03,-0.71 39.02,4.41 68.09,-25.5 l -12.94,-37.33 z"
         id="path149" />
      <g
         class="cls-29"
         clip-path="url(#clippath-6)"
         id="g153">
        <path
           class="cls-10"
           d="m 356.41,346.22 c 0,0 60.2,-26.37 93.24,1.34 33.04,27.72 25.89,-56.06 -26.19,-51.3 -52.08,4.76 -67.05,49.96 -67.05,49.96 z"
           id="path151" />
      </g>
    </g>
    <g
       id="g163">
      <path
         class="cls-18"
         d="m 401.31,311.74 c 0,0 -10.5,22.45 -22.75,29.4 -12.94,7.34 -19.97,10.73 -33.49,7.11 -15.24,-4.07 -31.13,10.6 -27.5,28.06 4.79,4.73 8.51,-0.34 9.24,-1.52 0,0 -2.93,9.63 5.24,9.62 3.61,-0.46 5.36,-4.36 5.36,-4.36 0,0 1.55,11.25 8.26,8.29 0.71,-0.31 1.34,-0.84 1.72,-1.52 2.17,-3.77 1.21,-9.81 3.07,-10.47 2.03,-0.71 47.79,-0.36 76.09,-36.31"
         id="path157" />
      <path
         class="cls-6"
         d="m 324.51,373.43 c 0.94,-6.49 5.48,-13.92 12.92,-13.01 0.78,0.04 1.37,0.71 1.33,1.48 -0.04,0.78 -0.7,1.34 -1.45,1.34 -1.24,0.13 -2.42,0.35 -3.37,0.98 -3.05,1.99 -4.04,6.15 -4.18,9.61 -0.11,3.82 -5.73,3.39 -5.25,-0.41 v 0 z"
         id="path159" />
      <path
         class="cls-6"
         d="m 335.21,380.69 c -0.04,-5.54 2.76,-12.39 9,-12.89 1.57,-0.2 2.1,2.04 0.62,2.56 -4.3,1.07 -5.01,6.13 -4.37,9.86 0.69,3.93 -5.22,4.47 -5.25,0.47 z"
         id="path161" />
    </g>
    <g
       class="cls-26"
       id="g167">
      <path
         class="cls-12"
         d="m 213.28,388 -20.99,-39.92 -4.72,39.33 -2.64,-0.06 c 0,0 -27.49,-49.42 -28.77,-51.25 -0.82,-1.24 -2.08,-2.15 -3.79,-2.73 l 0.05,-2.13 23.93,0.54 -0.05,2.13 c -1.62,-0.04 -2.74,0.21 -3.36,0.73 -0.62,0.52 -0.94,1.13 -0.95,1.82 -0.01,0.65 0.48,2.62 1.49,5.9 l 11.81,21.25 1.82,-20.94 -0.48,-1.39 c -0.95,-2.9 -1.8,-4.75 -2.54,-5.55 -0.74,-0.8 -1.9,-1.37 -3.49,-1.72 l 0.05,-2.13 24.29,0.55 -0.05,2.13 c -1.9,0.07 -3.1,0.34 -3.62,0.81 -0.52,0.47 -0.79,1.14 -0.81,2.02 -0.02,0.84 0.43,2.71 1.34,5.61 l 11.56,21.25 1.18,-19.29 c 0.94,-2.74 1.42,-4.6 1.44,-5.6 0.03,-1.49 -0.26,-2.59 -0.89,-3.3 -0.63,-0.7 -1.87,-1.15 -3.72,-1.35 l 0.05,-2.13 14.04,0.32 -0.05,2.13 c -1.56,0.2 -2.81,0.79 -3.74,1.78 -0.94,1 -2.19,3.85 -3.75,8.57 l -1.78,42.68 -2.89,-0.07 z"
         id="path165" />
    </g>
  </g>
</svg>
