<?xml version="1.0" encoding="UTF-8"?>
<svg id="Capa_1" data-name="Capa 1" xmlns="http://www.w3.org/2000/svg" xmlns:xlink="http://www.w3.org/1999/xlink" viewBox="0 0 375.8 500">
  <defs>
    <style>
      .cls-1 {
        fill: #f47a6c;
      }

      .cls-1, .cls-2, .cls-3, .cls-4, .cls-5, .cls-6, .cls-7, .cls-8, .cls-9, .cls-10, .cls-11 {
        stroke-width: 0px;
      }

      .cls-2 {
        fill: #ccacfd;
      }

      .cls-3 {
        opacity: .18;
      }

      .cls-4 {
        fill: #99d3f6;
      }

      .cls-6 {
        fill: none;
      }

      .cls-7 {
        fill: #fff;
      }

      .cls-8 {
        opacity: .11;
      }

      .cls-9 {
        fill: #bcf987;
      }

      .cls-12 {
        clip-path: url(#clippath);
      }

      .cls-10 {
        fill: #ffe974;
      }

      .cls-11 {
        fill: #f4a16a;
      }
    </style>
    <clipPath id="clippath">
      <path class="cls-6" d="m32.52,471c5.78,6.2,14.69,9.31,23.75,6.97l16.47-4.25c10.68-2.76,18.14-12.4,18.14-23.43v-30.36c0-11.79,8.49-21.86,20.11-23.85l16.47-2.82c14.78-2.53,28.29,8.85,28.29,23.85v5.58c0,15.61,14.57,27.14,29.77,23.55l17.64-4.17c11.18-2.64,18.96-12.79,18.62-24.27l-.52-17.34c-.36-12.18,8.39-22.73,20.43-24.63l15.85-2.49c14.68-2.31,27.95,9.04,27.95,23.9s14.29,26.95,29.39,23.63l28.41-6.24v-220.32c.59-5.51.91-11.11.91-16.78,0-86.32-69.97-156.29-156.29-156.29S31.61,91.22,31.61,177.54c0,5.67.32,11.27.91,16.78v276.68Z"/>
    </clipPath>
  </defs>
  <g class="cls-12">
    <g>
      <polygon class="cls-1" points="388.18 33.81 -56.51 124.33 -56.51 47.39 388.18 -43.13 388.18 33.81"/>
      <polygon class="cls-11" points="388.18 110.75 -56.51 201.27 -56.51 124.33 388.18 33.81 388.18 110.75"/>
      <polygon class="cls-10" points="388.18 187.69 -56.51 278.21 -56.51 201.27 388.18 110.75 388.18 187.69"/>
      <polygon class="cls-9" points="388.18 264.63 -56.51 355.15 -56.51 278.21 388.18 187.69 388.18 264.63"/>
      <polygon class="cls-4" points="388.18 341.57 -56.51 432.09 -56.51 355.15 388.18 264.63 388.18 341.57"/>
      <polygon class="cls-2" points="388.18 418.51 -56.51 509.03 -56.51 432.09 388.18 341.57 388.18 418.51"/>
    </g>
    <path class="cls-8" d="m128.03,9.82s-56.81,98.4-59.56,154.87c-2.74,56.47,0,363.58,0,363.58H-1.44L10.89,62.13,128.03,9.82Z"/>
  </g>
  <path class="cls-5" d="m187.9,21.25c86.32,0,156.29,69.97,156.29,156.29,0,5.67-.32,11.27-.91,16.78v220.32l-28.41,6.24c-1.77.39-3.52.57-5.24.57-13,0-24.15-10.56-24.15-24.21s-11.06-24.2-24.15-24.2c-1.25,0-2.52.1-3.8.3l-15.85,2.49c-12.04,1.89-20.79,12.44-20.43,24.63l.52,17.34c.34,11.48-7.44,21.63-18.62,24.27l-17.64,4.17c-1.89.45-3.77.66-5.62.66-12.98,0-24.15-10.54-24.15-24.21v-5.58c0-13.58-11.08-24.2-24.15-24.2-1.36,0-2.74.12-4.14.35l-16.47,2.82c-11.62,1.99-20.11,12.06-20.11,23.85v30.36c0,11.03-7.46,20.67-18.14,23.43l-16.47,4.25c-2.04.53-4.08.78-6.07.78-6.84,0-13.2-2.95-17.68-7.75V194.32c-.59-5.51-.91-11.11-.91-16.78C31.61,91.22,101.58,21.25,187.9,21.25m0-10.81c-22.55,0-44.44,4.42-65.05,13.14-19.9,8.42-37.77,20.46-53.11,35.81-15.34,15.34-27.39,33.21-35.81,53.11-8.72,20.61-13.14,42.49-13.14,65.05,0,5.68.31,11.51.91,17.35v280.38l2.91,3.12c6.63,7.11,15.96,11.19,25.58,11.19,2.94,0,5.9-.38,8.78-1.12l16.47-4.25c15.46-3.99,26.25-17.93,26.25-33.9v-30.36c0-6.54,4.68-12.09,11.12-13.19l16.47-2.82c.77-.13,1.55-.2,2.31-.2,7.35,0,13.33,6.01,13.33,13.39v5.58c0,19.31,15.68,35.02,34.96,35.02,2.71,0,5.44-.32,8.11-.95l17.64-4.17c16.1-3.81,27.43-18.58,26.94-35.11l-.52-17.34c-.2-6.72,4.66-12.58,11.3-13.62l15.85-2.49c.71-.11,1.42-.17,2.13-.17,7.35,0,13.34,6.01,13.34,13.39,0,19.31,15.68,35.02,34.96,35.02,2.52,0,5.07-.28,7.56-.82l28.41-6.24,8.49-1.86v-228.45c.6-5.83.91-11.67.91-17.35,0-22.55-4.42-44.44-13.14-65.05-8.42-19.9-20.46-37.77-35.81-53.11-15.34-15.34-33.21-27.39-53.11-35.81-20.61-8.72-42.49-13.14-65.05-13.14h0Z"/>
  <g>
    <circle class="cls-5" cx="130.2" cy="165.95" r="25.23"/>
    <circle class="cls-5" cx="297.86" cy="167.24" r="25.23"/>
    <circle class="cls-3" cx="130.2" cy="170.75" r="25.23"/>
    <circle class="cls-3" cx="297.86" cy="172.03" r="25.23"/>
    <ellipse class="cls-7" cx="308.76" cy="163.64" rx="6.6" ry="7.11"/>
    <ellipse class="cls-7" cx="143.29" cy="163.64" rx="6.6" ry="7.11"/>
  </g>
</svg>