<?xml version="1.0" encoding="UTF-8"?>
<svg xmlns="http://www.w3.org/2000/svg" width="128pt" height="128pt" viewBox="0 0 128 128">
  <defs>
    <linearGradient id="a" x1="-404.175781" x2="-290.367188" y1="769.785156" y2="769.785156" gradientTransform="translate(410.7727 -706.2849)" gradientUnits="userSpaceOnUse">
      <stop offset="0" stop-color="#cb0000"/>
      <stop offset="1" stop-color="#7c0000"/>
    </linearGradient>
    <linearGradient id="b" x1="-347.273438" x2="-347.273438" y1="717.921875" y2="821.648438" gradientTransform="translate(410.7727 -706.2849)" gradientUnits="userSpaceOnUse">
      <stop offset=".2802" stop-color="#ffffcf"/>
      <stop offset="1" stop-color="#ffb300"/>
    </linearGradient>
    <linearGradient id="c" x1="-144.933594" x2="-144.933594" y1="180.035156" y2="87.160156" gradientTransform="matrix(1 0 0 -1 208.4328 197.4036)" gradientUnits="userSpaceOnUse">
      <stop offset=".1703" stop-color="#fff"/>
      <stop offset=".61" stop-color="#ffc30b"/>
      <stop offset="1" stop-color="#fff"/>
    </linearGradient>
    <linearGradient id="d" x1="-144.933594" x2="-144.933594" y1="183.269531" y2="84.542969" gradientTransform="matrix(1 0 0 -1 208.4328 197.4036)" gradientUnits="userSpaceOnUse">
      <stop offset=".1703" stop-color="#fff"/>
      <stop offset=".61" stop-color="#ffa800"/>
      <stop offset="1" stop-color="#fff"/>
    </linearGradient>
  </defs>
  <path fill-opacity=".501961" d="M96.578125 120.363281c-1.382813 0-2.699219-.425781-3.820313-1.242187L64.5 98.59375l-28.257812 20.527344c-1.113282.8125-2.4375 1.242187-3.820313 1.242187-1.378906 0-2.699219-.429687-3.820313-1.242187-2.285156-1.65625-3.234374-4.578125-2.363281-7.269532L37.03125 78.636719 8.773438 58.105469c-2.285157-1.664063-3.234376-4.582031-2.359376-7.269531s3.359376-4.488282 6.183594-4.488282h34.925782l10.792968-33.21875c.875-2.6875 3.359375-4.492187 6.183594-4.492187 2.824219 0 5.308594 1.804687 6.183594 4.492187L81.480469 46.34375h34.925781c2.824219 0 5.308594 1.804688 6.183594 4.492188.871094 2.6875-.078125 5.609374-2.363282 7.269531L91.96875 78.636719l10.789062 33.21875c.875 2.683593-.074218 5.605469-2.363281 7.265625-1.113281.8125-2.433593 1.242187-3.816406 1.242187Zm0 0"/>
  <path fill="url(#a)" d="M95.574219 117.863281c-1.027344 0-2.058594-.316406-2.9375-.953125L63.5 95.738281l-29.140625 21.171875c-.875.636719-1.910156.957032-2.9375.957032-1.03125 0-2.0625-.320313-2.9375-.957032-1.753906-1.273437-2.488281-3.53125-1.820313-5.589844L37.796875 77.0625 8.65625 55.890625c-1.75-1.273437-2.484375-3.53125-1.816406-5.589844.671875-2.0625 2.589844-3.457031 4.757812-3.457031h36.015625l11.128907-34.253906c.671874-2.0625 2.59375-3.453125 4.757812-3.453125 2.167969 0 4.085938 1.394531 4.757812 3.453125L79.386719 46.84375h36.015625c2.167968 0 4.085937 1.394531 4.757812 3.457031.667969 2.058594-.0625 4.316407-1.816406 5.589844L89.203125 77.0625l11.132813 34.257812c.667968 2.058594-.066407 4.316407-1.820313 5.589844-.875.636719-1.90625.953125-2.941406.953125Zm0 0"/>
  <path fill="url(#b)" d="M95.574219 115.363281c-.515625 0-1.027344-.160156-1.464844-.476562L63.496094 92.644531l-30.605469 22.238281c-.4375.316407-.953125.476563-1.46875.476563-.519531 0-1.03125-.160156-1.46875-.476563-.878906-.636718-1.246094-1.765624-.910156-2.792968l11.691406-35.984375-30.605469-22.242188c-.878906-.632812-1.246094-1.761719-.910156-2.792969.335938-1.027343 1.292969-1.726562 2.378906-1.726562h37.832032l11.691406-35.980469c.335937-1.027343 1.292968-1.726562 2.378906-1.726562 1.082031 0 2.042969.699219 2.378906 1.726562L77.570312 49.34375h37.832032c1.085937 0 2.042968.699219 2.378906 1.726562.335938 1.03125-.027344 2.160157-.910156 2.796876L86.261719 76.105469l11.691406 35.984375c.335937 1.027344-.027344 2.15625-.90625 2.792968-.441406.316407-.953125.480469-1.472656.480469Zm0 0"/>
  <path fill="url(#c)" d="m33.320312 110.242188 11.300782-34.78125.226562-.691407-.585937-.425781-29.585938-21.5h37.296875l.222656-.691406L63.5 17.367188l11.300781 34.785156.222657.691406h37.300781l-29.589844 21.5-.585937.425781.222656.691407 11.308594 34.78125-29.59375-21.496094L63.5 88.320312l-.589844.425782Zm0 0"/>
  <path fill="url(#d)" d="M63.5 14.136719 75.753906 51.84375h39.648438L83.324219 75.152344l12.253906 37.710937L63.5 89.554688l-32.078125 23.308593 12.253906-37.710937L11.59375 51.84375h39.652344L63.5 14.136719m0 6.46875L53.148438 52.464844l-.449219 1.378906H17.75l27.101562 19.691406 1.171876.851563-.449219 1.382812L35.222656 107.625l27.097656-19.6875 1.175782-.855469 1.179687.855469 27.097657 19.6875-10.351563-31.855469-.449219-1.382812 1.179688-.855469L109.25 53.84375H74.300781l-.449219-1.378906Zm0 0"/>
</svg>