<?xml version="1.0" encoding="UTF-8"?>
<svg id="Capa_1" data-name="Capa 1" xmlns="http://www.w3.org/2000/svg" viewBox="0 0 933.24 146.74">
  <defs>
    <style>
      .cls-1 {
        fill: #f47a6c;
      }

      .cls-1, .cls-2, .cls-3, .cls-4, .cls-5, .cls-6, .cls-7, .cls-8, .cls-9, .cls-10, .cls-11, .cls-12 {
        stroke-width: 0px;
      }

      .cls-2 {
        fill: #ccacfd;
      }

      .cls-3 {
        fill: #99d3f6;
      }

      .cls-5 {
        fill: #ffcfd6;
      }

      .cls-6 {
        fill: #ecebe8;
      }

      .cls-7 {
        fill: #fff;
      }

      .cls-8 {
        fill: #fafafa;
      }

      .cls-9 {
        fill: #bcf987;
      }

      .cls-10 {
        fill: #ffe974;
      }

      .cls-11 {
        fill: #86c0cc;
      }

      .cls-12 {
        fill: #f4a16a;
      }
    </style>
  </defs>
  <g>
    <path class="cls-7" d="m388.56,136.37c-6.95,0-13.39-3.46-17.23-9.25-2.46-3.71-3.62-8.1-3.4-12.46-5.93,3.17-12.57,4.78-19.75,4.78s-14.29-1.72-20.37-5.12c-2.82-1.57-5.41-3.45-7.73-5.6-3.71,6.07-10.4,9.95-17.64,9.95h-8.08c-4.8,0-9.36-1.64-13.04-4.64-3.89,2.45-8.16,4.07-12.71,4.83-1.83,9.54-10.36,16.75-20.24,16.75h-8.19c-10.04,0-18.52-7.27-20.26-16.94h-7c-2.85,0-5.6-.58-8.21-1.72-2.59,1.13-5.43,1.72-8.28,1.72h-9.15c-3.21,0-6.38-.76-9.26-2.21-2.87,1.45-6.05,2.21-9.28,2.21h-8.11c-3.34,0-6.62-.82-9.57-2.38-2.96,1.56-6.24,2.38-9.57,2.38h-8.11c-5.75,0-11.17-2.4-15.04-6.53-4.04,4.14-9.65,6.53-15.55,6.53h-5.49c-5.1,0-9.9-1.72-13.75-4.9-3.86,3.13-8.74,4.9-13.69,4.9h-5.73c-9.66,0-18.02-6.22-20.79-15.47l-14.25-47.49c-1.99-6.64-.76-13.63,3.38-19.19,4.14-5.56,10.48-8.75,17.41-8.75h6.6c6.68,0,12.9,3.05,17.01,8.24,2.31-.82,4.72-1.23,7.18-1.23h6.02c2.43,0,4.8.4,7.08,1.19,4.11-5.17,10.32-8.2,16.98-8.2h6.29c1.36,0,2.73.13,4.07.38,4.04-3.13,9.61-4.91,15.5-4.91,5.29,0,10.26,1.4,14.17,3.98,3.03-1.66,6.4-2.53,9.85-2.53h8.11c9.75,0,18.04,6.78,20.11,16.09h4.95c.15-8.83,9.75-15.98,21.54-15.98s21.54,7.26,21.54,16.18v.06c1.08-.18,2.18-.27,3.28-.27h7.6c1.63,0,3.26.2,4.85.58,3.21-.9,6.55-1.35,9.93-1.35,6.89,0,13.22,1.8,18.84,5.36,3.67-2.97,8.2-4.59,12.96-4.59h7.47c1.68,0,3.35.2,4.97.6,2.99-.94,6.08-1.43,9.21-1.45h.2c2.1,0,4.15.19,6.09.57l.42.08c2.67.57,5.21,1.69,7.46,3.26,5.49-2.6,11.54-3.91,17.99-3.91,6.8,0,13.12,1.44,18.81,4.29,3.36-2.23,7.36-3.45,11.43-3.45h9.14c3.95,0,7.72,1.09,11.01,3.17,3.28-2.05,7.11-3.17,10.98-3.17h9.22c4.06,0,8.06,1.21,11.43,3.45.94-.48,1.88-.92,2.81-1.31,4.79-1.98,9.98-2.99,15.44-2.99s10.5,1.02,15.2,3.04c3.2,1.38,6.16,3.17,8.83,5.35,1.4-1.11,2.89-2.14,4.45-3.05,6-3.54,12.74-5.34,20.03-5.34,4.92,0,9.65.75,14.11,2.22,3.21-7,10.33-11.69,18.15-11.69h9.41c8.58,0,16.23,5.56,18.93,13.63.17.11.33.22.5.34,5.8-2.99,12.26-4.5,19.22-4.5,7.43,0,14.29,1.72,20.37,5.12.4.22.8.46,1.2.7,1.38-10.14,10.1-17.98,20.62-17.98h8.47c11.47,0,20.81,9.33,20.81,20.81v3.47c2.29-4.58,5.31-8.69,9.03-12.26,4.38-4.21,9.57-7.49,15.4-9.76,5.69-2.21,11.87-3.33,18.36-3.33,4.71,0,9.29.64,13.6,1.89,4.24,1.24,8.2,2.98,11.76,5.19.06.04.13.08.19.12,3.89-3.92,9.14-6.12,14.71-6.12h21.48c6.09,0,11.62,1,16.41,2.96.65.27,1.3.56,1.97.89,3.51-2.49,7.72-3.85,12.03-3.85h40.89c9.32,0,17.35,6.19,19.93,14.86,2.53-1.07,5.25-1.62,8.02-1.62h6.32c9.09,0,17.22,6.08,19.89,14.67,8.65,2.63,14.78,10.77,14.78,19.92v5.47c0,9.15-6.13,17.29-14.78,19.92-2.67,8.59-10.79,14.67-19.89,14.67h-6.32c-9.11,0-17.24-6.1-19.89-14.7-1.28-.4-2.52-.92-3.7-1.55-.8,10.75-9.8,19.25-20.75,19.25h-8.47c-7.4,0-14.18-3.98-17.88-10.22-.77.75-1.57,1.46-2.41,2.12-3.66,2.9-7.88,5.05-12.56,6.39-3.97,1.13-8.28,1.71-12.81,1.71h-22.25c-5.87,0-11.45-2.51-15.38-6.83-2.73,1.84-5.71,3.39-8.89,4.6-5.18,1.99-10.78,3-16.62,3-6.64,0-12.87-1.14-18.53-3.38-2.15-.85-4.24-1.87-6.22-3.02-3.85,3.61-8.92,5.64-14.21,5.64h-32.49c-6.42,0-12.46-3.01-16.38-8.01-1.71,1.37-3.54,2.59-5.45,3.66-6.08,3.4-12.93,5.12-20.37,5.12s-14.29-1.72-20.38-5.12c-1.18-.66-2.36-1.4-3.5-2.21-3.76,4.15-9.12,6.56-14.77,6.56h-9.41c-4.35,0-8.55-1.43-12.01-4.05-1.06.55-2.13,1.05-3.21,1.5-5.35,2.21-11.08,3.33-17.04,3.33-7.29,0-14.03-1.8-20.03-5.34-1-.59-1.98-1.23-2.94-1.92-1.58,1.06-3.2,2-4.83,2.79-3.03,1.47-6.19,2.6-9.4,3.34-3.24.75-6.53,1.14-9.77,1.14-7.63,0-14.58-1.68-20.65-5-2.99-1.63-5.71-3.61-8.13-5.89l-5.94,14.84c-3.16,7.89-10.69,12.99-19.18,12.99h-7.52Z"/>
    <path class="cls-6" d="m136.61,25.73c5.57,0,10.57,1.73,14.05,4.47,2.86-1.9,6.29-3.02,9.97-3.02h8.11c9.3,0,16.99,7.05,17.99,16.09h9.12c.25,0,.49.01.73.02-.18-.76-.29-1.53-.29-2.32,0-7.56,8.53-13.68,19.05-13.68s19.05,6.12,19.05,13.68c0,1.21-.24,2.38-.65,3.5,2-.77,4.16-1.2,6.43-1.2h7.6c1.66,0,3.3.23,4.89.67,3.19-.96,6.5-1.44,9.9-1.44,6.7,0,12.83,1.83,18.22,5.44.28.19.55.39.82.59,3.28-3.25,7.79-5.26,12.76-5.26h7.47c1.73,0,3.42.24,5.05.71,2.93-1.01,6.04-1.54,9.16-1.56h.18c1.94,0,3.83.17,5.62.52l.4.08c2.83.61,5.47,1.92,7.68,3.74,5.49-2.87,11.62-4.34,18.26-4.34s13.34,1.59,19.02,4.73c3.15-2.48,7.07-3.88,11.22-3.88h9.14c4.07,0,7.91,1.35,11,3.7,3.09-2.35,6.92-3.7,10.98-3.7h9.22c4.14,0,8.08,1.4,11.23,3.89,1.27-.72,2.59-1.37,3.96-1.94,4.49-1.86,9.36-2.8,14.48-2.8s9.83.96,14.21,2.84c3.65,1.57,6.93,3.7,9.79,6.34,1.76-1.57,3.68-2.96,5.75-4.19,5.61-3.31,11.93-4.99,18.76-4.99,5.51,0,10.74.99,15.57,2.91,2.18-7.15,8.83-12.38,16.69-12.38h9.41c8,0,14.75,5.4,16.81,12.75.84.5,1.63,1.07,2.38,1.7.1-.06.2-.12.3-.18,5.71-3.19,12.16-4.8,19.16-4.8s13.45,1.62,19.16,4.8c1.68.94,3.25,1.99,4.73,3.14v-1.8c0-10.1,8.21-18.31,18.31-18.31h8.47c10.1,0,18.31,8.21,18.31,18.31v24.04h.19c.04-5.99,1.17-11.67,3.36-16.88,2.25-5.36,5.52-10.13,9.71-14.15,4.14-3.98,9.05-7.08,14.58-9.23,5.4-2.1,11.27-3.16,17.46-3.16,4.48,0,8.82.6,12.9,1.79,4.02,1.17,7.77,2.83,11.15,4.91.66.41,1.3.83,1.93,1.27,3.36-4.2,8.51-6.9,14.3-6.9h21.48c5.77,0,10.97.93,15.46,2.77,1.11.46,2.17.98,3.19,1.53,3.19-2.68,7.29-4.3,11.77-4.3h40.89c9.35,0,17.07,7.05,18.16,16.1,2.83-1.8,6.19-2.86,9.79-2.86h6.32c8.69,0,15.99,6.09,17.85,14.22,8.18,1.83,14.32,9.15,14.32,17.87v5.47c0,8.73-6.14,16.05-14.32,17.87-1.86,8.13-9.16,14.22-17.85,14.22h-6.32c-8.7,0-16-6.1-17.85-14.24-3.1-.71-5.9-2.21-8.19-4.27v3.2c0,10.1-8.21,18.31-18.31,18.31h-8.47c-7.93,0-14.68-5.08-17.22-12.14-1.36,1.68-2.9,3.22-4.63,4.59-3.4,2.7-7.33,4.7-11.69,5.94-3.74,1.07-7.83,1.61-12.13,1.61h-22.25c-6.15,0-11.6-3.06-14.92-7.73-3.07,2.34-6.5,4.24-10.24,5.67-4.89,1.88-10.19,2.83-15.73,2.83-6.32,0-12.25-1.08-17.61-3.21-2.68-1.06-5.2-2.36-7.55-3.88-3.36,3.86-8.29,6.32-13.8,6.32h-32.49c-6.79,0-12.71-3.72-15.88-9.23-2.14,1.98-4.53,3.73-7.16,5.2-5.7,3.19-12.15,4.8-19.15,4.8s-13.45-1.62-19.16-4.8c-1.84-1.03-3.56-2.2-5.16-3.48-3.16,4.53-8.4,7.51-14.33,7.51h-9.41c-4.52,0-8.62-1.74-11.72-4.56-1.41.81-2.89,1.55-4.45,2.19-5.04,2.08-10.45,3.14-16.08,3.14-6.84,0-13.15-1.68-18.76-5-1.46-.86-2.85-1.82-4.16-2.86-1.91,1.4-3.91,2.62-5.97,3.63-2.86,1.39-5.85,2.45-8.87,3.16-3.05.71-6.15,1.07-9.21,1.07-7.21,0-13.75-1.58-19.45-4.69-3.96-2.16-7.35-4.91-10.17-8.2l-.95,2.22-6.48,16.19c-2.78,6.94-9.39,11.42-16.86,11.42h-7.52c-6.11,0-11.77-3.04-15.14-8.13-3.21-4.85-3.89-10.89-1.88-16.32-1.32.98-2.72,1.89-4.2,2.72-5.71,3.19-12.15,4.8-19.16,4.8s-13.45-1.62-19.15-4.8c-3.69-2.06-6.91-4.63-9.63-7.68-2.61,6.83-9.21,11.71-16.95,11.71h-8.08c-5,0-9.54-2.03-12.82-5.32-.29.2-.56.41-.85.61-4.31,2.86-9.1,4.6-14.29,5.18-.83,9.22-8.6,16.47-18.03,16.47h-8.19c-9.61,0-17.47-7.53-18.05-17-.37.02-.73.06-1.1.06h-8.11c-2.95,0-5.74-.73-8.2-1.99-2.5,1.28-5.32,1.99-8.28,1.99h-9.15c-3.28,0-6.48-.91-9.26-2.56-2.71,1.63-5.89,2.56-9.28,2.56h-8.11c-3.52,0-6.79-1.02-9.57-2.77-2.78,1.74-6.06,2.77-9.57,2.77h-8.11c-6.23,0-11.74-3.17-15-7.97-3.52,4.93-9.23,7.97-15.59,7.97h-5.49c-5.3,0-10.2-2.15-13.74-5.78-3.55,3.61-8.47,5.78-13.7,5.78h-5.73c-8.55,0-15.94-5.5-18.39-13.69l-14.25-47.49c-1.76-5.87-.67-12.06,2.99-16.98s9.27-7.74,15.4-7.74h6.6c6.61,0,12.65,3.44,16.13,8.8,2.48-1.16,5.23-1.79,8.06-1.79h6.02c2.8,0,5.5.62,7.96,1.74,3.48-5.33,9.51-8.75,16.1-8.75h6.29c1.62,0,3.21.2,4.73.58,3.49-3.12,8.84-5.11,14.84-5.11m0-5c-6.01,0-11.75,1.72-16.13,4.77-1.14-.16-2.29-.24-3.44-.24h-6.29c-6.84,0-13.26,2.87-17.81,7.83-2.03-.55-4.12-.82-6.24-.82h-6.02c-2.17,0-4.29.29-6.35.85-4.55-4.98-10.98-7.86-17.84-7.86h-6.6c-7.73,0-14.8,3.56-19.42,9.75-4.61,6.2-5.98,14-3.76,21.4l14.25,47.49c3.09,10.32,12.41,17.25,23.18,17.25h5.73c4.87,0,9.67-1.52,13.68-4.27,4,2.78,8.76,4.27,13.77,4.27h5.49c5.73,0,11.22-2.03,15.51-5.6,4.15,3.58,9.47,5.6,15.07,5.6h8.11c3.31,0,6.57-.72,9.57-2.1,3,1.38,6.26,2.1,9.57,2.1h8.11c3.21,0,6.37-.67,9.28-1.95,2.92,1.28,6.07,1.95,9.26,1.95h9.15c2.83,0,5.64-.52,8.27-1.52,2.62,1.01,5.38,1.52,8.21,1.52h5.01c2.71,9.8,11.71,16.94,22.25,16.94h8.19c10.49,0,19.63-7.25,22.31-17.1,3.7-.79,7.2-2.12,10.48-3.97,3.85,2.69,8.42,4.14,13.2,4.14h8.08c7.11,0,13.76-3.34,18.09-8.75,1.88,1.52,3.91,2.89,6.06,4.09,6.46,3.61,13.73,5.44,21.59,5.44,6.21,0,12.04-1.14,17.4-3.39.43,3.52,1.66,6.94,3.66,9.96,4.3,6.5,11.52,10.37,19.31,10.37h7.52c9.52,0,17.96-5.71,21.5-14.56l4.64-11.59c1.84,1.45,3.82,2.76,5.91,3.91,6.44,3.52,13.79,5.3,21.85,5.3,3.43,0,6.91-.4,10.34-1.2,3.39-.79,6.73-1.97,9.92-3.53,1.24-.6,2.47-1.28,3.69-2.03.57.37,1.14.73,1.72,1.07,6.39,3.77,13.56,5.69,21.3,5.69,6.29,0,12.34-1.18,17.99-3.52.68-.28,1.36-.58,2.03-.91,3.63,2.37,7.86,3.65,12.23,3.65h9.41c5.62,0,10.99-2.12,15.08-5.84.65.41,1.31.81,1.97,1.17,6.46,3.61,13.72,5.44,21.59,5.44s15.13-1.83,21.59-5.44c1.33-.74,2.63-1.56,3.88-2.45,4.34,4.48,10.37,7.11,16.73,7.11h32.49c5.31,0,10.42-1.82,14.52-5.1,1.61.86,3.28,1.63,4.99,2.31,5.95,2.36,12.5,3.56,19.45,3.56,6.16,0,12.05-1.06,17.52-3.16,2.69-1.03,5.24-2.28,7.64-3.74,4.26,3.9,9.87,6.14,15.72,6.14h22.25c4.76,0,9.31-.61,13.5-1.81,4.99-1.42,9.51-3.72,13.42-6.83.13-.11.27-.21.4-.32,4.34,5.54,11.07,8.96,18.34,8.96h8.47c10.96,0,20.17-7.6,22.65-17.8,3.46,8.75,12.1,14.8,21.7,14.8h6.32c9.92,0,18.52-6.12,21.86-15.2,9.03-3.32,15.31-12.09,15.31-21.89v-5.47c0-9.8-6.28-18.57-15.31-21.89-3.34-9.08-11.95-15.2-21.86-15.2h-6.32c-2.22,0-4.41.32-6.51.93-3.58-8.4-11.91-14.18-21.44-14.18h-40.89c-4.34,0-8.58,1.22-12.25,3.49-.27-.12-.54-.24-.81-.35-5.1-2.09-10.93-3.15-17.36-3.15h-21.48c-5.58,0-10.86,1.97-15.04,5.52-3.37-1.92-7.04-3.47-10.93-4.6-4.54-1.32-9.35-1.99-14.3-1.99-6.81,0-13.29,1.18-19.27,3.5-6.15,2.39-11.61,5.85-16.23,10.29-1.93,1.86-3.69,3.85-5.26,5.97-2.15-10.65-11.58-18.68-22.85-18.68h-8.47c-10.55,0-19.49,7.05-22.35,16.68-6.02-3-12.68-4.51-19.85-4.51-6.51,0-12.61,1.25-18.19,3.73-3.59-7.92-11.58-13.2-20.46-13.2h-9.41c-8.04,0-15.43,4.42-19.4,11.2-4.11-1.15-8.41-1.72-12.86-1.72-7.74,0-14.91,1.91-21.3,5.69-1.09.64-2.14,1.33-3.16,2.06-2.43-1.79-5.06-3.29-7.86-4.5-5.01-2.16-10.46-3.25-16.19-3.25s-11.3,1.07-16.39,3.18c-.57.24-1.15.49-1.72.76-3.5-2.01-7.5-3.09-11.56-3.09h-9.22c-3.82,0-7.62.97-10.98,2.78-3.36-1.81-7.17-2.78-11.01-2.78h-9.14c-4.07,0-8.08,1.09-11.58,3.1-5.7-2.62-11.97-3.95-18.66-3.95-6.33,0-12.29,1.2-17.77,3.57-2.21-1.35-4.63-2.32-7.12-2.86h-.03s-.03-.01-.03-.01l-.4-.08c-2.14-.41-4.35-.62-6.6-.62h-.18c-3.18.02-6.3.48-9.32,1.36-1.6-.34-3.24-.52-4.88-.52h-7.47c-4.75,0-9.28,1.43-13.12,4.08-5.64-3.22-11.92-4.85-18.68-4.85-3.4,0-6.75.43-9.99,1.28-1.58-.34-3.19-.51-4.8-.51h-7.6c-.34,0-.68,0-1.02.02-1.63-9.16-11.5-16-23.81-16s-22.17,6.83-23.81,15.98h-.77c-2.98-9.43-11.78-16.09-22.02-16.09h-8.11c-3.38,0-6.7.74-9.74,2.17-4.1-2.35-9.06-3.62-14.29-3.62h0Z"/>
  </g>
  <g>
    <g>
      <path class="cls-1" d="m96.48,104.28c-2.32,0-4.39-1.39-5.27-3.53l-8.78-21.3-8.08,21.16c-.84,2.19-2.98,3.67-5.33,3.67h-5.73c-2.54,0-4.73-1.63-5.46-4.06l-14.25-47.5c-.52-1.74-.2-3.58.89-5.04,1.09-1.46,2.75-2.3,4.57-2.3h6.6c2.53,0,4.79,1.7,5.48,4.14l6.84,23.97,6.53-17.4c.83-2.21,2.98-3.7,5.34-3.7h6.02c2.38,0,4.53,1.5,5.35,3.73l6.42,17.42,6.81-24.02c.69-2.44,2.95-4.15,5.48-4.15h6.29c1.82,0,3.49.84,4.57,2.3,1.09,1.46,1.41,3.3.89,5.04l-14.25,47.5c-.73,2.43-2.92,4.06-5.46,4.06h-5.49Z"/>
      <path class="cls-4" d="m116.21,47.89c2.14,0,3.68,2.07,3.07,4.12l-14.25,47.5c-.41,1.35-1.65,2.28-3.07,2.28h-5.49c-1.3,0-2.47-.78-2.96-1.98l-10.07-24.44c-.2-.48-.63-.72-1.07-.72s-.89.25-1.08.74l-9.28,24.33c-.47,1.24-1.66,2.06-2.99,2.06h-5.73c-1.41,0-2.66-.93-3.07-2.28l-14.25-47.5c-.62-2.05.92-4.12,3.07-4.12h6.6c1.43,0,2.69.95,3.08,2.32l7.42,26.01c.36,1.28.68,2.58.96,3.89.27,1.27.5,2.48.68,3.63.2-1.19.42-2.33.67-3.4.31-1.31.69-2.68,1.16-4.12l7.23-19.25c.47-1.25,1.66-2.08,3-2.08h6.02c1.34,0,2.54.84,3,2.09l7.08,19.23c.62,1.69,1.13,3.29,1.54,4.77.22.79.41,1.56.57,2.31.04-.33.08-.66.12-1,.1-.82.26-1.73.46-2.73s.49-2.14.85-3.43l7.35-25.93c.39-1.38,1.65-2.33,3.08-2.33h6.29m0-5h-6.29c-3.65,0-6.89,2.45-7.89,5.96l-4.71,16.62-3.76-10.21c-1.18-3.21-4.27-5.37-7.7-5.37h-6.02c-3.4,0-6.48,2.14-7.68,5.32l-3.87,10.3-4.76-16.68c-1-3.5-4.24-5.95-7.89-5.95h-6.6c-2.62,0-5.02,1.2-6.58,3.31s-2.03,4.74-1.28,7.25l14.25,47.5c1.05,3.5,4.21,5.84,7.85,5.84h5.73c3.38,0,6.46-2.12,7.66-5.28l5.83-15.28,6.38,15.48c1.27,3.08,4.25,5.08,7.58,5.08h5.49c3.65,0,6.81-2.35,7.85-5.84l14.25-47.5c.75-2.51.29-5.15-1.28-7.25s-3.96-3.31-6.58-3.31h0Z"/>
    </g>
    <g>
      <rect class="cls-12" x="127.95" y="58.4" width="17.32" height="45.89" rx="4.61" ry="4.61"/>
      <path class="cls-4" d="m140.66,60.9c1.16,0,2.11.94,2.11,2.11v36.68c0,1.16-.94,2.11-2.11,2.11h-8.11c-1.16,0-2.11-.94-2.11-2.11v-36.68c0-1.16.94-2.11,2.11-2.11h8.11m0-5h-8.11c-3.92,0-7.11,3.19-7.11,7.11v36.68c0,3.92,3.19,7.11,7.11,7.11h8.11c3.92,0,7.11-3.19,7.11-7.11v-36.68c0-3.92-3.19-7.11-7.11-7.11h0Z"/>
    </g>
    <g>
      <path class="cls-12" d="m136.61,55.31c-2.91,0-5.27-.75-7.04-2.24-1.3-1.1-2.85-3.14-2.85-6.65,0-2.55.98-4.77,2.85-6.42,1.8-1.59,4.17-2.4,7.04-2.4s5.28.76,7.02,2.26c1.83,1.57,2.79,3.84,2.79,6.55s-.96,4.83-2.79,6.48c-1.78,1.6-4.14,2.41-7.03,2.41Z"/>
      <path class="cls-4" d="m136.61,40.11c2.31,0,4.11.55,5.39,1.66,1.28,1.1,1.92,2.66,1.92,4.66,0,1.9-.65,3.44-1.96,4.62-1.31,1.18-3.09,1.77-5.35,1.77s-4.12-.55-5.43-1.66c-1.31-1.1-1.96-2.68-1.96-4.74,0-1.85.67-3.36,2-4.54,1.33-1.18,3.13-1.77,5.39-1.77m0-5c-3.51,0-6.43,1.02-8.7,3.03-2.41,2.13-3.69,5-3.69,8.29,0,4.47,2.03,7.12,3.74,8.56,2.23,1.88,5.14,2.83,8.65,2.83s6.45-1.03,8.7-3.06c2.36-2.13,3.61-5.01,3.61-8.33,0-4.38-1.99-7.01-3.66-8.45-2.21-1.9-5.12-2.87-8.65-2.87h0Z"/>
    </g>
    <g>
      <path class="cls-12" d="m186.46,104.28c-1.42,0-2.78-.67-3.64-1.79l-9.73-12.59-.56.52v9.26c0,2.54-2.07,4.61-4.61,4.61h-8.11c-2.54,0-4.61-2.07-4.61-4.61v-52.77c0-2.54,2.07-4.61,4.61-4.61h8.11c2.54,0,4.61,2.07,4.61,4.61v22.32l9.18-9.44c.86-.89,2.07-1.39,3.3-1.39h10.03c1.9,0,3.58,1.14,4.28,2.91.7,1.77.25,3.75-1.13,5.05l-13.3,12.47,14.32,17.97c1.11,1.39,1.32,3.26.55,4.87-.77,1.61-2.36,2.61-4.15,2.61h-9.15Z"/>
      <path class="cls-4" d="m167.92,44.8c1.16,0,2.11.94,2.11,2.11v23.29c0,1.27,1.04,2.11,2.12,2.11.53,0,1.06-.2,1.49-.64l9.86-10.13c.4-.41.94-.64,1.51-.64h10.03c1.91,0,2.83,2.34,1.44,3.64l-13.57,12.72c-.8.75-.89,1.99-.21,2.85l14.55,18.26c1.1,1.38.12,3.42-1.65,3.42h-9.15c-.65,0-1.27-.3-1.67-.82l-10-12.94c-.42-.54-1.04-.82-1.67-.82-.51,0-1.03.19-1.44.57l-1,.94c-.42.4-.67.95-.67,1.54v9.43c0,1.16-.94,2.11-2.11,2.11h-8.11c-1.16,0-2.11-.94-2.11-2.11v-52.77c0-1.16.94-2.11,2.11-2.11h8.11m0-5h-8.11c-3.92,0-7.11,3.19-7.11,7.11v52.77c0,3.92,3.19,7.11,7.11,7.11h8.11c3.92,0,7.11-3.19,7.11-7.11v-3.18l5.81,7.52c1.34,1.73,3.44,2.76,5.62,2.76h9.15c2.75,0,5.21-1.54,6.4-4.02,1.2-2.48.87-5.36-.84-7.51l-12.89-16.17,11.62-10.89c2.14-2.01,2.83-5.07,1.75-7.8-1.08-2.73-3.67-4.49-6.61-4.49h-10.03c-1.91,0-3.76.78-5.09,2.15l-4.89,5.03v-16.16c0-3.92-3.19-7.11-7.11-7.11h0Z"/>
    </g>
    <g>
      <path class="cls-10" d="m216.15,55.31c-2.91,0-5.27-.75-7.04-2.24-1.3-1.1-2.85-3.14-2.85-6.65,0-2.55.98-4.77,2.85-6.42,1.8-1.59,4.17-2.4,7.04-2.4s5.28.76,7.02,2.26c1.83,1.57,2.79,3.84,2.79,6.55s-.96,4.83-2.79,6.48c-1.78,1.6-4.14,2.41-7.03,2.41Z"/>
      <path class="cls-4" d="m216.15,40.11c2.31,0,4.11.55,5.39,1.66,1.28,1.1,1.92,2.66,1.92,4.66,0,1.9-.65,3.44-1.96,4.62-1.31,1.18-3.09,1.77-5.35,1.77s-4.12-.55-5.43-1.66c-1.31-1.1-1.96-2.68-1.96-4.74,0-1.85.67-3.36,2-4.54,1.33-1.18,3.13-1.77,5.39-1.77m0-5c-3.51,0-6.43,1.02-8.7,3.03-2.41,2.13-3.69,5-3.69,8.29,0,4.47,2.03,7.12,3.74,8.56,2.23,1.88,5.14,2.83,8.65,2.83s6.45-1.03,8.7-3.06c2.36-2.13,3.61-5.01,3.61-8.33,0-4.38-1.99-7.01-3.66-8.45-2.21-1.9-5.12-2.87-8.65-2.87h0Z"/>
    </g>
    <g>
      <rect class="cls-10" x="207.49" y="58.4" width="17.32" height="45.89" rx="4.61" ry="4.61"/>
      <path class="cls-4" d="m220.2,60.9c1.16,0,2.11.94,2.11,2.11v36.68c0,1.16-.94,2.11-2.11,2.11h-8.11c-1.16,0-2.11-.94-2.11-2.11v-36.68c0-1.16.94-2.11,2.11-2.11h8.11m0-5h-8.11c-3.92,0-7.11,3.19-7.11,7.11v36.68c0,3.92,3.19,7.11,7.11,7.11h8.11c3.92,0,7.11-3.19,7.11-7.11v-36.68c0-3.92-3.19-7.11-7.11-7.11h0Z"/>
    </g>
    <g>
      <path class="cls-10" d="m239.35,121.22c-2.54,0-4.61-2.07-4.61-4.61v-53.62c0-2.54,2.07-4.61,4.61-4.61h7.6c1.68,0,3.16.9,3.96,2.26.97-.6,2.02-1.13,3.16-1.58,2.42-.96,4.99-1.45,7.66-1.45,3.98,0,7.58,1.06,10.71,3.16,3.07,2.06,5.52,4.9,7.28,8.43,1.73,3.49,2.61,7.56,2.61,12.08s-.88,8.52-2.6,12.04c-1.76,3.57-4.22,6.43-7.33,8.49-3.15,2.09-6.79,3.15-10.81,3.15-2.63,0-5.18-.5-7.58-1.5-.64-.27-1.26-.56-1.85-.88v14.02c0,2.54-2.07,4.61-4.61,4.61h-8.19Zm19.22-48.2c-1.43,0-2.61.3-3.6.92-.98.62-1.74,1.51-2.3,2.72-.61,1.3-.92,2.86-.92,4.64s.3,3.37.9,4.61c.57,1.18,1.34,2.08,2.34,2.73.98.64,2.15.94,3.57.94s2.51-.31,3.49-.94c1-.65,1.77-1.54,2.34-2.73.6-1.24.91-2.79.91-4.61s-.31-3.31-.91-4.58c-.58-1.21-1.33-2.11-2.32-2.76-.95-.63-2.1-.93-3.51-.93Z"/>
      <path class="cls-4" d="m261.73,60.13c3.49,0,6.6.91,9.32,2.73,2.72,1.82,4.86,4.31,6.43,7.47,1.56,3.16,2.35,6.81,2.35,10.97s-.78,7.75-2.35,10.93c-1.57,3.18-3.72,5.69-6.47,7.51-2.75,1.82-5.89,2.73-9.43,2.73-2.31,0-4.52-.44-6.62-1.31-.74-.31-1.44-.65-2.1-1.04-.36-.21-.74-.3-1.1-.3-1.1,0-2.11.85-2.11,2.09v14.7c0,1.16-.94,2.11-2.11,2.11h-8.19c-1.16,0-2.11-.94-2.11-2.11v-53.62c0-1.16.94-2.11,2.11-2.11h7.6c1.12,0,2.05.88,2.1,2l.12,2.47c.18-.21.35-.42.55-.62,1.39-1.39,3.14-2.5,5.27-3.35,2.13-.85,4.38-1.27,6.74-1.27m-3.16,31.96c1.85,0,3.47-.45,4.85-1.35s2.46-2.14,3.23-3.74c.77-1.59,1.16-3.49,1.16-5.7s-.38-4.04-1.16-5.66c-.77-1.62-1.84-2.87-3.2-3.77-1.36-.9-2.99-1.35-4.89-1.35s-3.54.44-4.93,1.31c-1.39.87-2.46,2.13-3.23,3.77-.77,1.64-1.15,3.54-1.15,5.7s.38,4.11,1.15,5.7c.77,1.59,1.85,2.84,3.23,3.74s3.03,1.35,4.93,1.35m3.16-36.96c-2.99,0-5.87.55-8.58,1.62-.58.23-1.15.48-1.7.75-1.23-1.01-2.8-1.61-4.5-1.61h-7.6c-3.92,0-7.11,3.19-7.11,7.11v53.62c0,3.92,3.19,7.11,7.11,7.11h8.19c3.92,0,7.11-3.19,7.11-7.11v-10.24c2.23.73,4.55,1.1,6.93,1.1,4.53,0,8.63-1.2,12.2-3.57,3.48-2.31,6.23-5.49,8.19-9.47,1.9-3.86,2.86-8.28,2.86-13.14s-.96-9.35-2.87-13.19c-1.95-3.94-4.69-7.1-8.13-9.4-3.55-2.38-7.62-3.58-12.1-3.58h0Zm-3.16,31.96c-.92,0-1.65-.18-2.21-.54-.62-.4-1.08-.95-1.45-1.72-.43-.9-.65-2.08-.65-3.52s.23-2.61.68-3.58c.36-.77.8-1.3,1.37-1.66.57-.36,1.31-.54,2.26-.54s1.6.17,2.14.52c.59.39,1.06.96,1.43,1.75.44.93.67,2.11.67,3.51s-.22,2.62-.65,3.52c-.37.77-.84,1.32-1.45,1.72-.36.23-.97.54-2.13.54h0Z"/>
    </g>
    <g>
      <path class="cls-9" d="m293.53,104.28c-2.57,0-4.66-2.09-4.66-4.66v-36.57c0-2.57,2.09-4.66,4.66-4.66h7.47c1.94,0,3.6,1.18,4.3,2.87.98-.79,2.04-1.48,3.16-2.06,2.09-1.07,4.45-1.65,6.82-1.66h.11c1.08,0,2.11.09,3.05.28,1.26.25,2.35.99,3.03,2.06.68,1.08.9,2.4.59,3.64l-2.27,9.14c-.52,2.08-2.38,3.53-4.52,3.53h0c-.4,0-.8-.05-1.2-.15l-.17-.04c-.75-.18-1.55-.27-2.37-.27s-1.55.13-2.24.4c-.63.25-1.14.59-1.55,1.03-.46.49-.81,1.07-1.08,1.76-.27.68-.4,1.48-.4,2.39v18.32c0,2.57-2.09,4.66-4.66,4.66h-8.08Z"/>
      <path class="cls-4" d="m315.4,60.05c.92,0,1.78.08,2.58.23,0,0,.02,0,.02,0,1.2.23,1.94,1.45,1.65,2.63l-2.27,9.14c-.25.99-1.12,1.63-2.09,1.63-.19,0-.38-.02-.56-.07-.07-.02-.14-.04-.21-.05-.95-.23-1.94-.35-2.96-.35-1.13,0-2.18.19-3.16.58-.98.38-1.8.94-2.46,1.66-.67.72-1.19,1.57-1.58,2.54-.38.98-.58,2.08-.58,3.31v18.32c0,1.19-.97,2.16-2.16,2.16h-8.08c-1.19,0-2.16-.97-2.16-2.16v-36.57c0-1.19.97-2.16,2.16-2.16h7.47c1.16,0,2.11.91,2.16,2.07l.17,4.19c.31-.48.65-.96,1.02-1.41,1.48-1.83,3.24-3.27,5.26-4.31,1.76-.9,3.72-1.37,5.69-1.38.03,0,.06,0,.09,0m0-5h-.12c-2.77.02-5.52.69-7.95,1.94-.49.25-.97.53-1.44.82-1.28-1.19-2.99-1.91-4.88-1.91h-7.47c-3.95,0-7.16,3.21-7.16,7.16v36.57c0,3.95,3.21,7.16,7.16,7.16h8.08c3.95,0,7.16-3.21,7.16-7.16v-18.32c0-.59.08-1.09.23-1.48.16-.39.35-.71.59-.97.1-.1.27-.26.63-.41.39-.15.82-.23,1.32-.23.62,0,1.23.07,1.79.2l.12.03c.6.16,1.21.24,1.83.24,3.3,0,6.15-2.23,6.95-5.42l2.27-9.14c.47-1.9.14-3.93-.91-5.58-1.04-1.64-2.73-2.79-4.63-3.16h-.03s-.05-.02-.05-.02c-1.05-.2-2.24-.31-3.48-.31h0Z"/>
    </g>
    <g>
      <path class="cls-9" d="m347.35,105.05c-4.67,0-8.9-1.04-12.58-3.09-3.68-2.05-6.63-4.89-8.77-8.44-2.16-3.56-3.25-7.68-3.25-12.23s1.09-8.66,3.25-12.23c2.14-3.54,5.1-6.38,8.77-8.44,3.67-2.05,7.9-3.09,12.58-3.09s8.9,1.04,12.58,3.09c3.68,2.06,6.62,4.9,8.74,8.45,2.12,3.56,3.2,7.67,3.2,12.22s-1.08,8.65-3.2,12.21c-2.12,3.55-5.06,6.39-8.74,8.45-3.67,2.05-7.9,3.09-12.58,3.09Zm0-31.96c-1.38,0-2.57.33-3.63,1-1.09.69-1.92,1.61-2.53,2.83-.64,1.26-.93,2.67-.89,4.31v.13c-.04,1.64.25,3.03.88,4.26.62,1.2,1.45,2.12,2.54,2.81,1.07.67,2.25,1,3.63,1s2.54-.32,3.58-.99c1.07-.69,1.9-1.61,2.52-2.82.63-1.22.92-2.62.88-4.26v-.12c.04-1.65-.25-3.06-.89-4.31-.62-1.22-1.44-2.15-2.51-2.84-1.04-.66-2.21-.99-3.58-.99Z"/>
      <path class="cls-4" d="m347.35,60.05c4.26,0,8.05.92,11.36,2.77,3.31,1.85,5.92,4.36,7.82,7.55,1.9,3.18,2.85,6.83,2.85,10.93s-.95,7.75-2.85,10.93c-1.9,3.18-4.5,5.7-7.82,7.55-3.31,1.85-7.1,2.77-11.36,2.77s-8.05-.92-11.36-2.77c-3.31-1.85-5.93-4.36-7.85-7.55-1.92-3.18-2.89-6.83-2.89-10.93s.96-7.75,2.89-10.93c1.92-3.18,4.54-5.7,7.85-7.55,3.31-1.85,7.1-2.77,11.36-2.77m0,31.88c1.85,0,3.49-.46,4.93-1.39,1.44-.92,2.57-2.18,3.39-3.77.82-1.59,1.21-3.41,1.16-5.47.05-2.05-.33-3.89-1.16-5.51-.82-1.62-1.95-2.89-3.39-3.81-1.44-.92-3.08-1.39-4.93-1.39s-3.5.46-4.97,1.39-2.61,2.19-3.43,3.81c-.82,1.62-1.21,3.45-1.16,5.51-.05,2.05.33,3.88,1.16,5.47.82,1.59,1.96,2.85,3.43,3.77,1.46.92,3.12,1.39,4.97,1.39m0-36.88c-5.1,0-9.74,1.15-13.79,3.41-4.06,2.27-7.32,5.41-9.7,9.32-2.4,3.96-3.61,8.51-3.61,13.52s1.21,9.56,3.61,13.52c2.37,3.92,5.63,7.06,9.7,9.32,4.05,2.26,8.69,3.41,13.79,3.41s9.75-1.15,13.8-3.41c4.07-2.27,7.32-5.42,9.67-9.35,2.36-3.96,3.56-8.5,3.56-13.5s-1.2-9.54-3.55-13.5c-2.35-3.93-5.6-7.08-9.67-9.35-4.05-2.26-8.69-3.41-13.8-3.41h0Zm0,31.88c-.9,0-1.63-.19-2.29-.61-.72-.45-1.24-1.04-1.65-1.84-.44-.84-.63-1.84-.6-3.05v-.13s0-.13,0-.13c-.03-1.22.17-2.24.61-3.12.41-.82.93-1.4,1.64-1.85.66-.42,1.39-.61,2.3-.61s1.6.19,2.23.59c.69.44,1.21,1.04,1.63,1.87.44.87.65,1.9.61,3.12v.12s0,.12,0,.12c.03,1.21-.17,2.21-.6,3.05-.42.81-.94,1.41-1.65,1.86-.63.4-1.34.59-2.22.59h0Z"/>
    </g>
    <g>
      <path class="cls-3" d="m387.73,121.99c-1.57,0-3.02-.78-3.88-2.09-.86-1.31-1.02-2.95-.4-4.39l6.29-14.82-16.38-35.69c-.67-1.45-.55-3.11.31-4.46.86-1.34,2.33-2.14,3.92-2.14h9.14c1.88,0,3.57,1.12,4.29,2.85l7.31,17.43,5.98-17.16c.65-1.87,2.42-3.12,4.4-3.12h9.22c1.57,0,3.02.78,3.89,2.09.87,1.31,1.01,2.95.4,4.39l-16.12,37.88-6.52,16.3c-.71,1.78-2.41,2.93-4.33,2.93h-7.52Z"/>
      <path class="cls-4" d="m417.93,60.9c1.55,0,2.59,1.58,1.99,3l-16.12,37.88-6.54,16.35c-.33.82-1.12,1.36-2,1.36h-7.52c-1.55,0-2.59-1.58-1.99-3l6.35-14.96c.24-.56.23-1.19-.03-1.74l-16.44-35.83c-.66-1.43.39-3.06,1.96-3.06h9.14c.87,0,1.65.52,1.99,1.32l8.07,19.24c.46,1.03.9,2.13,1.31,3.31.14.41.25.8.37,1.2.36-1.07.75-2.21,1.17-3.43l7.04-20.19c.3-.87,1.12-1.45,2.04-1.45h9.22m0-5h-9.22c-3.04,0-5.76,1.93-6.76,4.8l-3.84,11.01-4.79-11.42c-1.12-2.67-3.71-4.39-6.6-4.39h-9.14c-2.45,0-4.7,1.23-6.03,3.29-1.32,2.06-1.5,4.62-.48,6.85l15.92,34.69-5.86,13.81c-.94,2.22-.71,4.74.62,6.75,1.33,2.01,3.56,3.21,5.97,3.21h7.52c2.94,0,5.55-1.77,6.65-4.5l6.52-16.3,16.1-37.83c.94-2.22.71-4.74-.62-6.75-1.33-2.01-3.56-3.21-5.97-3.21h0Z"/>
    </g>
    <g>
      <path class="cls-3" d="m449.15,105.05c-4.92,0-9.29-1.02-12.98-3.04-3.72-2.03-6.66-4.86-8.74-8.4-2.07-3.53-3.12-7.59-3.12-12.08,0-3.43.58-6.64,1.71-9.54,1.14-2.91,2.77-5.48,4.84-7.63,2.08-2.17,4.58-3.86,7.43-5.04,2.84-1.17,5.97-1.77,9.31-1.77s6.19.59,8.88,1.74c2.69,1.16,5.06,2.81,7.03,4.89s3.5,4.58,4.53,7.4c1.03,2.81,1.5,5.9,1.38,9.19l-.04,1.86c-.05,2.13-1.82,3.86-3.96,3.86h-5.85c1.14.11,2.19.71,2.85,1.65l4.14,5.85c1.23,1.74.86,4.12-.83,5.43-1.4,1.08-2.88,2.01-4.42,2.76-1.96.95-3.99,1.67-6.03,2.15-2.05.48-4.12.72-6.15.72Zm-6.29-18.56c.6.66,1.34,1.21,2.22,1.66,1.46.74,3.27,1.12,5.38,1.12,1.44,0,2.71-.2,3.78-.61.83-.31,1.75-.81,2.73-1.49.56-.38,1.2-.62,1.87-.68h-15.98Zm9.11-11.93c-.4-.46-.88-.82-1.47-1.12-.79-.39-1.68-.58-2.73-.58-1.56,0-2.87.29-3.89.87-.41.23-.78.51-1.1.83h9.19Z"/>
      <path class="cls-4" d="m447.61,60.05c2.87,0,5.51.51,7.89,1.54,2.39,1.03,4.45,2.46,6.2,4.31s3.08,4.03,4,6.54c.92,2.52,1.33,5.26,1.23,8.24l-.04,1.89c-.02.79-.66,1.42-1.46,1.42h-24.55c-1.09,0-1.79,1.16-1.3,2.13.06.12.13.25.2.37.95,1.67,2.33,2.96,4.16,3.89,1.82.92,3.99,1.39,6.51,1.39,1.75,0,3.3-.26,4.66-.77,1.02-.39,2.11-.98,3.26-1.77.25-.17.54-.26.83-.26.46,0,.9.21,1.18.61l4.14,5.85c.46.65.31,1.53-.32,2.01-1.27.98-2.59,1.81-3.98,2.48-1.8.87-3.63,1.53-5.51,1.96s-3.73.65-5.58.65c-4.52,0-8.44-.91-11.78-2.73s-5.93-4.31-7.78-7.47c-1.85-3.16-2.77-6.76-2.77-10.82,0-3.13.51-6.01,1.54-8.62,1.03-2.62,2.46-4.89,4.31-6.81,1.85-1.92,4.04-3.41,6.58-4.47,2.54-1.05,5.33-1.58,8.35-1.58m-6.83,17.02h14.76v-.08c-.1-1.28-.5-2.43-1.19-3.43-.69-1-1.6-1.78-2.73-2.35-1.13-.56-2.41-.85-3.85-.85-2,0-3.71.4-5.12,1.19-1.41.8-2.48,1.95-3.2,3.47,0,0,0,.01,0,.02-.44.94.3,2.02,1.34,2.02m6.83-22.02c-3.67,0-7.13.66-10.27,1.96-3.17,1.31-5.96,3.21-8.28,5.62-2.29,2.39-4.1,5.23-5.36,8.45-1.25,3.19-1.89,6.7-1.89,10.45,0,4.94,1.16,9.43,3.46,13.35,2.3,3.94,5.57,7.08,9.69,9.33,4.06,2.22,8.83,3.35,14.18,3.35,2.22,0,4.48-.26,6.71-.78,2.23-.52,4.43-1.3,6.56-2.34,1.69-.82,3.33-1.84,4.86-3.03,2.75-2.13,3.34-6.02,1.34-8.85l-2.54-3.59c3.19-.32,5.74-3.01,5.81-6.27l.04-1.86c.12-3.6-.4-7-1.54-10.1-1.15-3.14-2.86-5.92-5.06-8.25-2.21-2.34-4.85-4.18-7.86-5.47-3.01-1.29-6.33-1.95-9.87-1.95h0Z"/>
    </g>
    <g>
      <path class="cls-2" d="m496.12,105.05c-4.39,0-8.39-1.05-11.9-3.12-3.5-2.06-6.3-4.92-8.33-8.5-2.03-3.57-3.06-7.65-3.06-12.13s1.03-8.56,3.06-12.13c2.03-3.58,4.83-6.44,8.33-8.5,3.51-2.07,7.51-3.12,11.9-3.12,3.96,0,7.67.71,11.02,2.12,2.92,1.23,5.37,2.91,7.3,5,1.35,1.47,1.41,3.72.14,5.24l-4.88,5.83c-.75.9-1.85,1.41-3.02,1.41-1,0-1.97-.38-2.71-1.06-.38-.35-.8-.69-1.24-1.02-.76-.56-1.63-1.02-2.57-1.35-.91-.31-1.87-.48-2.87-.48-1.5,0-2.77.32-3.87.99-1.09.66-1.92,1.56-2.53,2.74-.63,1.23-.95,2.68-.95,4.32,0,1.55.32,2.9.98,4.14.64,1.21,1.5,2.13,2.61,2.82,1.1.68,2.33,1.01,3.76,1.01,1.09,0,2.09-.13,2.98-.4.87-.26,1.67-.64,2.39-1.15.43-.3.86-.66,1.26-1.05.75-.72,1.73-1.12,2.77-1.12,1.18,0,2.3.53,3.05,1.44l4.79,5.85c1.26,1.54,1.18,3.8-.2,5.25-1.89,1.99-4.33,3.62-7.27,4.83-3.4,1.4-7.08,2.11-10.93,2.11Z"/>
      <path class="cls-4" d="m496.12,60.05c3.64,0,6.99.64,10.05,1.92,2.6,1.09,4.74,2.55,6.43,4.39.5.55.54,1.38.06,1.95l-4.88,5.83c-.29.34-.69.52-1.11.52-.36,0-.73-.13-1.02-.4-.45-.41-.93-.81-1.45-1.19-.98-.72-2.05-1.28-3.23-1.69-1.18-.41-2.41-.62-3.7-.62-1.95,0-3.67.45-5.16,1.35-1.49.9-2.64,2.14-3.46,3.73-.82,1.59-1.23,3.42-1.23,5.47s.42,3.72,1.27,5.31c.85,1.59,2.01,2.85,3.5,3.77,1.49.92,3.18,1.39,5.08,1.39,1.33,0,2.57-.17,3.7-.5,1.13-.33,2.17-.83,3.12-1.5.54-.38,1.06-.81,1.56-1.29.29-.28.66-.42,1.03-.42.42,0,.83.18,1.11.53l4.79,5.85c.47.58.43,1.41-.08,1.95-1.65,1.74-3.79,3.16-6.41,4.24-3.11,1.28-6.43,1.92-9.97,1.92-3.95,0-7.5-.92-10.63-2.77-3.13-1.85-5.61-4.38-7.43-7.58-1.82-3.21-2.73-6.84-2.73-10.9s.91-7.69,2.73-10.9c1.82-3.21,4.3-5.74,7.43-7.58,3.13-1.85,6.67-2.77,10.63-2.77m0-5c-4.84,0-9.27,1.17-13.17,3.47-3.88,2.29-6.99,5.46-9.24,9.42-2.25,3.95-3.39,8.45-3.39,13.36s1.14,9.41,3.39,13.36c2.25,3.96,5.36,7.13,9.24,9.42,3.89,2.3,8.33,3.47,13.17,3.47,4.18,0,8.18-.77,11.88-2.3,3.27-1.35,6-3.17,8.13-5.42,2.24-2.36,2.38-6.04.32-8.56l-4.79-5.85c-1.23-1.5-3.04-2.36-4.98-2.36-1.68,0-3.28.64-4.5,1.82-.31.3-.64.57-.97.8-.51.36-1.05.62-1.66.8-.67.2-1.43.3-2.28.3-.97,0-1.75-.2-2.45-.63-.74-.46-1.29-1.06-1.73-1.88-.46-.86-.68-1.83-.68-2.96,0-1.26.22-2.29.67-3.17.4-.77.91-1.33,1.61-1.75.7-.42,1.54-.63,2.57-.63.73,0,1.4.11,2.05.34.71.25,1.34.57,1.91,1,.37.27.71.56,1.02.84,1.21,1.11,2.77,1.73,4.41,1.73,1.91,0,3.71-.84,4.94-2.31l4.88-5.83c2.08-2.48,1.98-6.15-.22-8.54-2.17-2.36-4.92-4.24-8.17-5.61-3.66-1.54-7.69-2.32-11.99-2.32h0Z"/>
    </g>
    <g>
      <path class="cls-2" d="m528.37,104.28c-2.18,0-3.96-1.77-3.96-3.96v-26.15h-3.28c-2.18,0-3.96-1.77-3.96-3.96v-7.87c0-2.18,1.78-3.96,3.96-3.96h3.28v-6.36c0-2.18,1.78-3.96,3.96-3.96h9.41c2.18,0,3.96,1.77,3.96,3.96v6.36h3.97c2.18,0,3.96,1.77,3.96,3.96v7.87c0,2.18-1.77,3.96-3.96,3.96h-3.97v26.15c0,2.18-1.77,3.96-3.96,3.96h-9.41Z"/>
      <path class="cls-4" d="m537.78,50.58c.8,0,1.46.65,1.46,1.46v7.41c0,.8.65,1.46,1.46,1.46h5.02c.8,0,1.46.65,1.46,1.46v7.87c0,.8-.65,1.46-1.46,1.46h-5.02c-.8,0-1.46.65-1.46,1.46v27.19c0,.8-.65,1.46-1.46,1.46h-9.41c-.8,0-1.46-.65-1.46-1.46v-27.19c0-.8-.65-1.46-1.46-1.46h-4.32c-.8,0-1.46-.65-1.46-1.46v-7.87c0-.8.65-1.46,1.46-1.46h4.32c.8,0,1.46-.65,1.46-1.46v-7.41c0-.8.65-1.46,1.46-1.46h9.41m0-5h-9.41c-3.56,0-6.46,2.9-6.46,6.46v3.86h-.78c-3.56,0-6.46,2.9-6.46,6.46v7.87c0,3.56,2.9,6.46,6.46,6.46h.78v23.65c0,3.56,2.9,6.46,6.46,6.46h9.41c3.56,0,6.46-2.9,6.46-6.46v-23.65h1.47c3.56,0,6.46-2.9,6.46-6.46v-7.87c0-3.56-2.9-6.46-6.46-6.46h-1.47v-3.86c0-3.56-2.9-6.46-6.46-6.46h0Z"/>
    </g>
    <g>
      <path class="cls-8" d="m576.43,105.05c-4.67,0-8.91-1.04-12.58-3.09-3.68-2.05-6.63-4.89-8.77-8.43-2.16-3.56-3.25-7.68-3.25-12.23s1.09-8.66,3.25-12.23c2.15-3.54,5.1-6.38,8.78-8.44,3.67-2.05,7.9-3.09,12.58-3.09s8.9,1.04,12.58,3.09c3.68,2.06,6.62,4.9,8.74,8.45,2.13,3.56,3.2,7.67,3.2,12.22s-1.08,8.65-3.2,12.21c-2.12,3.55-5.06,6.39-8.75,8.45-3.67,2.05-7.9,3.09-12.58,3.09Zm0-31.96c-1.38,0-2.57.33-3.63,1-1.08.69-1.91,1.61-2.53,2.83-.64,1.25-.93,2.66-.89,4.31v.13c-.04,1.64.25,3.03.88,4.26.62,1.2,1.45,2.12,2.54,2.81,1.07.67,2.25,1,3.63,1s2.54-.32,3.58-.99c1.07-.69,1.9-1.61,2.52-2.82.63-1.22.92-2.61.88-4.26v-.12c.04-1.65-.25-3.06-.88-4.31-.62-1.22-1.44-2.15-2.51-2.84-1.03-.67-2.2-.99-3.58-.99Z"/>
      <path class="cls-4" d="m576.43,60.05c4.26,0,8.05.92,11.36,2.77,3.31,1.85,5.92,4.36,7.82,7.55,1.9,3.18,2.85,6.83,2.85,10.93s-.95,7.75-2.85,10.93c-1.9,3.18-4.5,5.7-7.82,7.55-3.31,1.85-7.1,2.77-11.36,2.77s-8.05-.92-11.36-2.77c-3.31-1.85-5.93-4.36-7.85-7.55-1.92-3.18-2.89-6.83-2.89-10.93s.96-7.75,2.89-10.93c1.93-3.18,4.54-5.7,7.85-7.55,3.31-1.85,7.1-2.77,11.36-2.77m0,31.88c1.85,0,3.49-.46,4.93-1.39,1.44-.92,2.57-2.18,3.39-3.77.82-1.59,1.21-3.41,1.15-5.47.05-2.05-.33-3.89-1.15-5.51-.82-1.62-1.95-2.89-3.39-3.81-1.44-.92-3.08-1.39-4.93-1.39s-3.5.46-4.97,1.39-2.61,2.19-3.43,3.81c-.82,1.62-1.21,3.45-1.16,5.51-.05,2.05.33,3.88,1.16,5.47.82,1.59,1.96,2.85,3.43,3.77,1.46.92,3.12,1.39,4.97,1.39m0-36.88c-5.1,0-9.75,1.15-13.79,3.41-4.06,2.27-7.32,5.4-9.7,9.32-2.4,3.96-3.61,8.51-3.61,13.52s1.21,9.56,3.61,13.52c2.37,3.92,5.63,7.06,9.7,9.32,4.05,2.26,8.69,3.41,13.79,3.41s9.75-1.15,13.8-3.41c4.07-2.27,7.33-5.42,9.67-9.35,2.36-3.96,3.56-8.5,3.56-13.5s-1.2-9.54-3.56-13.5c-2.35-3.93-5.6-7.08-9.67-9.35-4.05-2.26-8.69-3.41-13.79-3.41h0Zm0,31.88c-.9,0-1.63-.19-2.3-.61-.72-.45-1.24-1.03-1.65-1.84-.44-.84-.63-1.84-.6-3.05v-.13s0-.13,0-.13c-.03-1.22.17-2.24.61-3.11.42-.82.94-1.41,1.64-1.85.66-.42,1.39-.61,2.3-.61s1.6.19,2.22.59c.69.45,1.21,1.04,1.64,1.87.44.87.64,1.89.61,3.12v.12s0,.12,0,.12c.03,1.21-.17,2.21-.6,3.05-.42.81-.95,1.41-1.65,1.86-.63.4-1.33.59-2.22.59h0Z"/>
    </g>
    <g>
      <path class="cls-8" d="m618.62,104.28c-2.65,0-4.81-2.16-4.81-4.81v-49.28c0-2.65,2.16-4.81,4.81-4.81h8.47c2.65,0,4.81,2.16,4.81,4.81v37.54h19.21c2.65,0,4.81,2.16,4.81,4.81v6.93c0,2.65-2.16,4.81-4.81,4.81h-32.5Z"/>
      <path class="cls-4" d="m627.1,47.89c1.28,0,2.31,1.03,2.31,2.31v37.73c0,1.28,1.03,2.31,2.31,2.31h19.41c1.28,0,2.31,1.03,2.31,2.31v6.93c0,1.28-1.03,2.31-2.31,2.31h-32.49c-1.28,0-2.31-1.03-2.31-2.31v-49.28c0-1.28,1.03-2.31,2.31-2.31h8.47m0-5h-8.47c-4.03,0-7.31,3.28-7.31,7.31v49.28c0,4.03,3.28,7.31,7.31,7.31h32.49c4.03,0,7.31-3.28,7.31-7.31v-6.93c0-4.03-3.28-7.31-7.31-7.31h-16.71v-35.04c0-4.03-3.28-7.31-7.31-7.31h0Z"/>
    </g>
    <g>
      <path class="cls-5" d="m690.08,105.05c-4.61,0-8.86-.76-12.63-2.26-3.79-1.51-7.11-3.66-9.85-6.41-2.75-2.75-4.88-6.03-6.33-9.75-1.44-3.69-2.17-7.74-2.17-12.04s.78-8.36,2.31-12.02c1.54-3.66,3.76-6.91,6.62-9.65,2.85-2.74,6.25-4.88,10.11-6.38,3.84-1.49,8.07-2.25,12.57-2.25,3.2,0,6.27.42,9.13,1.25,2.85.83,5.48,1.98,7.82,3.43,1.59.99,3.04,2.09,4.31,3.3,1.9,1.8,1.97,4.83.15,6.76l-4.9,5.19c-.9.95-2.17,1.5-3.48,1.5-1.1,0-2.19-.38-3.05-1.08-.68-.55-1.38-1.04-2.07-1.46-1.18-.71-2.47-1.29-3.81-1.72-1.29-.41-2.69-.61-4.17-.61-1.9,0-3.65.34-5.19,1.02-1.57.69-2.96,1.65-4.13,2.87-1.17,1.21-2.1,2.67-2.74,4.33-.65,1.68-.98,3.53-.98,5.52s.35,3.83,1.04,5.52c.69,1.69,1.66,3.17,2.86,4.39,1.2,1.22,2.66,2.21,4.32,2.92,1.65.71,3.46,1.07,5.37,1.07,1.29,0,2.52-.21,3.65-.62,1.12-.41,2.1-.96,2.89-1.63.68-.57,1.22-1.23,1.66-1.99h-7.51c-2.65,0-4.81-2.16-4.81-4.81v-5.62c0-2.65,2.16-4.81,4.81-4.81h20.94c2.55,0,4.66,1.98,4.8,4.52v.2c.06.96.1,1.93.13,2.87.03.96.04,1.67.04,2.15,0,3.82-.7,7.38-2.09,10.58-1.39,3.21-3.36,6.01-5.86,8.34-2.49,2.32-5.45,4.14-8.82,5.43-3.35,1.29-7.02,1.94-10.9,1.94Z"/>
      <path class="cls-4" d="m690.7,46.81c2.98,0,5.79.38,8.43,1.15,2.64.77,5.04,1.82,7.2,3.16,1.46.9,2.76,1.9,3.91,2.99.91.86.91,2.32.05,3.23l-4.9,5.19c-.45.48-1.05.72-1.66.72-.52,0-1.04-.17-1.48-.53-.77-.62-1.55-1.17-2.35-1.65-1.36-.82-2.81-1.48-4.35-1.96-1.54-.49-3.18-.73-4.93-.73-2.26,0-4.33.41-6.2,1.23-1.88.82-3.52,1.96-4.93,3.43-1.41,1.46-2.5,3.18-3.27,5.16-.77,1.98-1.16,4.12-1.16,6.43s.41,4.47,1.23,6.47,1.95,3.73,3.39,5.2c1.44,1.46,3.14,2.62,5.12,3.47,1.98.85,4.09,1.27,6.35,1.27,1.59,0,3.09-.26,4.5-.77,1.41-.51,2.63-1.21,3.66-2.08,1.03-.87,1.85-1.91,2.46-3.12l1.04-2.05c.29-.56-.12-1.23-.75-1.23h-10.22c-1.28,0-2.31-1.03-2.31-2.31v-5.62c0-1.28,1.03-2.31,2.31-2.31h20.94c1.22,0,2.24.94,2.31,2.16,0,.05,0,.1,0,.15.05.98.09,1.93.12,2.85.03.92.04,1.62.04,2.08,0,3.49-.63,6.69-1.89,9.59-1.26,2.9-3.02,5.4-5.27,7.51-2.26,2.11-4.93,3.75-8.01,4.93-3.08,1.18-6.42,1.77-10.01,1.77-4.31,0-8.21-.69-11.7-2.08-3.49-1.39-6.49-3.34-9.01-5.85-2.52-2.51-4.44-5.48-5.77-8.89-1.34-3.41-2-7.12-2-11.13s.71-7.69,2.12-11.05c1.41-3.36,3.43-6.3,6.04-8.82,2.62-2.51,5.71-4.47,9.28-5.85,3.57-1.39,7.46-2.08,11.67-2.08m0-5c-4.81,0-9.35.81-13.48,2.42-4.17,1.62-7.84,3.94-10.93,6.91-3.1,2.98-5.52,6.51-7.19,10.49-1.66,3.96-2.51,8.33-2.51,12.99s.79,8.97,2.35,12.95c1.58,4.04,3.9,7.61,6.9,10.61,2.99,2.99,6.59,5.33,10.7,6.96,4.06,1.61,8.62,2.43,13.55,2.43,4.19,0,8.16-.71,11.8-2.1,3.67-1.4,6.91-3.4,9.63-5.94,2.75-2.57,4.92-5.65,6.45-9.18,1.53-3.52,2.3-7.42,2.3-11.58,0-.49-.01-1.23-.04-2.22-.03-.98-.07-1.97-.12-2.97v-.19c-.23-3.85-3.44-6.86-7.31-6.86h-4.38c.21-.18.42-.37.61-.57l4.9-5.19c2.77-2.93,2.66-7.55-.25-10.29-1.39-1.32-2.98-2.53-4.71-3.6-2.53-1.57-5.37-2.81-8.43-3.71-3.09-.9-6.4-1.35-9.83-1.35h0Zm-2.95,43.69c-.33-.1-.65-.22-.97-.36-1.38-.59-2.54-1.37-3.52-2.37-.99-1.01-1.75-2.18-2.33-3.59-.58-1.41-.86-2.9-.86-4.57s.27-3.21.81-4.61c.53-1.37,1.26-2.51,2.21-3.5.96-1,2.06-1.76,3.34-2.32,1.25-.55,2.62-.81,4.19-.81,1.22,0,2.37.17,3.42.5,1.16.37,2.26.86,3.27,1.48.57.34,1.14.74,1.7,1.19h-7.17c-4.03,0-7.31,3.28-7.31,7.31v5.62c0,2.51,1.27,4.73,3.2,6.04h0Z"/>
    </g>
    <g>
      <path class="cls-5" d="m730.97,104.28c-2.65,0-4.81-2.16-4.81-4.81v-49.28c0-2.65,2.16-4.81,4.81-4.81h21.48c4,0,7.48.59,10.34,1.76,3.03,1.24,5.37,3.08,6.95,5.48,1.58,2.38,2.38,5.24,2.38,8.5,0,3.6-.92,6.71-2.74,9.24-.43.6-.92,1.17-1.45,1.68.14.1.28.2.42.3,2.08,1.51,3.72,3.4,4.87,5.61,1.16,2.23,1.75,4.75,1.75,7.51,0,3.07-.54,5.81-1.61,8.16-1.08,2.38-2.67,4.41-4.72,6.04-2,1.59-4.35,2.77-6.99,3.53-2.54.73-5.38,1.1-8.42,1.1h-22.25Zm21.79-15.93c1.07,0,1.94-.16,2.61-.46.56-.26.97-.61,1.28-1.1.31-.49.46-1.14.46-1.94,0-.65-.14-1.15-.42-1.55-.31-.43-.77-.77-1.41-1.03-.77-.31-1.75-.47-2.91-.47h-8.9v6.55h9.28Zm-2.16-21.33c.97,0,1.77-.14,2.38-.43.49-.23.84-.52,1.07-.88.24-.39.36-.92.36-1.58,0-1.15-.43-1.66-.8-1.98-.65-.55-1.85-.84-3.47-.84h-6.66v5.7h7.12Z"/>
      <path class="cls-4" d="m752.45,47.89c3.7,0,6.83.53,9.39,1.58,2.57,1.05,4.5,2.57,5.81,4.54,1.31,1.98,1.96,4.35,1.96,7.12,0,3.08-.76,5.67-2.27,7.78-.39.54-.83,1.04-1.31,1.49-1.08,1.01-.97,2.79.28,3.59.19.12.38.25.56.39,1.77,1.28,3.14,2.86,4.12,4.74.97,1.87,1.46,3.99,1.46,6.35,0,2.72-.46,5.1-1.39,7.12-.92,2.03-2.26,3.73-4,5.12-1.75,1.39-3.79,2.41-6.12,3.08-2.34.67-4.92,1-7.74,1h-22.25c-1.28,0-2.31-1.03-2.31-2.31v-49.28c0-1.28,1.03-2.31,2.31-2.31h21.48m-10.12,21.64h8.27c1.33,0,2.48-.22,3.43-.65.95-.44,1.67-1.05,2.16-1.85.49-.79.73-1.76.73-2.89,0-1.64-.57-2.94-1.69-3.89-1.13-.95-2.82-1.42-5.08-1.42h-7.81c-.75,0-1.35.61-1.35,1.35v7.99c0,.75.61,1.35,1.35,1.35m0,21.33h10.43c1.44,0,2.66-.23,3.66-.69s1.78-1.14,2.35-2.04c.56-.9.85-1.99.85-3.27,0-1.18-.3-2.18-.89-3-.59-.82-1.42-1.45-2.5-1.89-1.08-.44-2.36-.65-3.85-.65h-10.04c-.75,0-1.35.61-1.35,1.35v8.84c0,.75.61,1.35,1.35,1.35m10.12-47.97h-21.48c-4.03,0-7.31,3.28-7.31,7.31v49.28c0,4.03,3.28,7.31,7.31,7.31h22.25c3.28,0,6.34-.4,9.11-1.19,2.95-.84,5.6-2.18,7.86-3.97,2.36-1.88,4.2-4.22,5.44-6.96,1.22-2.67,1.84-5.77,1.84-9.2,0-3.16-.68-6.07-2.03-8.66-1-1.93-2.32-3.64-3.94-5.11,2.07-2.94,3.12-6.49,3.12-10.56,0-3.76-.94-7.08-2.8-9.88-1.87-2.82-4.59-4.97-8.08-6.41-3.16-1.3-6.96-1.95-11.29-1.95h0Zm-6.47,20.93h4.16c1.03,0,1.56.14,1.77.22,0,.03,0,.06,0,.09,0,.09,0,.15,0,.21-.16.07-.55.18-1.31.18h-4.62v-.7h0Zm0,20.48h6.4c1.04,0,1.65.16,1.98.29.13.05.21.1.26.13,0,.03,0,.07,0,.13,0,.45-.08.61-.08.61-.03.05-.06.09-.21.16-.15.07-.61.23-1.56.23h-6.78v-1.55h0Z"/>
    </g>
    <g>
      <path class="cls-11" d="m798.88,104.28c-2.65,0-4.81-2.16-4.81-4.81v-37.54h-11.21c-2.65,0-4.81-2.16-4.81-4.81v-6.93c0-2.65,2.16-4.81,4.81-4.81h40.89c2.65,0,4.81,2.16,4.81,4.81v6.93c0,2.65-2.16,4.81-4.81,4.81h-11.59v37.54c0,2.65-2.16,4.81-4.81,4.81h-8.47Z"/>
      <path class="cls-4" d="m823.75,47.89c1.28,0,2.31,1.03,2.31,2.31v6.93c0,1.28-1.03,2.31-2.31,2.31h-12.58c-.84,0-1.52.68-1.52,1.52v38.52c0,1.28-1.03,2.31-2.31,2.31h-8.47c-1.28,0-2.31-1.03-2.31-2.31v-38.52c0-.84-.68-1.52-1.52-1.52h-12.19c-1.28,0-2.31-1.03-2.31-2.31v-6.93c0-1.28,1.03-2.31,2.31-2.31h40.89m0-5h-40.89c-4.03,0-7.31,3.28-7.31,7.31v6.93c0,4.03,3.28,7.31,7.31,7.31h8.71v35.04c0,4.03,3.28,7.31,7.31,7.31h8.47c4.03,0,7.31-3.28,7.31-7.31v-35.04h9.09c4.03,0,7.31-3.28,7.31-7.31v-6.93c0-4.03-3.28-7.31-7.31-7.31h0Z"/>
    </g>
    <g>
      <path class="cls-11" d="m852.89,98.47c-2.38,0-4.31-1.93-4.31-4.31v-9.47h-9.47c-2.38,0-4.31-1.93-4.31-4.31v-5.47c0-2.38,1.93-4.31,4.31-4.31h9.47v-9.47c0-2.38,1.93-4.31,4.31-4.31h6.32c2.38,0,4.31,1.93,4.31,4.31v9.47h9.55c2.38,0,4.31,1.93,4.31,4.31v5.47c0,2.38-1.93,4.31-4.31,4.31h-9.55v9.47c0,2.38-1.93,4.31-4.31,4.31h-6.32Z"/>
      <path class="cls-4" d="m859.2,58.82c1.28,0,2.31,1.03,2.31,2.31v10.05c0,.79.64,1.42,1.42,1.42h10.13c1.28,0,2.31,1.03,2.31,2.31v5.47c0,1.28-1.03,2.31-2.31,2.31h-10.13c-.79,0-1.42.64-1.42,1.42v10.05c0,1.28-1.03,2.31-2.31,2.31h-6.32c-1.28,0-2.31-1.03-2.31-2.31v-10.05c0-.79-.64-1.42-1.42-1.42h-10.05c-1.28,0-2.31-1.03-2.31-2.31v-5.47c0-1.28,1.03-2.31,2.31-2.31h10.05c.79,0,1.42-.64,1.42-1.42v-10.05c0-1.28,1.03-2.31,2.31-2.31h6.32m0-4h-6.32c-3.48,0-6.31,2.83-6.31,6.31v7.47h-7.47c-3.48,0-6.31,2.83-6.31,6.31v5.47c0,3.48,2.83,6.31,6.31,6.31h7.47v7.47c0,3.48,2.83,6.31,6.31,6.31h6.32c3.48,0,6.31-2.83,6.31-6.31v-7.47h7.55c3.48,0,6.31-2.83,6.31-6.31v-5.47c0-3.48-2.83-6.31-6.31-6.31h-7.55v-7.47c0-3.48-2.83-6.31-6.31-6.31h0Z"/>
    </g>
  </g>
</svg>