<?xml version="1.0" encoding="UTF-8" standalone="no"?>
<svg
   data-name="Layer 1"
   viewBox="0 0 799.99998 499.99999"
   version="1.1"
   id="svg24"
   sodipodi:docname="Wikipedia_20_pink_star.svg"
   inkscape:version="1.1.2 (0a00cf5339, 2022-02-04)"
   width="800"
   height="500"
   xmlns:inkscape="http://www.inkscape.org/namespaces/inkscape"
   xmlns:sodipodi="http://sodipodi.sourceforge.net/DTD/sodipodi-0.dtd"
   xmlns="http://www.w3.org/2000/svg"
   xmlns:svg="http://www.w3.org/2000/svg">
  <defs
     id="defs28" />
  <sodipodi:namedview
     id="namedview26"
     pagecolor="#ffffff"
     bordercolor="#666666"
     borderopacity="1.0"
     inkscape:pageshadow="2"
     inkscape:pageopacity="0.0"
     inkscape:pagecheckerboard="0"
     showgrid="false"
     inkscape:zoom="0.76882435"
     inkscape:cx="368.74482"
     inkscape:cy="441.58331"
     inkscape:window-width="1920"
     inkscape:window-height="1016"
     inkscape:window-x="1920"
     inkscape:window-y="27"
     inkscape:window-maximized="1"
     inkscape:current-layer="svg24"
     width="800px"
     height="550.89001px" />
  <path
     fill="#e9e7c4"
     d="M -11.093764,-3.3990132 -11.135374,505.74771 804.8176,506.60099 804.15193,-2.5880086 Z"
     class="cls-1"
     id="path2"
     sodipodi:nodetypes="ccccc"
     style="fill:#ffe3ea;fill-opacity:1;stroke-width:1.02658" />
  <g
     fill="#ffcc00"
     stroke-width="0.730432"
     transform="matrix(1.303702,0,0,1.303702,841.09422,87.590857)"
     id="g8">
    <path
       fill="#f0bc00"
       d="m -184.99692,149.37676 -7.3,1.99001 -23.95,-43.07 9.6,-5.34 15.97,28.69999 5.55,-16.69999 5.97,-1.64 12.98,11.26 -2.45,-31.800005 10.96,-0.84 3.79,49.150005 -7.63,2.08 -16.63,-14.41 z"
       class="st2"
       id="path4" />
    <path
       fill="#f0bc00"
       d="m -224.56484,108.34494 22.65311,-12.158199 5.19714,9.683299 -22.65311,12.1582 z m 46.53794,-20.765888 26.90577,-3.142612 1.27491,10.91526 -26.90577,3.142612 z m -22.74351,59.774208 21.37867,-5.55797 2.76514,10.63611 -21.37867,5.55797 z m 30.95303,-6.67632 19.90603,-8.91149 4.49047,10.03059 -19.90602,8.91149 z m 18.93834,-35.38503 11.10053,-6.727484 2.51892,4.156284 -11.10053,6.72748 z m 4.47496,8.83236 10.19883,-2.36621 1.09836,4.73412 -10.19883,2.36621 z m 0.0495,13.51249 1.65427,-4.56988 10.76649,3.89742 -1.65427,4.56988 z m -80.33423,4.45975 0.68089,-4.81188 12.84159,1.81711 -0.68089,4.81189 z m 2.43921,8.75818 10.49891,-3.57208 1.5654,4.60097 -10.49891,3.57207 z m 5.50026,14.97263 9.60665,-10.19789 3.53759,3.33249 -9.60664,10.19789 z"
       class="st2"
       id="path6" />
  </g>
  <path
     fill="#028b3f"
     d="m 315.31813,34.411552 c 2.15122,17.655445 1.06743,35.374075 -3.21706,52.642705 -5.04146,20.311513 -14.54052,34.411213 -27.4803,40.784603 -2.72487,1.34625 -6.44171,2.70184 -10.49299,2.88771 -9.52603,14.46066 -29.74575,18.97645 -45.46633,15.60563 l 1.19433,-5.58635 c 16.51359,3.53301 30.42237,-2.37414 37.6971,-10.87997 -5.67558,-1.91367 -9.82636,-6.97617 -10.02176,-12.41031 -0.12334,-3.37136 1.54208,-6.86616 4.33957,-9.12415 2.53915,-2.04165 5.65499,-2.79701 8.52666,-2.04828 2.84406,0.72832 5.06095,2.59905 6.41258,5.41 1.70719,3.54312 1.83994,8.49754 0.42944,12.83408 1.82339,-0.4459 3.49657,-1.13741 4.86353,-1.80554 14.37606,-7.0954 21.22946,-24.058943 24.44954,-37.050613 4.11827,-16.59022 5.15858,-33.605444 3.08847,-50.570548 z m -44.39484,90.411518 c 0.14784,-0.29794 0.28572,-0.58682 0.42406,-0.88524 1.40068,-3.14529 1.54189,-7.25706 0.31962,-9.78527 -0.61519,-1.27861 -1.49343,-2.04555 -2.68901,-2.36066 -1.1204,-0.2924 -2.39614,0.0655 -3.51685,0.96482 -1.39849,1.12424 -2.2747,2.88384 -2.21728,4.45968 0.11935,3.25677 3.05424,6.4492 6.83075,7.41318 0.27262,0.0799 0.56519,0.14168 0.84871,0.19349 z"
     class="st3"
     id="path10"
     style="stroke-width:0.952268" />
  <path
     fill="#0154d5"
     d="m 592.09514,45.606054 10.23197,-21.938557 8.41467,3.924537 -10.23198,21.938557 z m 22.43425,20.441431 18.96272,-12.307008 5.05448,7.787976 -18.96272,12.306994 z m 21.41593,34.546415 19.665,-5.127103 2.34253,8.984703 -19.66501,5.12712 z m 10.46321,38.23213 20.45789,-2.12494 0.95918,9.23447 -20.45788,2.12494 z"
     id="path12"
     style="stroke-width:0.952268" />
  <path
     fill="#049dff"
     d="m 600.67818,369.21212 5.13629,-5.56758 14.95534,14.75051 -5.13628,5.56758 z m -19.05522,16.27022 6.79712,-3.13192 6.88122,15.96644 -6.79713,3.13192 z m -29.74439,7.78377 7.24716,-1.74709 4.62188,20.49741 -7.24716,1.74708 z M 250.28423,41.351297 l 7.21298,-1.892457 4.53341,18.473146 -7.21299,1.892469 z m -28.82054,3.521587 6.57909,-3.595155 8.29481,16.228737 -6.57906,3.595143 z m -26.35746,15.568161 6.1825,-4.281751 9.30137,14.358803 -6.18251,4.28174 -2.98711,-4.61131 z m -23.49777,22.003932 3.88502,-6.56245 18.59765,11.77103 -3.88504,6.56244 z m 469.34835,271.366303 -4.87844,5.81032 -16.70245,-14.99307 4.87846,-5.81031 z"
     id="path14"
     sodipodi:nodetypes="ccccccccccccccccccccccccccccccccccccccccc"
     style="stroke-width:0.776074" />
  <path
     fill="#0154d5"
     d="m 116.82418,364.09146 16.90521,-17.47204 6.67947,6.4628 -16.90522,17.47204 z m 27.97765,34.99068 13.309,-20.76482 7.81688,5.01013 -13.30899,20.76486 z m 28.96955,31.98038 12.17314,-21.76661 8.11157,4.53645 -12.17313,21.76662 z m 36.966,21.24383 8.90412,-23.56983 8.68503,3.28099 -8.90412,23.56983 z"
     id="path16"
     style="stroke-width:0.952268" />
  <path
     fill="#028b3f"
     d="m 455.81401,72.525077 -2.12163,-5.309215 c 10.46397,-4.168927 21.98216,-3.138509 30.08835,2.704225 4.45327,3.21492 7.56808,7.9088 9.04627,12.95697 13.22837,-3.05803 28.81243,1.45829 40.24725,12.21963 10.31328,9.726413 17.57823,23.593443 22.86243,43.665913 2.50939,9.51886 4.45506,20.54545 -0.0442,30.2138 l -5.1767,-2.41238 c 3.72888,-8.01893 1.93931,-17.82078 -0.30399,-26.34749 -4.99808,-18.99482 -11.75635,-32.00662 -21.25503,-40.962593 -10.16237,-9.56653 -23.92282,-13.56545 -35.37573,-10.74886 0.16226,3.63126 -0.53951,7.22389 -2.21453,10.39716 -1.44709,2.746543 -3.34615,4.400173 -5.62408,4.915123 -2.19243,0.49497 -4.44342,-0.20779 -6.15936,-1.9289 -2.01808,-2.019583 -2.91771,-5.052943 -2.31083,-7.722763 0.79803,-3.48044 3.4527,-6.37482 7.88201,-8.61197 0.66517,-0.33068 1.3386,-0.64418 2.02442,-0.93194 -1.11615,-3.92254 -3.52222,-7.60479 -6.93906,-10.07145 -6.42509,-4.63325 -16.09834,-5.43131 -24.62561,-2.02526 z m 32.24093,18.06977 c -0.0429,0.0207 -0.0858,0.0413 -0.12008,0.0579 -1.95707,0.98407 -4.38395,2.61693 -4.88109,4.79009 -0.16889,0.74706 0.16042,1.78276 0.7898,2.40986 0.21827,0.212 0.53822,0.45961 0.84171,0.38755 0.55138,-0.12795 1.22679,-0.85457 1.83209,-2.01241 0.90761,-1.71549 1.40946,-3.63728 1.53763,-5.63289 z"
     class="st3"
     id="path18"
     style="stroke-width:0.952268" />
  <path
     fill="#e679a6"
     stroke="#dc0816"
     stroke-linecap="round"
     stroke-linejoin="round"
     stroke-width="5.8965"
     d="m 516.96366,302.72722 c -24.69931,17.16756 -54.02236,21.79231 -83.99237,25.46233 -17.15371,19.01791 -31.02586,41.55096 -58.21275,49.82161 -16.0002,-17.95683 -33.87632,-34.655 -39.77522,-59.38917 -27.77252,-2.48543 -48.89426,-15.28654 -70.61751,-33.64426 8.8738,-28.44442 31.295,-35.41047 50.28501,-54.55846 -10.39084,-28.81943 -1.54437,-51.88951 10.19331,-80.09489 34.44557,2.13168 51.69571,17.24556 75.22847,35.15017 32.75564,-22.31787 53.3483,-16.35253 88.8001,-23.48566 -7.81908,32.93156 8.21167,52.87376 -15.67401,83.91101 16.25584,18.6152 36.6487,30.20759 43.76497,56.82732 z"
     id="path20"
     sodipodi:nodetypes="ccccccccccc" />
  <path
     fill="#028b3f"
     d="m 299.67572,399.50842 -3.38736,4.41074 c -2.39046,-2.2471 -4.55297,-1.99585 -8.14648,-1.34888 -3.59353,0.647 -7.9269,1.42717 -12.26563,-2.60362 -4.33873,-4.03079 -4.31636,-8.95444 -4.33403,-12.8832 -0.0177,-3.92875 -0.13484,-6.40724 -2.53387,-8.65513 -2.39904,-2.24788 -4.55383,-1.98633 -8.14736,-1.33933 -3.59352,0.64698 -7.92689,1.42716 -12.26563,-2.60365 -4.33873,-4.03079 -4.31547,-8.96394 -4.33403,-12.88317 -0.0186,-3.91924 -0.13485,-6.40726 -2.53388,-8.65514 -2.39902,-2.24788 -4.54523,-1.98551 -8.14734,-1.33935 -3.60213,0.64618 -7.92692,1.42717 -12.26562,-2.60362 -4.33874,-4.03082 -4.30425,-8.99174 -4.32984,-12.8348 -0.0256,-3.84307 -0.13487,-6.40725 -2.53387,-8.65513 -2.39905,-2.24788 -4.55386,-1.98632 -8.14738,-1.33934 -3.59353,0.64699 -7.9269,1.42716 -12.26563,-2.60362 -4.33872,-4.03083 -4.31634,-8.95445 -4.32542,-12.8824 -0.01,-3.92797 -0.13574,-6.39776 -2.53476,-8.64564 l 3.38737,-4.41072 c 4.29579,4.02683 4.31545,8.96396 4.32102,12.93001 0.006,3.96601 0.13575,6.39771 2.53475,8.6456 2.39905,2.24787 4.55383,1.98632 8.1465,1.34886 3.59265,-0.63746 7.92778,-1.43668 12.26651,2.5941 4.33871,4.03082 4.31633,8.95446 4.32542,12.88241 0.01,3.92794 0.13486,6.40725 2.54247,8.65591 2.40762,2.24869 4.54523,1.98553 8.13877,1.33855 3.59353,-0.64698 7.96982,-1.42318 12.26562,2.60363 4.29578,4.02684 4.31635,8.95445 4.33402,12.88319 0.0177,3.92878 0.13485,6.40726 2.53476,8.64564 2.39991,2.23833 4.55294,1.99582 8.14647,1.34884 3.59355,-0.64698 7.92691,-1.42717 12.26564,2.60365 4.33872,4.03079 4.31547,8.96395 4.32962,12.93078 0.0142,3.96685 0.13574,6.39774 2.53474,8.64562 2.39904,2.24788 4.55384,1.98629 8.1465,1.34883 3.59264,-0.63746 7.97621,-1.5858 12.27795,2.47038 z"
     class="cls-1"
     id="path22"
     style="stroke-width:0.952268" />
</svg>
