<?xml version="1.0" encoding="UTF-8" standalone="no"?>
<svg
   id="Layer_1"
   data-name="Layer 1"
   viewBox="0 0 800 500"
   version="1.1"
   sodipodi:docname="Wikipedia_tucan.svg"
   inkscape:version="1.1.2 (0a00cf5339, 2022-02-04)"
   width="800"
   height="500"
   xmlns:inkscape="http://www.inkscape.org/namespaces/inkscape"
   xmlns:sodipodi="http://sodipodi.sourceforge.net/DTD/sodipodi-0.dtd"
   xmlns="http://www.w3.org/2000/svg"
   xmlns:svg="http://www.w3.org/2000/svg">
  <sodipodi:namedview
     id="namedview73"
     pagecolor="#ffffff"
     bordercolor="#666666"
     borderopacity="1.0"
     inkscape:pageshadow="2"
     inkscape:pageopacity="0.0"
     inkscape:pagecheckerboard="0"
     showgrid="false"
     inkscape:zoom="0.54953786"
     inkscape:cx="512.2486"
     inkscape:cy="524.98658"
     inkscape:window-width="1920"
     inkscape:window-height="1016"
     inkscape:window-x="1920"
     inkscape:window-y="27"
     inkscape:window-maximized="1"
     inkscape:current-layer="_3NCvgX.tif" />
  <defs
     id="defs4">
    <style
       id="style2">
      .cls-1{fill:#eeba1c}.cls-2{fill:#ee8022}.cls-3{fill:#fff}.cls-5{fill:#dc1f26}.cls-6{fill:#e676a4}.cls-8{fill:#4a95d0}
    </style>
  </defs>
  <g
     id="_3NCvgX.tif"
     data-name="3NCvgX.tif"
     transform="matrix(0.58240536,0,0,0.5491346,0.04476705,0.07694847)">
    <path
       d="m -6.2045717,921.89888 c -3.9643093,-208.26521 2.570542,-738.81059 1.259648,-923.5220384 0,-3.4689792 1391.7775237,-0.5815536 1391.7775237,-0.5815536 0.596,0.619057 0.3538,924.040052 0.3538,924.040052 -274.0475,-0.0151 -1039.58566,7.9914 -1393.3909717,0.0628 z"
       class="cls-1"
       id="path6"
       style="fill:#b3efff;fill-opacity:1;stroke-width:1.04263"
       sodipodi:nodetypes="ccccc" />
    <path
       d="m 1198.5106,721.04427 a 1.8270857,1.8270857 0 0 1 0,-2.65991 z"
       class="cls-1"
       id="path8"
       style="stroke-width:0.849808" />
  </g>
  <path
     id="bVCdQu.tif"
     d="m 637.32522,346.3232 c -10.89295,-0.62344 -21.65037,0.0677 -32.03033,3.68244 a 63.336233,63.336233 0 0 0 -10.76712,4.88093 c 0.792,1.35803 1.58965,2.71598 2.37281,4.07874 1.00975,-0.58955 2.02436,-1.18397 3.10193,-1.72038 11.3228,-5.62035 23.47224,-6.91063 35.92096,-6.20024 2.12197,0.12081 2.12197,0.17881 2.34375,-1.85089 0.0581,-0.52191 0.0678,-1.04874 0.15486,-1.56579 0.15002,-0.88921 -0.11611,-1.25164 -1.09686,-1.30481 z M 165.97147,245.6986 c 1.40626,-0.79741 2.89954,-1.42563 4.34935,-2.1844 0.11597,-0.0629 0.20292,-0.1401 0.31414,-0.20291 a 66.854368,66.854368 0 0 1 2.05866,-11.59832 c -0.48327,-0.31888 -0.92298,-0.68618 -1.38698,-1.02452 1.53682,3.50369 0.3673,6.80432 -3.17497,8.66974 -1.55612,0.82152 -3.18472,1.51739 -4.69736,2.41626 -5.4705,3.21852 -7.24889,9.2835 -4.32515,14.94247 0.82636,1.60927 1.87501,3.09771 2.75944,4.67309 2.05865,3.67284 1.00515,7.30695 -2.6966,9.33182 -1.29513,0.70554 -2.63864,1.32415 -3.9628,1.97171 -3.47458,1.70589 -5.69276,4.38798 -6.4467,8.21543 -0.0532,0.26582 0,0.58957 -0.32858,0.72007 v 2.57578 c 0.88918,3.29583 2.75943,6.09395 4.48468,8.97413 a 7.4132288,7.4132288 0 0 1 0.86015,2.85124 c 0.10155,0.72491 -0.59925,1.60449 0.0919,2.12156 0.57022,0.43011 1.44972,0.48326 2.15534,0.69585 a 8.3990761,8.3990761 0 0 1 1.09213,0.32867 c 0.72491,0.32858 0.96654,0.0869 1.1405,-0.66209 a 11.366305,11.366305 0 0 0 -1.36278,-8.12846 c -0.74419,-1.32899 -1.62378,-2.58548 -2.36795,-3.91439 -2.15053,-3.86608 -1.11156,-7.46157 2.74492,-9.54927 1.29511,-0.70069 2.67242,-1.25648 3.97237,-1.93306 6.37904,-3.4263 8.24446,-9.98415 4.63931,-16.26656 -0.83122,-1.44982 -1.80252,-2.81743 -2.55161,-4.30104 -1.73492,-3.4408 -0.68621,-6.83813 2.63861,-8.7228 z m 472.80306,-12.23137 c -0.396,-0.51714 -0.65244,-0.90855 -0.2121,-1.61892 3.28577,-5.31589 4.48426,-11.20682 4.62459,-17.32496 a 65.071144,65.071144 0 0 0 -9.39923,-35.57284 c -5.56744,-9.28341 -13.15441,-16.25204 -23.65613,-19.64936 -1.93248,-0.6186 -1.93248,-0.60892 -2.41637,1.39659 -0.14439,0.55093 -0.27022,1.11154 -0.45411,1.65282 -0.23146,0.68618 -0.0388,1.00999 0.67668,1.22743 8.69919,2.65792 15.27639,8.21544 20.43735,15.53198 7.05547,9.99389 9.8775,21.3167 10.19689,33.78001 -0.0582,1.13565 -0.0822,2.66757 -0.23229,4.18021 a 31.411979,31.411979 0 0 1 -2.93817,10.97971 c -0.38631,0.78282 -0.68152,1.09212 -1.51223,0.37205 -0.16452,-0.1401 -0.35809,-0.2368 -0.53226,-0.36723 a 44.170073,44.170073 0 0 1 1.56623,8.52473 c 0.30889,0 0.56539,0.18841 0.89361,0.65724 6.86274,9.74734 9.46221,20.58204 7.56845,32.27212 -2.70186,16.67257 -15.88533,30.21355 -32.37875,33.90566 -1.12591,0.25124 -2.76879,0 -3.23332,0.93268 -0.4638,0.93265 0.19351,2.30028 0.27579,3.48433 0.0532,0.78282 0.34282,0.90364 1.09204,0.78766 a 45.909811,45.909811 0 0 0 9.7525,-2.68209 c 17.77419,-7.00242 29.69624,-24.02775 29.75915,-42.63815 0.004,-11.02318 -3.14142,-21.0315 -9.87832,-29.83167 z M 220.50746,425.71816 c -10.99413,-0.33343 -20.22448,-4.20433 -26.71951,-13.46366 a 23.298017,23.298017 0 0 1 -4.00622,-9.53955 c -0.1836,-1.09221 -0.6959,-1.44982 -1.63341,-1.76871 -11.34698,-4.05941 -19.17576,-11.69495 -22.90175,-23.19656 -2.9527,-9.12397 -1.96203,-18.20447 1.31447,-27.06262 4.63929,-12.502 12.52613,-22.57316 23.3222,-30.39234 0.83606,-0.60402 1.38698,-0.82154 1.933,0.28518 0.48327,0.96646 1.64797,1.86534 1.58999,2.73041 -0.0484,0.69104 -1.48362,1.29028 -2.30038,1.93301 -10.98447,8.64076 -18.71186,19.45612 -21.92555,33.2001 -3.60515,15.42084 3.09288,29.91868 16.76436,36.56347 0.0436,0 0.0821,0.0484 0.12566,0.0677 1.01485,0.41076 2.12147,1.29519 3.01551,1.11154 1.06316,-0.21752 0.71522,-1.79289 1.02453,-2.74976 1.72039,-5.35451 5.92482,-8.3218 11.05221,-7.67423 3.54226,0.44464 6.3259,2.83678 7.01209,6.02625 a 8.1381176,8.1381176 0 0 1 -3.93858,8.78572 13.89376,13.89376 0 0 1 -8.25406,1.79291 c -1.52233,-0.11598 -1.48369,0.43012 -1.0922,1.5416 2.83187,7.99313 8.42328,13.13021 16.40674,15.66246 7.17638,2.27617 14.28033,1.98623 21.16683,-1.2081 0.71039,-0.32865 1.02446,-0.18363 1.3048,0.48328 0.20293,0.48319 0.48327,0.92298 0.74417,1.38207 1.04875,1.97172 1.04875,1.97172 -1.07283,2.8996 a 32.47998,32.47998 0 0 1 -12.93207,2.59025 z m -23.94071,-27.9953 c 1.63821,-0.087 3.38281,-0.203 4.99206,-1.05832 1.60926,-0.85538 2.38732,-2.37287 2.03938,-3.86616 -0.34793,-1.49324 -1.64313,-2.35827 -3.45531,-2.41626 -2.68211,-0.12565 -4.76011,1.56094 -5.54783,4.75043 -0.66209,2.63863 -0.92307,2.34867 1.9717,2.59031 z M 151.39144,131.17528 a 37.694372,37.694372 0 0 0 23.86829,3.76948 36.408901,36.408901 0 0 0 9.78121,-2.98657 c 2.15537,-1.44973 4.34935,-2.81258 6.6352,-4.07385 a 38.09548,38.09548 0 0 0 14.57029,-28.25633 c 0.0388,-1.058325 0.3576,-1.512568 1.42084,-1.87501 Q 239.61081,86.807157 250.5277,54.820058 c 0.59924,-1.754262 0.55568,-1.768709 -1.19365,-2.266493 a 16.430878,16.430878 0 0 1 -1.78324,-0.512219 c -0.81676,-0.338331 -1.1067,-0.101561 -1.36762,0.744179 -4.50889,14.580032 -13.35733,25.849685 -26.13963,34.074789 a 54.608503,54.608503 0 0 1 -13.93724,6.417676 c -0.36245,-1.324149 -0.6186,-2.595067 -1.05355,-3.793564 -1.37248,-3.774302 -3.65824,-6.693194 -7.73216,-7.732232 -3.28135,-0.836044 -6.31622,-0.34794 -8.61652,2.3148 -2.30037,2.662821 -2.27133,5.654212 -0.96652,8.722882 1.817,4.305887 6.28234,6.799489 11.68525,6.611007 2.29061,-0.0772 2.30997,-0.0772 2.02486,2.203657 -2.87059,22.71329 -25.37125,35.0123 -45.731,26.39094 -0.99074,-0.42043 -2.02971,-1.50779 -2.94309,-1.14049 -0.91333,0.36729 -1.16947,1.87017 -1.84607,2.78356 -0.62821,0.81191 -0.31413,1.13082 0.46392,1.53673 z m 48.36964,-36.57314 c -0.28512,0 -0.57023,0.02424 -0.7442,0.03396 -3.83228,0 -6.32106,-1.527079 -7.21025,-4.349347 -0.77804,-2.498461 0.58958,-4.286517 3.1895,-4.185052 a 5.3158698,5.3158698 0 0 1 4.07391,2.044217 c 1.10663,1.357946 1.58506,2.986565 2.09253,4.634447 0.45907,1.46916 -0.0919,1.83645 -1.40149,1.817112 z m 458.55717,42.85075 c -0.16454,0.23196 -0.28552,0.43012 -0.4307,0.60407 a 14.096731,14.096731 0 0 0 -0.92749,1.08737 c -0.90896,1.34827 -1.74935,1.97655 -3.47451,0.85048 -1.60499,-1.04864 -3.61968,-0.45907 -5.46098,-0.25607 -1.84129,0.20292 -3.58582,0.48327 -5.40775,0.26092 a 10.999023,10.999023 0 0 1 -9.62185,-9.8247 c -0.21773,-1.933 -0.13551,-3.9047 -0.24597,-5.85713 -0.23229,-4.06417 -3.1995,-6.64481 -7.24906,-6.28235 -1.51788,0.13049 -3.03011,0.33341 -4.548,0.48328 -7.08451,0.73448 -12.48259,-3.91931 -12.79631,-11.0474 -0.0726,-1.66723 0.0388,-3.349 -0.16939,-4.99688 -0.52181,-4.175393 -3.38255,-6.350099 -7.57728,-5.905466 -1.75421,0.188482 -3.50838,0.401087 -5.26742,0.483278 -6.34574,0.256065 -11.30343,-4.30104 -11.62768,-10.631774 -0.0919,-1.759032 -0.0581,-3.532652 -0.21289,-5.286855 -0.36216,-4.146415 -3.42132,-6.553014 -7.57733,-6.069821 -2.17437,0.251306 -4.34954,0.65248 -6.54335,0.517142 A 10.839548,10.839548 0 0 1 558.90118,65.68863 c -0.16861,-1.802586 -0.19278,-3.614839 -0.24603,-5.427033 -0.0532,-1.720386 -0.41127,-3.329646 -1.66225,-4.586137 -0.52257,-0.526819 -0.3774,-0.860241 0.0573,-1.290356 0.33868,-0.333409 0.63795,-0.710385 0.96697,-1.067991 1.75904,-2.029706 1.75904,-2.024867 3.38257,0.222269 1.50821,2.102202 1.97681,4.499193 2.0881,7.017016 0.0774,1.75902 -0.1161,3.527812 0.2412,5.277165 a 6.2823926,6.2823926 0 0 0 6.18115,5.122564 30.107167,30.107167 0 0 0 4.54723,-0.483276 c 6.35539,-0.889194 11.81075,2.387315 13.27052,7.959364 0.53635,2.05866 0.41057,4.16569 0.48311,6.25823 0.0629,1.570625 0.0871,3.155687 0.91864,4.571616 1.44932,2.493698 4.006,3.522988 7.42728,3.049396 2.45023,-0.338256 4.91013,-0.787737 7.3894,-0.289937 a 11.008693,11.008693 0 0 1 8.80966,9.66522 c 0.2226,1.93307 0.14034,3.9047 0.24196,5.85713 0.20243,3.92407 2.86558,6.44672 6.79416,6.33551 a 38.946018,38.946018 0 0 0 4.26249,-0.45425 c 7.68376,-1.07284 13.38669,3.76462 13.57461,11.53549 0.0435,1.75902 -0.087,3.52774 0.24681,5.27717 a 6.2823926,6.2823926 0 0 0 6.00699,5.14191 32.658787,32.658787 0 0 0 4.97711,-0.48325 c 3.12684,-0.38665 6.0892,-0.034 8.69912,1.87982 0.23695,0.19818 0.47344,0.43015 0.75895,0.67662 z M 248.43033,324.36863 q -2.79808,-0.88918 -5.53817,-2.05866 c -3.15568,-1.33867 -3.12673,-1.32414 -4.62969,1.82186 -0.39625,0.82637 -0.32857,1.17915 0.55578,1.57063 a 69.546146,69.546146 0 0 0 11.69009,4.15603 c 0.58473,0.14501 1.16946,0.24647 1.75428,0.37213 a 44.286051,44.286051 0 0 1 -3.83229,-5.86199 z"
     class="cls-2"
     style="stroke-width:0.48326" />
  <path
     d="m 541.04978,336.73532 c 1.93308,5.79908 3.86608,11.55959 5.89064,17.30552 -2.03907,-5.74593 -3.96723,-11.52572 -5.89064,-17.30552 z m -234.70541,-216.08057 0.93268,0.0242 z m 11.16326,0.73458 0.37697,0.0436 z M 242.897,133.13734 c 1.01968,-0.4832 2.02971,-0.96648 3.04455,-1.42562 -1.01001,0.45914 -2.02487,0.94242 -3.04455,1.42562 z m 4.76978,-2.20845 c 1.58991,-0.70077 3.17498,-1.36285 4.74561,-1.97654 -1.56579,0.61369 -3.1557,1.28544 -4.74561,1.97654 z m 276.75399,260.41009 c -4.83261,-2.3728 -9.66522,-4.78914 -14.4012,-7.35042 4.73113,2.56128 9.55892,4.98247 14.4012,7.35042 z m 14.47849,7.07975 c -4.78914,-2.38247 -9.64103,-4.70694 -14.49784,-7.07975 4.85681,2.37281 9.7087,4.69245 14.49784,7.07975 z m 36.49613,16.70152 c -2.16548,-2.75943 -4.22377,-5.60099 -6.12797,-8.58754 1.9042,2.98655 3.96249,5.82811 6.12797,8.58754 z M 228.91138,141.03385 q 0.96654,-0.60892 1.8992,-1.20333 -0.95685,0.59441 -1.8992,1.20333 z m 9.23995,-5.45123 c 0.86023,-0.48319 1.72523,-0.90362 2.59031,-1.34342 -0.86508,0.4398 -1.73008,0.87952 -2.59031,1.34342 z"
     class="cls-3"
     id="path12"
     style="stroke-width:0.48326" />
  <path
     fill="#008a45"
     d="m 287.93689,214.852 c -8.11395,5.13708 -16.29075,10.1485 -24.10025,15.76401 -11.17294,8.00759 -21.36976,21.49543 -34.18584,27.00946 -7.86265,3.38282 -18.41223,2.48877 -22.44269,-6.28241 -4.69728,-10.23546 3.65349,-12.92722 10.1147,-16.64837 0.69589,-0.40109 14.04356,0.10635 -2.62409,-2.41626 -3.57138,-0.54127 -8.17195,1.0438 -11.04253,2.92372 -5.27726,3.45532 -7.68384,9.38005 -7.24897,15.60933 1.48844,20.47097 25.53071,20.78019 40.36681,15.67698 19.33046,-6.63035 33.82832,-21.43266 47.22914,-36.20594 6.35492,-7.01693 12.56475,-14.18856 19.6591,-20.49508 4.51363,-4.01594 9.73282,-7.29728 13.65212,-11.82544 a 6.147082,6.147082 0 0 1 -1.75427,0.83605 c -10.25963,2.9334 -18.69734,10.40464 -27.62323,16.05395 z"
     id="path14"
     style="stroke-width:0.48326" />
  <path
     d="m 233.44921,138.22126 c 0.74909,-0.43971 1.49812,-0.86984 2.25198,-1.29512 -0.72966,0.42528 -1.48361,0.85541 -2.25198,1.29512 z m 215.05122,208.27107 q 3.82743,5.48502 8.05111,10.63178 -4.22851,-5.13709 -8.05111,-10.63178 z M 224.53309,143.97695 c 0.48325,-0.34318 0.96645,-0.69111 1.47876,-1.02938 -0.49296,0.33827 -0.98591,0.6862 -1.47876,1.02938 z m 196.53742,212.28208 c -2.01035,-0.96649 -4.14151,-2.0635 -6.31622,-3.12182 2.16987,1.05832 4.30104,2.15533 6.31622,3.12182 z"
     class="cls-3"
     id="path16"
     style="stroke-width:0.48326" />
  <path
     d="m 452.26503,90.528227 c 2.18915,-5.349678 4.76979,-10.660735 6.54818,-16.17477 a 147.96486,147.96486 0 0 0 -15.30002,8.389465 c 3.20401,2.140843 6.07458,4.967884 8.75184,7.785305 z"
     class="cls-5"
     id="path18"
     style="stroke-width:0.48326" />
  <path
     d="m 421.07051,356.25903 a 42.80244,42.80244 0 0 0 5.60582,2.32448 c 2.35837,0.72975 5.06942,1.59959 7.95452,2.41636 -2.89955,-0.82638 -5.59615,-1.69628 -7.95452,-2.41636 a 42.826604,42.826604 0 0 1 -5.60582,-2.32448 z m 33.83798,7.52923 a 19.330448,19.330448 0 0 0 5.94894,-1.58506 q -2.20367,-2.48885 -4.31556,-5.0694 2.11189,2.58055 4.31556,5.0694 a 19.330448,19.330448 0 0 1 -5.94894,1.58506 z"
     class="cls-3"
     id="path20"
     style="stroke-width:0.48326" />
  <path
     d="m 398.69073,114.93777 a 5.8281338,5.8281338 0 0 1 -3.33449,-2.79323 c -1.83163,1.07283 -3.66316,2.15044 -5.45123,3.29095 -1.95717,1.24681 -3.80807,2.542 -5.65897,3.78395 12.20231,5.24823 21.05569,14.23203 26.75816,26.23143 3.04454,6.408 4.88092,12.82576 6.24854,19.27247 2.61451,-4.60548 4.68768,-9.75226 7.01217,-14.08708 q 1.93301,-3.62929 3.90954,-7.24888 a 6.5868477,6.5868477 0 0 1 -0.56538,-0.65725 c -7.31178,-10.4095 -16.37293,-23.44302 -28.91834,-27.79236 z"
     class="cls-5"
     id="path22"
     style="stroke-width:0.48326" />
  <path
     d="m 426.02878,260.31718 a 6.949292,6.949292 0 0 1 4.89545,5.91513 c 1.93307,16.26171 6.76569,32.66845 14.01458,48.04582 -7.24889,-15.37737 -12.08151,-31.78411 -14.01458,-48.04582 a 6.949292,6.949292 0 0 0 -4.89545,-5.91513 z"
     class="cls-3"
     id="path24"
     style="stroke-width:0.48326" />
  <path
     d="m 472.6877,64.87186 c -0.10647,1.449819 -0.27552,2.899627 -0.48328,4.34935 a 5.4946763,5.4946763 0 0 1 2.98655,2.580641 91.674605,91.674605 0 0 0 9.10947,13.13507 9.8053657,9.8053657 0 0 1 0,-2.633793 10.027669,10.027669 0 0 1 6.96861,-7.848137 c -0.69586,-0.251306 -1.34343,-0.560613 -2.07317,-0.778055 a 6.0552591,6.0552591 0 0 1 -4.15127,-7.311785 c 0.96655,-3.614768 2.62896,-6.765628 4.48953,-9.848808 -0.67176,0.396251 -1.36278,0.807008 -2.08285,1.241974 -2.56612,1.556108 -5.34483,3.276496 -8.44738,3.382807 -3.53749,0.135338 -5.89577,-1.324148 -7.93516,-3.271667 0,1.000335 0,2.000658 0.0289,3.001077 a 5.2095538,5.2095538 0 0 1 1.58997,4.001326 z"
     class="cls-6"
     id="path26"
     style="stroke-width:0.48326" />
  <path
     d="m 416.49405,212.89965 a 6.4950326,6.4950326 0 0 1 -3.18465,-3.94826 6.4950326,6.4950326 0 0 0 3.18465,3.94826 z m 7.05079,47.01645 a 8.0849589,8.0849589 0 0 1 2.48394,0.40592 8.0849589,8.0849589 0 0 0 -2.48394,-0.40592 z"
     class="cls-3"
     id="path28"
     style="stroke-width:0.48326" />
  <path
     d="m 431.76995,90.914877 a 6.417711,6.417711 0 0 1 -0.84572,-0.06289 c -4.64413,3.073496 -9.21092,6.098674 -13.67149,8.819499 -3.38281,2.068334 -6.86709,4.015864 -10.35142,5.944094 11.34699,5.63962 19.97803,15.88483 27.43959,26.15891 1.36278,-2.64339 2.70137,-5.31588 3.98205,-7.98832 3.30071,-6.94443 6.28243,-13.98553 9.11914,-21.09433 a 6.3210575,6.3210575 0 0 1 -0.48327,-0.43496 c -3.81777,-4.102863 -8.94517,-11.496748 -15.18888,-11.342073 z"
     class="cls-6"
     id="path30"
     style="stroke-width:0.48326" />
  <path
     d="m 443.66781,363.16964 c -2.30514,-0.41075 -4.61027,-0.96644 -6.83814,-1.55126 2.22787,0.58482 4.52815,1.13567 6.83814,1.55126 z"
     class="cls-3"
     id="path32"
     style="stroke-width:0.48326" />
  <path
     d="m 371.99532,142.3193 a 8.0559651,8.0559651 0 0 0 -0.82152,-0.61369 7.7321771,7.7321771 0 0 0 -8.88718,0.9133 c -0.0726,0.0581 -0.13526,0.14503 -0.20775,0.20786 a 7.1184364,7.1184364 0 0 0 -2.29554,4.25755 c -0.58474,4.17055 2.60959,8.52472 6.66899,9.46224 5.09844,1.17429 9.00799,-3.58098 9.42359,-8.31696 a 5.4898449,5.4898449 0 0 0 -3.88059,-5.9103 z m -4.02068,10.52063 a 4.0932222,4.0932222 0 0 1 -3.86607,-5.49469 3.7935998,3.7935998 0 0 1 -0.13534,-0.66693 4.020733,4.020733 0 1 1 8.04146,0 3.8080979,3.8080979 0 0 1 -0.13533,0.66693 4.0932222,4.0932222 0 0 1 -3.86609,5.49469 z"
     id="path34"
     style="stroke-width:0.48326" />
  <path
     d="m 248.6623,178.65573 c 17.55684,0.52675 36.1914,0.28027 50.50077,-11.25998 15.25655,-12.30868 18.63935,-27.27529 23.87314,-44.9964 0,-0.0677 0.0532,-0.11599 0.0724,-0.17882 -1.73492,-0.31898 -3.47942,-0.57514 -5.22403,-0.78772 l -0.37696,-0.0437 c -3.38282,-0.39633 -6.79465,-0.60408 -10.2306,-0.71046 l -0.93267,-0.0242 q -2.45016,-0.0629 -4.91964,-0.0677 c -16.77887,-0.0388 -33.34505,2.22302 -49.01719,8.36526 -1.57062,0.61369 -3.15569,1.2806 -4.7456,1.97656 -0.57028,0.25123 -1.14533,0.52675 -1.7204,0.79249 -1.01485,0.48328 -2.0297,0.92791 -3.04454,1.42561 -0.72007,0.35278 -1.44981,0.72491 -2.16019,1.0922 -0.8651,0.43979 -1.72525,0.88436 -2.59033,1.34343 -0.86498,0.45915 -1.61892,0.88927 -2.41625,1.34835 -0.79743,0.45907 -1.50298,0.85054 -2.252,1.29512 q -1.33382,0.78772 -2.65797,1.60924 -0.96654,0.58958 -1.8992,1.20335 c -0.96655,0.62336 -1.93308,1.26132 -2.89955,1.93306 -0.48328,0.33828 -0.96654,0.68621 -1.47884,1.0293 -1.06801,0.7491 -2.12633,1.50296 -3.17498,2.28585 -0.29477,0.21744 -0.57996,0.4494 -0.87474,0.67175 -9.66515,7.3552 -18.31552,16.15542 -24.48681,26.09609 l -0.0917,0.14977 q -1.30481,2.11188 -2.45982,4.2962 l -0.0919,0.1788 c -0.76838,1.44981 -1.48844,2.9576 -2.14084,4.47016 17.17027,-7.84329 39.3955,-4.03519 57.44046,-3.49394 z"
     class="cls-2"
     id="path36"
     style="stroke-width:0.48326" />
  <path
     d="m 364.52417,351.52795 a 11.32764,11.32764 0 0 0 -4.22369,4.66826 c 6.91062,-4.57163 16.57586,-6.51431 24.3177,-7.02177 -6.47091,-2.43564 -14.14509,-1.28545 -20.09401,2.35351 z"
     class="cls-1"
     id="path38"
     style="stroke-width:0.48326" />
  <path
     d="m 341.69976,189.92055 a 17.914488,17.914488 0 0 1 -1.77848,1.15986 c -0.0723,6.93959 -0.82636,13.77777 -1.50287,20.61591 a 6.1277496,6.1277496 0 0 1 2.61442,2.68209 c 16.61934,31.58593 46.6202,9.97936 51.82496,-16.14575 2.71588,-13.64245 2.37763,-29.6626 -0.91339,-43.14559 -3.96279,-16.2134 -13.08675,-24.19204 -30.1362,-24.16301 a 6.205071,6.205071 0 0 1 -4.127,-1.41601 16.996293,16.996293 0 0 0 -4.83262,5.26275 c -9.81023,16.24727 5.79424,41.41069 -11.14882,55.14975 z m 12.65172,-42.80728 c 0.0388,-0.13532 0.1112,-0.24164 0.15467,-0.37214 0.72974,-4.11737 3.03488,-7.93513 6.70279,-9.80532 7.24897,-3.67767 17.58103,-0.17395 20.19071,7.73217 2.70138,8.15742 -4.60066,17.95316 -12.73882,19.12745 -6.48051,0.93274 -12.10568,-3.3828 -13.77294,-9.26406 a 10.892706,10.892706 0 0 1 -0.51706,-7.4181 z"
     class="cls-3"
     id="path40"
     style="stroke-width:0.48326" />
  <path
     d="m 382.09551,377.84147 c 0.56063,2.04422 2.74011,-8.62135 3.08803,-10.40456 0.0581,-0.28996 0.12565,-0.59442 0.18365,-0.88921 -2.39215,3.62928 -4.12706,8.22027 -3.27168,11.29377 z"
     class="cls-1"
     id="path42"
     style="stroke-width:0.48326" />
  <path
     fill="#335daa"
     d="m 416.49405,212.89965 a 6.4950326,6.4950326 0 0 1 -3.18465,-3.94826 7.7805039,7.7805039 0 0 1 -0.32867,-2.53232 6.7656542,6.7656542 0 0 1 -1.44979,-2.58057 c -1.73008,-5.6397 -2.74494,-11.33248 -3.61477,-17.0205 -0.58957,8.10912 -2.01519,16.00564 -4.40734,23.0612 -10.39496,30.71611 -44.84665,44.30057 -66.0618,22.2301 0.0388,1.1743 0.0629,2.34859 0.15461,3.53257 1.33383,17.03978 4.90998,32.97775 14.1596,47.53843 a 229.83417,229.83417 0 0 0 31.89523,39.26977 c 7.36486,7.27792 14.41082,13.63285 17.7308,23.64119 a 6.4273735,6.4273735 0 0 1 0.32867,2.50327 c 4.14151,0.43497 8.69868,2.41628 13.04803,4.51364 2.17472,1.05833 4.30586,2.15536 6.31621,3.1219 a 42.826604,42.826604 0 0 0 5.60584,2.32449 c 2.35835,0.72975 5.06941,1.59958 7.9545,2.41626 q 1.08252,0.30929 2.19883,0.60894 c 2.22788,0.5944 4.52816,1.13566 6.83814,1.55125 3.86607,0.68628 7.70319,1.01486 11.24068,0.62346 a 19.330448,19.330448 0 0 0 5.93926,-1.55127 q -2.20367,-2.48885 -4.31556,-5.0694 -4.21884,-5.16129 -8.05113,-10.63178 a 179.68129,179.68129 0 0 1 -10.54958,-17.09777 q -3.19916,-5.89578 -5.95861,-12.01874 -2.75937,-6.12291 -5.05005,-12.41017 -2.2907,-6.28234 -4.09804,-12.71939 a 169.65854,169.65854 0 0 1 -5.18538,-26.01397 6.2823926,6.2823926 0 0 1 0.24163,-2.77871 c 0.807,-2.37765 3.15568,-3.55202 5.64446,-3.54234 a 8.0849589,8.0849589 0 0 1 2.48393,0.40593 6.949292,6.949292 0 0 1 4.89544,5.91512 c 1.93308,16.26174 6.76571,32.66845 14.01459,48.04581 a 167.38237,167.38237 0 0 0 14.60415,25.12963 q 4.17537,5.92473 8.83401,11.40492 4.65865,5.48023 9.75228,10.41431 2.54191,2.46458 5.19014,4.7843 3.04939,2.66758 6.28242,5.0887 a 161.40924,161.40924 0 0 0 20.4371,12.87407 c 4.73598,2.56612 9.56376,4.98246 14.40121,7.35043 4.83747,2.36795 9.69419,4.69728 14.49786,7.07975 q 4.52815,2.25205 9.04202,4.48468 c 9.03711,4.44121 18.09281,8.69869 27.45893,12.21684 -2.16546,-2.75945 -4.22376,-5.60099 -6.12797,-8.58755 -1.14042,-1.79291 -2.24213,-3.62445 -3.23332,-5.55753 -4.91418,-9.57821 -8.37495,-19.95382 -12.54064,-29.86069 -2.36796,-5.62995 -4.51822,-11.33249 -6.55786,-17.0784 -2.03908,-5.74601 -3.96734,-11.52096 -5.89064,-17.30561 -2.89963,-8.67456 -5.75085,-17.34907 -8.95485,-25.90768 q -1.60442,-4.28168 -3.32966,-8.51504 c -13.02392,-31.70674 -40.90806,-64.38488 -74.41255,-79.76224 a 103.30672,103.30672 0 0 0 -17.17512,-6.15192 q -4.38805,-1.13567 -8.8582,-1.83638 a 86.020463,86.020463 0 0 0 -8.9935,-0.92307 6.8719704,6.8719704 0 0 1 -2.86089,-0.72966 z"
     id="path44"
     style="stroke-width:0.48326" />
  <path
     d="m 508.28955,46.913943 c 1.933,-4.702201 -3.45053,-7.896521 -7.3118,-7.311793 -3.86124,0.584726 -7.81918,1.328999 -11.46296,2.967211 -2.77872,1.25164 -5.25299,3.967606 -8.06074,4.909963 -5.5334,1.855724 -7.87233,-5.475344 -13.1061,-7.89645 -4.17539,-1.933071 -8.66484,0.376893 -8.94516,5.132161 -0.17398,2.938246 -0.22713,5.876493 -0.23681,8.809912 h 45.67785 a 49.398921,49.398921 0 0 0 3.44572,-6.611004 z"
     id="path46"
     style="stroke-width:0.48326" />
  <path
     d="m 420.11366,83.752935 c -8.89195,5.66866 -17.9435,10.936147 -27.10127,16.165097 -7.49536,4.281678 -15.94765,11.936478 -24.37084,13.729388 a 5.4076922,5.4076922 0 0 0 -2.99624,1.65765 29.652909,29.652909 0 0 0 -9.93104,1.99097 6.4563682,6.4563682 0 0 0 -4.04973,-1.52707 c -10.67525,-0.42527 -20.34524,-6.13256 -30.96249,-7.46155 a 167.79312,167.79312 0 0 0 -33.28222,-0.58957 136.84508,136.84508 0 0 0 -54.93716,16.00555 c -30.06846,16.26664 -59.99198,45.28645 -59.3928,81.72436 0.0919,5.6493 7.24897,8.87751 11.32287,4.69244 19.25796,-19.76541 52.00367,-13.41532 76.83851,-12.81124 10.74775,0.2609 21.51479,0 32.26252,-0.48328 -3.86608,2.55645 -7.63552,5.25308 -11.55476,7.73218 -10.32246,6.56752 -20.69324,12.9852 -30.44549,20.4178 -5.79916,4.41217 -12.38597,12.7001 -19.20966,17.6245 6.34041,-9.0804 -5.33999,-20.73187 -14.14024,-21.99321 -12.4391,-1.7832 -25.31802,4.3204 -30.79335,15.73499 -14.0629,29.31468 17.88067,48.8529 43.5225,43.9768 21.60179,-4.1077 39.8062,-18.5041 54.56987,-34.04573 8.29761,-8.73742 15.85095,-18.21417 24.71877,-26.40062 5.10804,-4.71658 10.88308,-8.58756 15.52721,-13.56995 -0.96653,9.72321 -2.13122,19.38845 -1.35317,29.32912 1.09702,14.0436 3.21374,28.35297 8.93073,41.33817 5.76528,13.09152 14.9086,24.4965 23.93587,35.46653 5.70729,6.93482 14.91829,14.53164 22.07055,22.5973 -14.8361,-1.03421 -30.50341,6.28241 -35.17657,21.36984 -2.14085,6.8961 -2.92374,21.43742 7.16194,22.34113 4.1899,0.37214 6.90094,-2.78838 9.84403,-5.12739 a 80.545129,80.545129 0 0 1 9.42361,-6.71738 c -1.8364,5.14674 -2.45499,10.58828 -1.1985,15.31944 2.9672,11.16812 16.85127,14.86506 23.82473,5.22885 4.34937,-5.97794 1.71081,-15.94763 5.659,-21.17649 3.72114,-4.93408 3.22334,-3.10254 9.97452,-0.22712 q 6.03111,2.57096 12.26998,4.61031 c 14.20307,4.62962 34.43241,10.68487 48.17147,2.09247 a 7.302074,7.302074 0 0 0 1.00042,-0.77322 c 16.39704,15.68182 36.72785,25.38578 56.83628,35.32642 21.20058,10.46742 41.82661,21.60181 65.09567,26.72922 5.02545,1.10663 11.25989,-4.76019 7.49018,-9.74258 -8.69835,-11.51612 -18.43634,-21.58728 -24.44818,-34.91559 -5.90054,-13.07223 -11.40024,-26.83551 -16.2958,-40.27985 -9.30734,-25.56451 -15.51248,-52.42421 -29.73967,-75.92996 -21.16682,-34.97366 -62.76593,-67.90788 -104.72272,-72.33456 -0.0435,-0.18365 -0.0532,-0.3576 -0.11109,-0.5461 -2.02971,-6.60616 -3.20883,-13.16402 -4.28168,-19.68807 0.13533,-0.11599 0.27548,-0.20293 0.40591,-0.33827 6.44673,-6.50954 9.78607,-15.69633 14.0629,-23.65077 5.60109,-10.40949 11.26005,-20.71259 16.2231,-31.45551 5.85713,-12.67592 13.38152,-26.961158 17.96283,-41.255997 a 99.276352,99.276352 0 0 0 15.58036,18.330127 c 2.32932,2.136 6.10354,2.41627 8.40875,0 1.7929,-1.87025 3.08802,-3.571295 3.71142,-6.151925 0.71524,-2.962432 -1.14044,-6.731811 -0.31409,-9.36077 0.63304,-2.015173 2.61442,-0.797412 6.34034,-0.550936 3.25722,0.212605 6.1374,0.299633 9.35601,-0.28511 4.62961,-0.840882 5.43178,-6.925138 2.62405,-9.935892 A 49.104135,49.104135 0 0 0 498.43587,64.446668 c 1.79292,-3.774302 4.21886,-7.292435 6.40801,-10.921721 h -45.68269 c 0,2.590235 0,5.180554 0.0532,7.77079 -13.66181,5.547839 -26.99989,14.739487 -39.10072,22.457198 z m -67.22159,51.037205 a 16.996293,16.996293 0 0 1 4.83261,-5.26274 6.205071,6.205071 0 0 0 4.12706,1.41594 c 17.04945,-0.0435 26.17343,7.93033 30.13614,24.16307 3.29586,13.483 3.62928,29.50309 0.91337,43.14554 -5.20475,26.1251 -35.2056,47.72691 -51.82493,16.14582 a 6.1277496,6.1277496 0 0 0 -2.61443,-2.6821 c 0.67656,-6.83819 1.4498,-13.67634 1.50294,-20.61599 a 17.914488,17.914488 0 0 0 1.7784,-1.15978 c 16.89959,-13.75841 1.29512,-38.92183 11.14884,-55.14976 z m -49.20568,74.97794 c -7.08459,6.28242 -13.30418,13.47815 -19.65904,20.49508 -13.36702,14.76852 -27.86487,29.57083 -47.22913,36.20111 -14.84095,5.08877 -38.87837,4.79398 -40.36682,-15.67698 -0.45423,-6.22921 1.93308,-12.14918 7.24889,-15.60932 2.87542,-1.87985 7.47609,-3.46984 11.04253,-2.92374 16.66289,2.53232 3.32006,2.02485 2.62412,2.41635 -6.46599,3.72106 -14.81192,6.41284 -10.11463,16.6483 4.03521,8.79054 14.57995,9.66521 22.44261,6.28241 12.81608,-5.51406 23.01289,-19.00181 34.18591,-27.00947 7.8095,-5.59616 15.9863,-10.63178 24.10026,-15.764 8.92097,-5.64932 17.35876,-13.12055 27.64251,-16.07324 a 6.147082,6.147082 0 0 0 1.75428,-0.83605 c -3.9386,4.55234 -9.15786,7.8337 -13.67149,11.84955 z m 33.29189,-43.2857 c -0.62828,13.37185 -10.94592,14.98111 -22.19137,15.76884 -19.81374,1.41593 -39.62737,2.39216 -59.49912,1.57538 -22.06568,-0.90371 -47.32575,-3.2523 -67.20228,7.20066 a 60.224013,60.224013 0 0 1 3.12672,-8.91622 q 0.96645,-2.27132 2.14083,-4.47015 l 0.0917,-0.17881 q 1.15019,-2.17947 2.45981,-4.2962 l 0.0918,-0.14977 c 6.18096,-9.9359 14.81681,-18.73606 24.48689,-26.09616 0.28994,-0.22228 0.57989,-0.44939 0.87469,-0.67167 1.04864,-0.78291 2.10704,-1.53683 3.17503,-2.28586 0.48327,-0.34794 0.96646,-0.69103 1.47876,-1.02935 0.96654,-0.65241 1.93301,-1.28545 2.89955,-1.933 q 0.96653,-0.60894 1.8992,-1.20335 1.32898,-0.82152 2.65798,-1.60926 c 0.74901,-0.43981 1.49812,-0.8699 2.25198,-1.29519 0.75387,-0.4252 1.6141,-0.90847 2.41626,-1.34826 0.80225,-0.43979 1.72533,-0.90372 2.59033,-1.34343 0.72006,-0.36729 1.4498,-0.74427 2.16018,-1.0922 1.0197,-0.48328 2.02971,-0.96654 3.04456,-1.4256 0.57506,-0.261 1.15011,-0.54128 1.72039,-0.79259 1.58992,-0.70071 3.17505,-1.36279 4.74561,-1.97656 15.69149,-6.14224 32.2384,-8.4039 49.01718,-8.36519 1.64796,0 3.28618,0.0289 4.91964,0.0676 l 0.93267,0.0242 c 3.43595,0.10144 6.84295,0.31414 10.2306,0.71038 l 0.37697,0.0437 a 76.070128,76.070128 0 0 1 11.54032,2.2327 c 4.83261,1.35794 9.10946,2.97688 13.59893,4.08351 -3.4843,5.31589 -5.60579,12.19757 -6.00695,20.29702 -0.29961,6.18087 0.261,12.34733 -0.0289,18.47505 z m 23.31736,189.69939 a 11.32764,11.32764 0 0 1 4.2237,-4.66834 c 5.94891,-3.63895 13.62308,-4.78913 20.09398,-2.35835 -7.74183,0.52682 -17.40222,2.4695 -24.31284,7.04113 z m 24.89758,11.25514 c -0.3431,1.78321 -2.52749,12.44878 -3.08801,10.40456 -0.85058,-3.0977 0.87951,-7.66449 3.27166,-11.29377 -0.0725,0.29479 -0.14017,0.59925 -0.18365,0.88921 z M 428.34844,214.5669 q 4.46531,0.69586 8.8582,1.83637 a 103.30672,103.30672 0 0 1 17.17512,6.13741 c 33.49965,15.36285 61.37412,48.04098 74.38352,79.73814 q 1.73492,4.23336 3.32966,8.51504 c 3.20408,8.55851 6.07458,17.23309 8.95484,25.90758 1.93308,5.79915 3.86608,11.5596 5.89064,17.30561 2.02515,5.74601 4.1899,11.44846 6.55784,17.07849 4.16572,9.90678 7.62163,20.29691 12.54067,29.8607 0.99118,1.93299 2.09289,3.7646 3.23332,5.5575 1.90421,2.98652 3.9625,5.82812 6.12797,8.58757 -9.36129,-3.52299 -18.42182,-7.77572 -27.45893,-12.21692 q -4.51872,-2.21812 -9.04203,-4.4846 c -4.78914,-2.38248 -9.64103,-4.70697 -14.49784,-7.07984 -4.85674,-2.3728 -9.66523,-4.78906 -14.40115,-7.35035 a 161.40924,161.40924 0 0 1 -20.42266,-12.84511 q -3.21851,-2.41626 -6.28234,-5.08877 -2.64347,-2.31479 -5.19024,-4.78423 -5.08876,-4.92931 -9.74741,-10.41432 -4.65864,-5.48502 -8.83403,-11.4049 a 167.38237,167.38237 0 0 1 -14.60414,-25.12962 c -7.2489,-15.37738 -12.08151,-31.7841 -14.01458,-48.04583 a 6.949292,6.949292 0 0 0 -4.89536,-5.91513 8.0849589,8.0849589 0 0 0 -2.48403,-0.40592 c -2.48875,0 -4.83261,1.16463 -5.64446,3.54234 a 6.2823926,6.2823926 0 0 0 -0.24164,2.77871 169.65854,169.65854 0 0 0 5.18541,26.01398 q 1.80256,6.42253 4.09802,12.71938 2.29553,6.29695 5.05006,12.41015 2.7546,6.11331 5.95868,12.01877 a 179.68129,179.68129 0 0 0 10.56888,17.08323 q 3.82743,5.48502 8.05111,10.63178 2.11189,2.58059 4.31556,5.06941 a 19.330448,19.330448 0 0 1 -5.94893,1.56573 c -3.53749,0.39631 -7.39872,0.0677 -11.24068,-0.62339 -2.30514,-0.41076 -4.61026,-0.96654 -6.83814,-1.55127 q -1.11147,-0.29478 -2.19883,-0.60891 c -2.8996,-0.82639 -5.59615,-1.69622 -7.9545,-2.41629 a 42.80244,42.80244 0 0 1 -5.60584,-2.32447 c -2.01035,-0.96655 -4.14149,-2.06358 -6.31621,-3.12191 -4.34935,-2.11663 -8.89202,-4.08351 -13.04803,-4.51363 a 6.4273735,6.4273735 0 0 0 -0.32867,-2.5033 c -3.31998,-10.01316 -10.36594,-16.36809 -17.7308,-23.64116 a 229.83417,229.83417 0 0 1 -31.89523,-39.26978 c -9.24962,-14.55585 -12.82577,-30.49382 -14.1596,-47.53844 -0.0918,-1.18397 -0.11109,-2.35827 -0.15461,-3.53265 21.21515,22.04642 55.67167,8.46198 66.0618,-22.23001 2.38731,-7.0604 3.81777,-14.95206 4.40734,-23.06119 0.86983,5.68801 1.88469,11.38079 3.61477,17.0205 a 6.7656542,6.7656542 0 0 0 1.44979,2.58056 7.7805039,7.7805039 0 0 0 0.32867,2.53231 6.4950326,6.4950326 0 0 0 3.18465,3.94827 6.8719704,6.8719704 0 0 0 2.85606,0.73934 86.020463,86.020463 0 0 1 8.99833,0.92307 z m -4.08353,-63.93064 c -2.32449,4.34934 -4.39766,9.4816 -7.01217,14.08708 -1.36762,-6.44671 -3.204,-12.86447 -6.24854,-19.27247 -5.70247,-11.9994 -14.55585,-20.9832 -26.75816,-26.23143 1.8509,-1.24195 3.7018,-2.53714 5.65897,-3.78395 1.78807,-1.14051 3.6196,-2.21812 5.45123,-3.29095 a 5.8281338,5.8281338 0 0 0 3.33449,2.79323 c 12.56477,4.34934 21.6114,17.39739 28.91834,27.80197 a 6.5868477,6.5868477 0 0 0 0.56538,0.65724 q -1.95719,3.61483 -3.90954,7.23928 z m 14.05805,-26.84519 c -1.28068,2.69179 -2.61927,5.34493 -3.98205,7.98832 -7.46156,-10.27409 -16.0926,-20.51445 -27.43959,-26.1589 3.48433,-1.93308 6.9541,-3.86608 10.35142,-5.944097 4.45573,-2.720825 9.02252,-5.75084 13.67149,-8.81951 a 6.417711,6.417711 0 0 0 0.84572,0.0629 c 6.23887,-0.154696 11.37111,7.248885 15.18403,11.342057 a 6.3210575,6.3210575 0 0 0 0.48328,0.43497 c -2.84156,7.10395 -5.81359,14.14991 -9.1143,21.08949 z m 13.94207,-33.258016 c -2.67726,-2.831858 -5.54783,-5.644463 -8.75669,-7.785293 a 147.96486,147.96486 0 0 1 15.30003,-8.389464 c -1.76871,5.514047 -4.35419,10.820252 -6.54334,16.16993 z m 26.74372,-29.401608 c 3.10254,-0.11598 5.88125,-1.836379 8.44738,-3.382808 0.71523,-0.434966 1.40625,-0.850562 2.08285,-1.241974 -1.85574,3.068674 -3.53751,6.234041 -4.48952,9.84888 a 6.0552591,6.0552591 0 0 0 4.15125,7.311725 c 0.72491,0.217442 1.37731,0.526737 2.07318,0.778043 a 10.027669,10.027669 0 0 0 -6.96862,7.848137 9.8053657,9.8053657 0 0 0 0,2.633787 91.674605,91.674605 0 0 1 -9.10944,-13.135077 5.4946763,5.4946763 0 0 0 -2.98657,-2.580544 c 0.20776,-1.449807 0.37689,-2.899627 0.48327,-4.34935 a 5.2095538,5.2095538 0 0 0 -1.58514,-4.001411 c 0,-1.000406 0,-2.000753 -0.0289,-3.001087 2.0297,1.957209 4.39282,3.416695 7.93032,3.271679 z"
     id="path48"
     style="stroke-width:0.48326" />
  <path
     d="m 230.81058,139.83052 q 1.32415,-0.82153 2.65799,-1.60926 -1.33384,0.78773 -2.65799,1.60926 z m 9.92623,-5.59615 c 0.72006,-0.36729 1.44981,-0.7442 2.16019,-1.0922 -0.72007,0.35278 -1.44013,0.72491 -2.16019,1.0922 z m -5.01626,2.69661 c 0.807,-0.45432 1.61894,-0.90855 2.41626,-1.34836 -0.82153,0.45432 -1.60442,0.88928 -2.41626,1.34836 z m -14.35284,9.33175 c 1.0438,-0.78291 2.10697,-1.53677 3.17496,-2.28578 -1.07759,0.75869 -2.13599,1.50287 -3.17496,2.28578 z m 4.64414,-3.31516 c 0.96652,-0.65241 1.93299,-1.2855 2.89953,-1.93307 -0.9713,0.64757 -1.93784,1.28066 -2.89953,1.93307 z m 111.00023,5.09361 c 0.40109,-8.09952 2.52265,-14.98112 6.0069,-20.297 -4.48943,-1.10672 -8.75184,-2.72558 -13.59894,-4.0836 a 76.070128,76.070128 0 0 0 -11.54026,-2.23261 c 1.74458,0.21258 3.48918,0.48326 5.22401,0.78772 0,0.0629 -0.0532,0.11599 -0.0724,0.17881 -5.23378,17.72596 -8.61657,32.69257 -23.87313,44.99642 -14.30935,11.54024 -32.94388,11.79156 -50.50079,11.25998 -18.04494,-0.54127 -40.27017,-4.34937 -57.45007,3.46499 a 60.224013,60.224013 0 0 0 -3.12672,8.91613 c 19.87657,-10.45288 45.1366,-8.10429 67.2023,-7.20056 19.85237,0.81675 39.6999,-0.16431 59.49911,-1.5754 11.24546,-0.80225 21.5631,-2.41634 22.19138,-15.76885 0.29479,-6.13257 -0.26584,-12.29901 0.0388,-18.44603 z m -91.0657,-16.32463 c 0.57506,-0.2609 1.15013,-0.54127 1.7204,-0.79249 -0.57513,0.25608 -1.16954,0.53159 -1.7204,0.79249 z m 55.47835,-11.14399 q 2.46949,0 4.91964,0.0677 c -1.63346,-0.0242 -3.27175,-0.0677 -4.91964,-0.0677 z m 5.85232,0.10636 c 3.43594,0.10155 6.84296,0.31413 10.23058,0.71047 -3.38762,-0.3915 -6.79948,-0.60892 -10.23058,-0.71047 z m 110.37686,145.55344 a 6.2823926,6.2823926 0 0 1 0.24163,-2.77872 6.2823926,6.2823926 0 0 0 -0.24163,2.77872 z m 60.46566,95.00436 q -5.08879,-4.92933 -9.74743,-10.41432 4.6538,5.4754 9.74743,10.41432 z m 97.27582,53.88359 c -9.36129,-3.52298 -18.42184,-7.77571 -27.45894,-12.21683 9.04195,4.44112 18.09765,8.69385 27.45894,12.21683 z M 468.37697,350.82719 q -4.64896,-5.47049 -8.83402,-11.4049 4.17538,5.92473 8.83402,11.4049 z m 97.66196,50.14801 c 0.99118,1.93309 2.09289,3.76463 3.23332,5.55753 -1.14527,-1.80259 -2.24214,-3.62444 -3.23332,-5.55753 z m -37.27365,-98.66742 q 1.73492,4.23337 3.32966,8.51505 -1.60443,-4.28168 -3.32966,-8.51505 c -12.99489,-31.71158 -40.87903,-64.3897 -74.38352,-79.76708 33.50449,15.37738 61.38863,48.0555 74.38352,79.76708 z M 422.8393,292.2463 q 1.8025,6.42253 4.09802,12.71947 -2.29069,-6.28726 -4.09802,-12.71947 z m -4.94376,-28.78785 c 0.80702,-2.37764 3.15569,-3.55201 5.64447,-3.54233 -2.48394,-0.01 -4.83262,1.16469 -5.64447,3.54233 z m 19.3111,-47.05516 a 103.30672,103.30672 0 0 1 17.17512,6.13741 103.30672,103.30672 0 0 0 -17.17512,-6.13741 z m 40.91293,144.83339 q 2.54191,2.46458 5.19014,4.78429 3.04939,2.66758 6.28242,5.0887 -3.21853,-2.41626 -6.28242,-5.0887 -2.64339,-2.31002 -5.19014,-4.78429 z M 428.34844,214.56693 q 4.46531,0.69587 8.8582,1.83636 -4.38805,-1.13566 -8.8582,-1.83636 z m 3.63411,102.81376 q 2.7546,6.11329 5.95861,12.01874 -3.19916,-5.9006 -5.95861,-12.01874 z"
     id="path50"
     style="stroke-width:0.48326" />
  <path
     d="m 368.68503,163.781 c 8.13808,-1.17439 15.43536,-10.97003 12.73874,-19.12753 -2.6096,-7.88678 -12.96103,-11.39048 -20.19061,-7.73216 -3.67277,1.86539 -5.97797,5.68802 -6.70289,9.8054 -0.0436,0.13041 -0.11598,0.23679 -0.1546,0.37204 a 10.892706,10.892706 0 0 0 0.54125,7.40359 c 1.66242,5.87166 7.2876,10.21133 13.76811,9.27866 z m -8.9742,-23.07571 h 16.18444 v 16.18436 h -16.18444 z"
     class="cls-8"
     id="path52"
     style="stroke-width:0.48326" />
  <path
     d="m 375.89045,140.70529 h -16.17962 v 16.18436 h 16.18444 z m -0.024,7.53398 c -0.41083,4.73599 -4.34942,9.49126 -9.4236,8.31696 -4.05939,-0.93274 -7.24895,-5.29178 -6.66906,-9.46231 a 7.1184364,7.1184364 0 0 1 2.29553,-4.25748 c 0.0725,-0.0629 0.13533,-0.14986 0.20775,-0.20784 a 7.7321771,7.7321771 0 0 1 8.90171,-0.91331 8.0559651,8.0559651 0 0 1 0.82153,0.61369 5.4898449,5.4898449 0 0 1 3.86614,5.91029 z"
     class="cls-8"
     id="path54"
     style="stroke-width:0.48326" />
  <path
     d="m 367.97464,150.7136 a 3.9530765,3.9530765 0 0 1 -3.31999,-1.88477 c 0,1.57063 0.96647,3.06876 2.98174,3.06876 a 3.2281849,3.2281849 0 0 0 3.1798,-2.36797 4.0062353,4.0062353 0 0 1 -2.84155,1.18398 z"
     id="path56"
     style="stroke-width:0.48326" />
  <path
     d="m 370.82103,149.52962 a 3.2281849,3.2281849 0 0 1 -3.17988,2.36797 c -2.0297,0 -2.97689,-1.49813 -2.98173,-3.06876 a 3.895085,3.895085 0 0 1 -0.56537,-1.44972 4.1318829,4.1318829 0 1 0 7.77086,0 3.9869045,3.9869045 0 0 1 -1.04388,2.15051 z"
     id="path58"
     style="stroke-width:0.48326" />
  <path
     d="m 368.41919,143.22301 a 2.6289409,2.6289409 0 0 1 2.47918,1.76879 2.4163056,2.4163056 0 0 0 0.0869,-0.4253 2.5661168,2.5661168 0 1 0 -5.1274,0 2.4163056,2.4163056 0 0 0 0.087,0.4253 2.6289409,2.6289409 0 0 1 2.47427,-1.76879 z"
     class="cls-3"
     id="path60"
     style="stroke-width:0.48326" />
  <path
     d="m 368.45307,143.66279 a 2.1408467,2.1408467 0 0 0 -2.14568,2.2665 2.5226232,2.5226232 0 0 0 2.11666,1.20335 2.5564513,2.5564513 0 0 0 1.8171,-0.75394 c 0.38171,-1.21778 -0.15947,-2.71591 -1.78808,-2.71591 z"
     class="cls-3"
     id="path62"
     style="stroke-width:0.48326" />
  <path
     d="m 368.45307,143.66279 c 1.62861,0 2.16979,1.49813 1.78324,2.71591 a 2.541954,2.541954 0 0 0 0.66206,-1.38206 2.6192756,2.6192756 0 0 0 -4.95827,0 2.4839625,2.4839625 0 0 0 0.36245,0.93751 2.1408467,2.1408467 0 0 1 2.15052,-2.27136 z"
     class="cls-3"
     id="path64"
     style="stroke-width:0.48326" />
  <circle
     cx="368.40976"
     cy="147.50946"
     r="5.349699"
     id="circle66"
     style="stroke-width:0.48326" />
  <circle
     cx="307.84274"
     cy="248.33247"
     r="2.7255917"
     class="cls-3"
     transform="rotate(-17.56)"
     id="circle68"
     style="stroke-width:0.48326" />
  <path
     d="m 220.19816,246.06104 c -6.51429,-0.0436 -13.40565,-0.38181 -18.51368,4.41694 -4.59099,4.31555 -7.24897,13.83577 -2.16021,18.76025 5.19022,5.01142 12.95625,-2.15537 9.211,-7.46157 a 3.5374717,3.5374717 0 0 1 0.034,-0.48327 8.5295559,8.5295559 0 0 1 0.37212,-1.28543 3.382828,3.382828 0 0 1 1.66724,-1.54168 c 2.66275,-1.27576 6.55302,-0.54601 9.3849,-0.52673 7.65488,0.0629 7.66455,-11.83019 0.004,-11.87851 z m 14.74917,-1.474 c -3.20884,-0.19333 -5.94409,2.87059 -5.94409,5.94416 0,3.38281 2.72557,5.75078 5.94409,5.94409 -0.69103,-0.0435 0.61861,0.48326 -0.0484,-0.0725 a 3.3006737,3.3006737 0 0 0 0.30445,0.22228 7.0217823,7.0217823 0 0 0 0.37205,0.78773 10.433608,10.433608 0 0 0 0.31898,1.12115 c 0.48328,1.93309 0.53641,3.64864 0.48328,6.25339 -0.16431,7.6549 11.72871,7.6549 11.89309,0 0.1884,-9.09978 -2.59033,-19.5334 -13.32354,-20.20031 z m 51.10003,-10.33207 c -2.87057,-4.31554 -5.4608,-8.2155 -10.53506,-10.10019 -4.31555,-1.6141 -9.01283,-1.24681 -13.53131,-1.19849 -7.64523,0.0774 -7.66456,11.97036 0,11.89308 2.71106,-0.0289 5.63479,-0.40598 8.30721,0.14494 2.97689,0.61378 3.92891,2.92858 5.48502,5.26757 4.22367,6.34035 14.52687,0.39141 10.27414,-6.00691 z m 29.25179,-28.75891 c -3.05416,-6.38872 -9.61202,-9.42359 -16.43086,-9.58304 -7.65487,-0.17396 -7.65005,11.71421 0,11.89302 0.51706,0 1.02936,0 1.54644,0.0774 l 0.21742,0.0629 c 0.48327,0.12564 0.96654,0.24647 1.44982,0.3914 l 0.35761,0.10636 c -0.0629,0 -0.10145,0 0.10144,0.1112 0.0532,0.0289 0.40597,0.23679 0.58956,0.33826 0.18364,0.10144 0.69595,0.59925 0.76845,0.67659 a 6.4805316,6.4805316 0 0 1 1.15494,1.933 c 1.38698,2.89954 5.5285,3.65831 8.13332,2.13116 2.94302,-1.72523 3.50363,-5.2337 2.11183,-8.13808 z m 169.10276,-50.61192 c -4.76496,11.94133 -12.78706,22.71327 -12.44397,36.11409 0.19332,7.63551 12.08151,7.66933 11.89302,0 -0.30441,-11.81091 7.78056,-22.34114 12.01875,-32.95356 2.83673,-7.11364 -8.66005,-10.20164 -11.4678,-3.16053 z m 63.16679,33.82824 c -5.62489,2.3873 -10.91658,5.47057 -16.39675,8.1575 -4.7698,2.34378 -11.62242,6.28235 -17.15099,4.90989 -7.43253,-1.8026 -10.60274,9.64587 -3.17982,11.49192 14.90863,3.668 29.76408,-8.77595 42.71035,-14.27065 7.04175,-2.97688 0.98636,-13.222 -5.98279,-10.28866 z m 42.57077,67.55991 h -40.28914 c -7.65036,0 -7.66488,11.89308 0,11.89308 h 40.28914 c 7.64988,-0.004 7.6644,-11.89308 0,-11.89308 z m -297.13316,50.35587 c -13.28968,0.0629 -25.55966,4.83261 -37.53486,10.14841 -6.9783,3.11221 -0.93275,13.36218 6.00207,10.26933 10.02285,-4.47016 20.41783,-8.49085 31.53279,-8.53924 7.65005,-0.0194 7.66456,-11.90754 0,-11.8785 z m 9.211,35.47136 c -11.14884,3.69695 -20.82858,10.88301 -29.96224,18.07881 -6.00691,4.73108 2.45981,13.09152 8.40875,8.40876 7.42293,-5.84746 15.66255,-12.01392 24.71401,-15.01983 7.22953,-2.40176 4.13183,-13.88893 -3.16052,-11.46774 z m 7.2392,36.53451 c -4.51847,9.18198 -9.72322,17.9435 -15.1067,26.61808 -4.04487,6.51913 6.23403,12.49709 10.26923,6.00207 5.38358,-8.69868 10.58832,-17.45537 15.10679,-26.61806 3.36837,-6.82844 -6.88159,-12.85956 -10.26932,-6.00209 z M 518.91157,342.6069 c -15.619,-0.25131 -31.70676,-18.12713 -23.10952,-33.39335 a 6.0214335,6.0214335 0 0 0 -3.55195,-8.73249 c -12.27005,-3.70178 -22.26388,-8.67458 -22.07055,-23.15307 0.10144,-7.65483 -11.79161,-7.65965 -11.89308,0 -0.2706,20.52412 8.21541,27.06262 24.43851,32.58634 -6.1471,21.53405 13.71979,44.22321 36.18659,44.58567 7.65488,0.12082 7.65971,-11.77227 0,-11.8931 z"
     id="path70"
     style="stroke-width:0.48326" />
</svg>
