<?xml version="1.0" encoding="UTF-8" standalone="no"?>
<svg
   width="800"
   height="500"
   viewBox="0 0 800 500"
   fill="none"
   version="1.1"
   id="svg68"
   sodipodi:docname="WP20Symbols_2004_aktenzeichen_rectangle.svg"
   inkscape:version="1.1.2 (0a00cf5339, 2022-02-04)"
   xmlns:inkscape="http://www.inkscape.org/namespaces/inkscape"
   xmlns:sodipodi="http://sodipodi.sourceforge.net/DTD/sodipodi-0.dtd"
   xmlns="http://www.w3.org/2000/svg"
   xmlns:svg="http://www.w3.org/2000/svg">
  <defs
     id="defs72" />
  <sodipodi:namedview
     id="namedview70"
     pagecolor="#ffffff"
     bordercolor="#666666"
     borderopacity="1.0"
     inkscape:pageshadow="2"
     inkscape:pageopacity="0.0"
     inkscape:pagecheckerboard="0"
     showgrid="false"
     inkscape:zoom="0.51842753"
     inkscape:cx="309.59004"
     inkscape:cy="402.17772"
     inkscape:window-width="1920"
     inkscape:window-height="1016"
     inkscape:window-x="1920"
     inkscape:window-y="27"
     inkscape:window-maximized="1"
     inkscape:current-layer="svg68"
     showborder="true" />
  <rect
     width="811.59985"
     height="510"
     fill="#e9e7c4"
     id="rect2"
     x="-5.8864646"
     y="-0.8590253"
     style="fill:#fff574;fill-opacity:1;stroke-width:1.40938" />
  <path
     d="m 465.73916,165.04568 c -15.315,-9.351 -77.027,-79.148893 -99.02101,-23.3484 -8.345,21.1714 21.51801,42.7984 38.42501,60.9654 34.058,14.29 103.585,56.643 59.32,86.673 -44.265,30.031 -62.884,20.279 -66.661,11.65"
     stroke="#dc0816"
     stroke-width="30"
     id="path6" />
  <path
     d="m 418.30716,208.53868 c -30.753,-1.731 -81.82101,15.766 -75.44201,45.028 7.973,36.576 114.51201,64.954 81.07101,106.545 -26.752,33.272 -65.56401,-16.044 -85.81801,-18.215"
     stroke="#dc0816"
     stroke-width="30"
     id="path8" />
  <path
     d="m 453.73916,155.04568 c -15.315,-9.351 -77.027,-79.148893 -99.02101,-23.34839 -8.345,21.17139 21.51801,42.79839 38.42501,60.96539 34.058,14.29 103.585,56.643 59.32,86.673 -44.265,30.031 -62.884,20.279 -66.661,11.65"
     stroke="#0491ff"
     stroke-width="30"
     id="path10" />
  <path
     d="m 406.30716,198.53868 c -30.753,-1.731 -81.82101,15.766 -75.44201,45.028 7.973,36.576 114.51201,64.954 81.07101,106.545 -26.752,33.272 -65.56401,-16.044 -85.81801,-18.215"
     stroke="#0491ff"
     stroke-width="30"
     id="path12" />
  <path
     d="m 553.37816,228.97068 c 17.651,4.528 27.56,23.96 28.254,41.95 0.333,8.689 -2.114,19.01 -10.316,22.163 -2.481,0.955 -5.808,0.843 -7.195,-1.395 -1.761,-2.831 1.42,-6.668 4.787,-6.721 3.368,-0.053 6.249,2.324 8.436,4.851 4.41,5.103 7.343,11.286 8.491,17.896 1.148,6.611 0.468,13.405 -1.969,19.666 -2.437,6.261 -6.539,11.757 -11.876,15.909 -5.336,4.152 -11.709,6.805 -18.445,7.681"
     stroke="#e679a6"
     stroke-width="6"
     stroke-miterlimit="10"
     id="path14" />
  <path
     d="m 302.37815,313.97068 c -1.935,6.607 -9.569,4.414 -11.504,11.035 -1.935,6.62 5.706,8.841 3.777,15.461 -1.928,6.621 -9.568,4.414 -11.503,11.035 -1.935,6.621 5.705,8.841 3.777,15.469 -1.928,6.627 -9.569,4.407 -11.504,11.034 -1.935,6.628 5.706,8.842 3.777,15.462 -1.928,6.621 -9.568,4.414 -11.503,11.042 -1.935,6.627 5.705,8.834 3.777,15.462"
     stroke="#e679a6"
     stroke-width="6"
     stroke-miterlimit="10"
     id="path16" />
  <path
     d="m 241.17215,116.60379 c 6.706,12.0428 24.377,14.2148 35.985,8.4577 11.607,-5.7572 16.949,-23.2923 4.65,-31.464203 -11.179,-7.4288 -24.996,6.637903 -16.711,17.585303 8.066,10.6643 25.636,9.389 35.976,3.32 13.967,-8.21 19.983,-26.125103 15.289,-41.416503 -0.883,-2.8738 -4.65,-1.2308 -4.169,1.4908 2.361,12.7272 -1.037,26.617903 -12.436,33.963103 -5.204,3.38 -11.337,5.011 -17.513,4.6576 -4.81,-0.3198 -13.698,-2.399 -14.718,-8.2935 -1.192,-7.084203 8.507,-9.403003 12.926,-5.689603 5.931,4.982703 3.514,13.321003 -1.508,17.871703 -8.707,7.8084 -27.625,7.2471 -33.9743,-3.3614 -1.5869,-2.6541 -5.1211,0.3933 -3.7425,2.8476 z"
     fill="#f7b821"
     id="path18" />
  <path
     d="m 203.11095,277.97068 1.6794,3.193 1.8473,2.72 2.7634,2.983 1.8168,3.497 2.1603,2.618 -5.8549,4.989 -2.6794,-3.248 -1.71,-3.295 -2.4427,-2.641 -2.5344,-3.761 -1.7786,-3.388 z"
     fill="#f7b821"
     id="path20" />
  <path
     d="m 508.64216,104.33369 2.489,3.4937 1.607,3.5669 2.434,3.6481 0.897,4.8913 0.429,2.73 1.88,2.0069 -5.593,5.6631 -3.589,-3.835 -0.819,-5.1919 -0.554,-3.0387 -1.864,-2.8032 -1.561,-3.4531 -2.02,-2.8356 z"
     fill="#0154d5"
     id="path22" />
  <path
     d="m 542.90016,438.64168 c 9.049,11.199 27.582,10.249 38.463,2.222 10.881,-8.027 13.213,-27.059 -0.882,-33.261 -12.813,-5.637 -24.469,11.342 -13.995,21.136 10.198,9.533 28.006,5.049 37.531,-3.071 12.862,-10.938 15.818,-30.526 8.25,-45.435 -1.424,-2.81 -4.995,-0.429 -4.013,2.288 4.712,12.689 3.713,27.615 -6.66,37.241 -4.736,4.42 -10.738,7.207 -17.142,7.959 -4.995,0.539 -14.495,0 -16.601,-5.89 -2.498,-7.084 7.043,-11.224 12.247,-8.195 6.985,4.064 6.002,13.092 1.665,18.688 -7.535,9.608 -27.066,12.452 -35.483,2.667 -2.107,-2.449 -5.187,1.329 -3.33,3.609 z"
     fill="#e9e7c4"
     id="path24" />
  <path
     d="m 545.87716,138.29488 c -8.682,-10.70539 -26.463,-9.79649 -36.904,-2.1233 -10.44,7.6731 -12.676,25.8671 0.847,31.7951 12.293,5.388 23.477,-10.851 13.428,-20.205 -9.785,-9.1129 -26.872,-4.8258 -36.01,2.936 -12.341,10.496 -15.177,29.18 -7.916,43.433 1.366,2.678 4.793,0.41 3.85,-2.188 -4.521,-12.129 -3.57,-26.397 6.391,-35.599 4.543,-4.227 10.302,-6.891 16.447,-7.609 4.793,-0.514 13.907,0 15.928,5.631 2.396,6.772 -6.758,10.729 -11.75,7.834 -6.702,-3.885 -5.76,-12.516 -1.598,-17.864 7.229,-9.1937 25.961,-11.90419 34.044,-2.55 2.021,2.3405 4.977,-1.2709 3.196,-3.4506 z"
     fill="#f7b821"
     id="path26" />
  <path
     d="m 468.60016,72.119687 -16.109,40.692203 -12.716,-5.9378 16.957,-41.540403 z"
     fill="#dc0816"
     id="path28" />
  <path
     d="m 585.59416,336.61468 -38.148,-19.494 -6.786,11.867 38.148,21.191 z"
     fill="#dc0816"
     id="path30" />
  <path
     d="m 345.67415,401.89868 -12.716,-6.786 -16.109,42.389 13.564,6.786 z"
     fill="#dc0816"
     id="path32" />
  <path
     d="m 240.55495,198.42968 -6.786,11.875 -40.6922,-12.716 3.393,-13.564 z"
     fill="#dc0816"
     id="path34" />
  <path
     d="m 458.10316,180.07768 50.007,-49.31769 8.903,8.90259 -52.061,51.3781 z"
     fill="#e679a6"
     id="path36" />
  <path
     d="m 338.23115,326.66568 -8.213,-10.963 -52.061,53.431 8.221,8.221 z"
     fill="#e679a6"
     id="path38" />
  <path
     d="m 314.94715,197.20068 8.221,-8.902 -52.75,-49.3175 -8.903,9.5845 z"
     fill="#e679a6"
     id="path40" />
  <path
     d="m 240.72285,250.87068 v 13.936 l -74.34469,-0.777 1.5538,-13.159 z"
     fill="#f0bc00"
     id="path42" />
  <path
     d="m 354.33915,156.19168 -7.833,4.241 c 0,0 5.225,3.916 4.242,6.532 -0.983,2.609 -8.816,10.449 -8.816,12.732 0,2.283 5.875,12.407 5.875,12.407 l 10.115,-4.567 -3.266,-7.832 4.899,-6.532 3.266,-9.141 z"
     fill="#0154d5"
     id="path44" />
  <path
     d="m 323.31015,302.95468 4.939,-5.922 -11.852,-8.395 -8.395,5.922 -8.395,-0.983 -3.457,8.395 10.869,5.43 7.896,-6.421 z"
     fill="#010101"
     id="path46" />
  <path
     d="m 370.22616,323.20168 -8.39501,1.482 1.974,7.404 -4.939,5.439 1.482,12.343 10.36901,-1.974 -3.94701,-7.904 2.95701,-3.948 4.447,-5.43 z"
     fill="#010101"
     id="path48" />
  <path
     d="m 429.47616,319.74568 -7.896,4.938 1.974,5.93 -3.956,7.405 1.982,9.877 9.87,-0.499 -3.948,-9.378 4.939,-4.939 1.974,-8.887 z"
     fill="#010101"
     id="path50" />
  <path
     d="m 471.45416,291.60268 -6.421,-4.448 3.948,-7.404 6.421,-2.965 5.431,2.466 7.903,-3.948 4.448,7.404 -6.422,5.438 -9.386,-1.974 z"
     fill="#0154d5"
     id="path52" />
  <path
     d="m 433.92416,183.95368 -7.904,2.957 -5.922,-9.87 4.44,-6.421 -5.431,-5.431 4.939,-4.938 9.386,5.921 -0.991,6.913 z"
     fill="#e9e7c4"
     id="path54" />
  <path
     d="m 322.32015,232.83568 3.955,-2.957 -5.929,-9.878 h -6.414 l -4.447,4.939 -6.421,1.483 -3.457,-1.483 -1.974,7.896 10.369,3.956 3.948,-2.965 2.474,-3.456 z"
     fill="#0154d5"
     id="path56" />
  <path
     d="m 304.81415,69.520187 21.301,37.521203 -11.162,4.0589 -22.308,-34.477003 z"
     fill="#e679a6"
     id="path58" />
  <path
     d="m 233.83265,313.91068 -35.4917,21.293 6.0884,13.184 36.5064,-22.309 z"
     fill="#e679a6"
     id="path60" />
  <path
     d="m 444.76116,397.06268 19.264,39.55 12.168,-7.095 -18.249,-35.499 z"
     fill="#e679a6"
     id="path62" />
  <path
     d="m 544.14216,194.25068 -3.044,-12.168 38.536,-15.213 4.051,14.198 z"
     fill="#e679a6"
     id="path64" />
  <path
     d="m 567.14816,358.16268 c 3.139,7.579 8.601,14.634 14.705,20.049 3.203,2.838 6.834,5.747 10.75,7.539 2.275,1.039 5.121,1.76 6.921,-0.42 1.68,-2.038 0.507,-4.836 -0.991,-6.564 -2.513,-2.894 -7.595,-4.804 -11.186,-2.735 -4.146,2.394 -2.846,8.173 -1.53,11.844 2.989,8.292 8.364,15.625 14.357,21.983 1.998,2.116 -0.674,6.873 -3.052,4.598 -7.191,-6.858 -13.683,-16.022 -16.498,-25.662 -2.291,-7.84 -0.404,-18.003 9.228,-19.097 8.3,-0.944 17.401,6.437 15.189,15.26 -0.951,3.782 -3.852,6.937 -7.816,7.428 -4.804,0.595 -9.355,-2.552 -13.081,-5.192 -9.679,-6.858 -16.259,-16.038 -21.222,-26.653 -1.244,-2.616 2.949,-5.454 4.226,-2.378 z"
     fill="#f0bc00"
     id="path66" />
</svg>
