<?xml version="1.0" encoding="UTF-8" standalone="no"?>
<svg
   width="60"
   height="50"
   viewBox="0 0 60 50"
   fill="none"
   version="1.1"
   id="svg13"
   sodipodi:docname="telegram.svg"
   inkscape:version="1.1.2 (0a00cf5339, 2022-02-04)"
   xmlns:inkscape="http://www.inkscape.org/namespaces/inkscape"
   xmlns:sodipodi="http://sodipodi.sourceforge.net/DTD/sodipodi-0.dtd"
   xmlns="http://www.w3.org/2000/svg"
   xmlns:svg="http://www.w3.org/2000/svg">
  <sodipodi:namedview
     id="namedview15"
     pagecolor="#ffffff"
     bordercolor="#666666"
     borderopacity="1.0"
     inkscape:pageshadow="2"
     inkscape:pageopacity="0.0"
     inkscape:pagecheckerboard="0"
     showgrid="false"
     inkscape:zoom="8.7916667"
     inkscape:cx="12"
     inkscape:cy="27.867298"
     inkscape:window-width="1920"
     inkscape:window-height="1043"
     inkscape:window-x="0"
     inkscape:window-y="0"
     inkscape:window-maximized="1"
     inkscape:current-layer="svg13" />
  <g
     clip-path="url(#clip0_318_61)"
     id="g6"
     transform="matrix(0.90920392,0,0,0.90920392,8.2757632,2.8456224)">
    <path
       d="M 24,48 C 37.2548,48 48,37.2548 48,24 48,10.7452 37.2548,0 24,0 10.7452,0 0,10.7452 0,24 0,37.2548 10.7452,48 24,48 Z"
       fill="#000000"
       id="path2" />
    <path
       fill-rule="evenodd"
       clip-rule="evenodd"
       d="m 10.8638,23.7466 c 6.9965,-3.0482 11.6619,-5.0578 13.9963,-6.0287 6.665,-2.7723 8.0499,-3.2538 8.9526,-3.2697 0.1986,-0.0035 0.6425,0.0457 0.93,0.279 0.2428,0.197 0.3096,0.4632 0.3416,0.6499 0.032,0.1868 0.0718,0.6124 0.0401,0.9448 -0.3611,3.795 -1.924,13.0044 -2.7191,17.2548 -0.3364,1.7985 -0.9988,2.4016 -1.6401,2.4606 -1.3938,0.1282 -2.4521,-0.9211 -3.802,-1.806 -2.1123,-1.3846 -3.3056,-2.2466 -5.356,-3.5977 -2.3695,-1.5615 -0.8334,-2.4197 0.517,-3.8223 0.3534,-0.3671 6.4941,-5.9526 6.613,-6.4593 0.0149,-0.0634 0.0287,-0.2996 -0.1117,-0.4243 -0.1403,-0.1247 -0.3474,-0.0821 -0.4969,-0.0482 -0.2118,0.0481 -3.5863,2.2785 -10.1233,6.6912 -0.9578,0.6577 -1.8254,0.9782 -2.6027,0.9614 -0.8569,-0.0186 -2.5053,-0.4846 -3.7307,-0.8829 -1.503,-0.4886 -2.69758,-0.7469 -2.59356,-1.5766 0.05418,-0.4322 0.64933,-0.8742 1.78546,-1.326 z"
       fill="#ffffff"
       id="path4" />
  </g>
  <defs
     id="defs11">
    <clipPath
       id="clip0_318_61">
      <rect
         width="48"
         height="48"
         fill="#ffffff"
         id="rect8"
         x="0"
         y="0" />
    </clipPath>
  </defs>
</svg>
