<?xml version="1.0" encoding="UTF-8" standalone="no"?>
<!-- Generator: Adobe Illustrator 13.0.0, SVG Export Plug-In . SVG Version: 6.00 Build 14948)  -->

<svg
   version="1.0"
   id="svg2"
   inkscape:version="1.1.2 (0a00cf5339, 2022-02-04)"
   sodipodi:docname="wikipedia.svg"
   sodipodi:version="0.32"
   x="0px"
   y="0px"
   width="60"
   height="50"
   viewBox="0 0 60 50"
   enable-background="new 0 0 1700 1700"
   xml:space="preserve"
   xmlns:inkscape="http://www.inkscape.org/namespaces/inkscape"
   xmlns:sodipodi="http://sodipodi.sourceforge.net/DTD/sodipodi-0.dtd"
   xmlns="http://www.w3.org/2000/svg"
   xmlns:svg="http://www.w3.org/2000/svg"
   xmlns:rdf="http://www.w3.org/1999/02/22-rdf-syntax-ns#"
   xmlns:cc="http://creativecommons.org/ns#"
   xmlns:dc="http://purl.org/dc/elements/1.1/"><metadata
     id="metadata4141"><rdf:RDF><cc:Work
         rdf:about=""><dc:format>image/svg+xml</dc:format><dc:type
           rdf:resource="http://purl.org/dc/dcmitype/StillImage" /></cc:Work></rdf:RDF></metadata><defs
     id="defs4139" /><sodipodi:namedview
     id="base"
     inkscape:window-y="0"
     inkscape:current-layer="svg2"
     inkscape:window-x="0"
     inkscape:guide-bbox="true"
     inkscape:pageopacity="0.0"
     inkscape:pageshadow="2"
     inkscape:window-height="1043"
     inkscape:window-width="1920"
     gridtolerance="10.0"
     objecttolerance="10.0"
     borderopacity="1.0"
     inkscape:cx="38.347707"
     inkscape:cy="26.412267"
     guidetolerance="10.0"
     inkscape:zoom="11.017608"
     bordercolor="#666666"
     pagecolor="#ffffff"
     showguides="true"
     showgrid="false"
     fit-margin-top="2"
     fit-margin-left="2"
     fit-margin-right="2"
     fit-margin-bottom="2"
     inkscape:window-maximized="1"
     inkscape:pagecheckerboard="0"
     height="50px" /><path
     id="path1873"
     sodipodi:nodetypes="ccccccccccccccccccccccccccccccccccccccc"
     d="M 7.7456041,12.872113 C 6.51994,10.598317 4.4004842,8.3507072 2.8707273,7.7023438 L 2.6241067,7.597367 V 6.5025158 5.3600076 H 16.678068 v 2.101235 c -1.837012,0.2518421 -4.051393,1.2423051 -3.437746,3.5136874 3.502179,8.53527 6.688929,17.224033 10.146504,25.780905 L 29.3214,24.515133 C 27.024992,19.326418 25.352064,14.077611 22.838189,8.9872445 22.018568,7.5213379 19.802112,7.4804293 18.232345,7.4238361 V 5.3600076 H 31.40567 v 2.0441586 c -1.183648,0.1804029 -2.578949,0.4906479 -2.420709,2.073001 l 3.726674,9.0915618 c 1.22643,-2.885957 2.589581,-5.710734 3.67118,-8.6686109 0.491006,-2.341856 -1.897581,-2.4583022 -3.420888,-2.5235864 V 5.3600076 H 44.66836 V 7.3711025 C 42.953257,7.504805 41.330808,8.0504786 40.38491,9.4491718 38.085532,13.37012 36.379909,17.819244 34.588972,22.07807 c 1.769544,4.61577 3.613834,9.225144 5.422462,13.457423 L 50.011574,10.091742 C 49.336976,8.4145424 47.80923,7.8221703 46.30968,7.4384366 v -2.078429 h 11.01255 v 2.120061 C 56.828126,7.5645366 56.355064,7.7328742 55.897583,7.9530975 55.030483,8.3969243 54.211373,9.2780601 53.662,10.35782 L 39.870339,45.360007 h -2.302154 l -6.557382,-17.035666 -7.959838,17.034338 -2.389801,3.63e-4 C 16.010619,34.673542 12.645993,23.428976 7.7456041,12.872113 Z"
     inkscape:connector-curvature="0"
     style="stroke-width:1.14895" /></svg>
