<?xml version="1.0" encoding="UTF-8" standalone="no"?>
<svg
   id="Capa_1"
   data-name="Capa 1"
   viewBox="0 0 345 450"
   version="1.1"
   sodipodi:docname="barba_genderqueer.svg"
   width="345"
   height="450"
   inkscape:version="1.1.2 (0a00cf5339, 2022-02-04)"
   xmlns:inkscape="http://www.inkscape.org/namespaces/inkscape"
   xmlns:sodipodi="http://sodipodi.sourceforge.net/DTD/sodipodi-0.dtd"
   xmlns="http://www.w3.org/2000/svg"
   xmlns:svg="http://www.w3.org/2000/svg">
  <sodipodi:namedview
     id="namedview40"
     pagecolor="#ffffff"
     bordercolor="#666666"
     borderopacity="1.0"
     inkscape:pageshadow="2"
     inkscape:pageopacity="0.0"
     inkscape:pagecheckerboard="0"
     showgrid="false"
     inkscape:zoom="1.688"
     inkscape:cx="249.70379"
     inkscape:cy="297.68957"
     inkscape:window-width="1920"
     inkscape:window-height="1016"
     inkscape:window-x="1920"
     inkscape:window-y="27"
     inkscape:window-maximized="1"
     inkscape:current-layer="Capa_1" />
  <defs
     id="defs7">
    <style
       id="style2">
      .cls-1 {
        fill: #b592de;
      }

      .cls-1, .cls-2, .cls-3, .cls-4, .cls-5, .cls-6 {
        stroke-width: 0px;
      }

      .cls-2 {
        opacity: .18;
      }

      .cls-4 {
        fill: #fff;
      }

      .cls-7 {
        fill: none;
        stroke: #000;
        stroke-miterlimit: 10;
        stroke-width: 9.27px;
      }

      .cls-5 {
        opacity: .11;
      }

      .cls-6 {
        fill: #bcf987;
      }

      .cls-8 {
        clip-path: url(#clippath);
      }
    </style>
    <clipPath
       id="clippath">
      <path
         class="cls-7"
         d="m 118.89,443.06 c 4.92,5.27 12.49,7.92 20.19,5.93 l 14,-3.62 c 9.08,-2.35 15.43,-10.54 15.43,-19.92 v -25.81 c 0,-10.02 7.22,-18.58 17.1,-20.28 l 14.01,-2.4 c 12.57,-2.15 24.05,7.53 24.05,20.28 v 4.75 c 0,13.28 12.39,23.08 25.31,20.02 l 15,-3.55 c 9.51,-2.25 16.12,-10.87 15.83,-20.63 l -0.44,-14.74 c -0.31,-10.36 7.13,-19.33 17.37,-20.94 l 13.47,-2.12 c 12.48,-1.96 23.77,7.69 23.77,20.32 0,12.63 12.15,22.91 24.98,20.09 l 24.16,-5.3 V 207.82 c 0.5,-4.69 0.77,-9.45 0.77,-14.27 0,-73.39 -59.49,-132.88 -132.88,-132.88 -73.39,0 -132.89,59.5 -132.89,132.88 0,4.82 0.27,9.58 0.77,14.27 z"
         id="path4" />
    </clipPath>
  </defs>
  <g
     id="g23"
     transform="matrix(0.99985456,0,0,1,-78.468495,-28.035)">
    <g
       class="cls-8"
       clip-path="url(#clippath)"
       id="g19">
      <g
         id="g15">
        <polygon
           class="cls-1"
           points="408.62,13.05 53.36,92.27 53.36,159.59 53.36,226.92 408.62,147.71 408.62,80.38 "
           id="polygon9" />
        <polygon
           class="cls-4"
           points="401.71,215.78 401.71,207.47 401.71,148.45 46.46,227.67 46.46,286.69 46.46,294.99 46.46,354.02 401.71,274.8 "
           id="polygon11" />
        <polygon
           class="cls-6"
           points="52.31,480.06 407.56,400.85 407.56,333.52 401.71,334.83 401.71,274.8 46.46,354.02 46.46,421.34 52.31,420.04 "
           id="polygon13" />
      </g>
      <path
         class="cls-5"
         d="m 200.1,50.96 c 0,0 -48.3,83.66 -50.63,131.67 -2.33,48.01 0,309.12 0,309.12 H 90.02 L 100.51,95.43 Z"
         id="path17" />
    </g>
    <path
       class="cls-7"
       d="m 118.89,443.06 c 4.92,5.27 12.49,7.92 20.19,5.93 l 14,-3.62 c 9.08,-2.35 15.43,-10.54 15.43,-19.92 v -25.81 c 0,-10.02 7.22,-18.58 17.1,-20.28 l 14.01,-2.4 c 12.57,-2.15 24.05,7.53 24.05,20.28 v 4.75 c 0,13.28 12.39,23.08 25.31,20.02 l 15,-3.55 c 9.51,-2.25 16.12,-10.87 15.83,-20.63 l -0.44,-14.74 c -0.31,-10.36 7.13,-19.33 17.37,-20.94 l 13.47,-2.12 c 12.48,-1.96 23.77,7.69 23.77,20.32 0,12.63 12.15,22.91 24.98,20.09 l 24.16,-5.3 V 207.82 c 0.5,-4.69 0.77,-9.45 0.77,-14.27 0,-73.39 -59.49,-132.88 -132.88,-132.88 -73.39,0 -132.89,59.5 -132.89,132.88 0,4.82 0.27,9.58 0.77,14.27 z"
       id="path21" />
  </g>
  <g
     id="g37"
     transform="matrix(0.99985456,0,0,1,-78.468495,-28.035)">
    <circle
       class="cls-3"
       cx="201.94"
       cy="179.62"
       r="21.450001"
       id="circle25" />
    <circle
       class="cls-3"
       cx="344.48999"
       cy="180.71001"
       r="21.450001"
       id="circle27" />
    <circle
       class="cls-2"
       cx="201.94"
       cy="183.69"
       r="21.450001"
       id="circle29" />
    <circle
       class="cls-2"
       cx="344.48999"
       cy="184.78"
       r="21.450001"
       id="circle31" />
    <ellipse
       class="cls-4"
       cx="353.75"
       cy="177.64999"
       rx="5.6199999"
       ry="6.04"
       id="ellipse33" />
    <ellipse
       class="cls-4"
       cx="213.07001"
       cy="177.64999"
       rx="5.6199999"
       ry="6.04"
       id="ellipse35" />
  </g>
</svg>
