<?xml version="1.0" encoding="UTF-8" standalone="no"?>
<svg
   id="Capa_1"
   data-name="Capa 1"
   viewBox="0 0 345 450"
   version="1.1"
   sodipodi:docname="barba_lgbt.svg"
   width="345"
   height="450"
   inkscape:version="1.1.2 (0a00cf5339, 2022-02-04)"
   xmlns:inkscape="http://www.inkscape.org/namespaces/inkscape"
   xmlns:sodipodi="http://sodipodi.sourceforge.net/DTD/sodipodi-0.dtd"
   xmlns="http://www.w3.org/2000/svg"
   xmlns:svg="http://www.w3.org/2000/svg">
  <sodipodi:namedview
     id="namedview46"
     pagecolor="#ffffff"
     bordercolor="#666666"
     borderopacity="1.0"
     inkscape:pageshadow="2"
     inkscape:pageopacity="0.0"
     inkscape:pagecheckerboard="0"
     showgrid="false"
     inkscape:zoom="0.844"
     inkscape:cx="193.72038"
     inkscape:cy="244.66825"
     inkscape:window-width="1920"
     inkscape:window-height="1016"
     inkscape:window-x="1920"
     inkscape:window-y="27"
     inkscape:window-maximized="1"
     inkscape:current-layer="Capa_1" />
  <defs
     id="defs7">
    <style
       id="style2">
      .cls-1 {
        fill: #f47a6c;
      }

      .cls-1, .cls-2, .cls-3, .cls-4, .cls-5, .cls-6, .cls-7, .cls-8, .cls-9, .cls-10 {
        stroke-width: 0px;
      }

      .cls-2 {
        fill: #ccacfd;
      }

      .cls-3 {
        opacity: .18;
      }

      .cls-4 {
        fill: #99d3f6;
      }

      .cls-6 {
        fill: #fff;
      }

      .cls-11 {
        fill: none;
        stroke: #000;
        stroke-miterlimit: 10;
        stroke-width: 9.27px;
      }

      .cls-7 {
        opacity: .11;
      }

      .cls-8 {
        fill: #bcf987;
      }

      .cls-12 {
        clip-path: url(#clippath);
      }

      .cls-9 {
        fill: #ffe974;
      }

      .cls-10 {
        fill: #f4a16a;
      }
    </style>
    <clipPath
       id="clippath">
      <path
         class="cls-11"
         d="m 118.89,443.06 c 4.92,5.27 12.49,7.92 20.19,5.93 l 14,-3.62 c 9.08,-2.35 15.43,-10.54 15.43,-19.92 v -25.81 c 0,-10.02 7.22,-18.58 17.1,-20.28 l 14.01,-2.4 c 12.57,-2.15 24.05,7.53 24.05,20.28 v 4.75 c 0,13.28 12.39,23.08 25.31,20.02 l 15,-3.55 c 9.51,-2.25 16.12,-10.87 15.83,-20.63 l -0.44,-14.74 c -0.31,-10.36 7.13,-19.33 17.37,-20.94 l 13.47,-2.12 c 12.48,-1.96 23.77,7.69 23.77,20.32 0,12.63 12.15,22.91 24.98,20.09 l 24.16,-5.3 V 207.82 c 0.5,-4.69 0.77,-9.45 0.77,-14.27 0,-73.39 -59.49,-132.88 -132.88,-132.88 -73.39,0 -132.89,59.5 -132.89,132.88 0,4.82 0.27,9.58 0.77,14.27 z"
         id="path4" />
    </clipPath>
  </defs>
  <g
     id="g29"
     transform="matrix(0.99985456,0,0,1,-78.468499,-28.035)">
    <g
       class="cls-12"
       clip-path="url(#clippath)"
       id="g25">
      <g
         id="g21">
        <polygon
           class="cls-1"
           points="43.2,82.9 421.27,5.94 421.27,71.35 43.2,148.31 "
           id="polygon9" />
        <polygon
           class="cls-10"
           points="43.2,148.31 421.27,71.35 421.27,136.77 43.2,213.73 "
           id="polygon11" />
        <polygon
           class="cls-9"
           points="43.2,213.73 421.27,136.77 421.27,202.18 43.2,279.14 "
           id="polygon13" />
        <polygon
           class="cls-8"
           points="43.2,279.14 421.27,202.18 421.27,267.6 43.2,344.56 "
           id="polygon15" />
        <polygon
           class="cls-4"
           points="43.2,344.56 421.27,267.6 421.27,333.01 43.2,409.97 "
           id="polygon17" />
        <polygon
           class="cls-2"
           points="43.2,409.97 421.27,333.01 421.27,398.43 43.2,475.39 "
           id="polygon19" />
      </g>
      <path
         class="cls-7"
         d="m 200.1,50.96 c 0,0 -48.3,83.66 -50.63,131.67 -2.33,48.01 0,309.12 0,309.12 H 90.02 L 100.51,95.43 Z"
         id="path23" />
    </g>
    <path
       class="cls-11"
       d="m 118.89,443.06 c 4.92,5.27 12.49,7.92 20.19,5.93 l 14,-3.62 c 9.08,-2.35 15.43,-10.54 15.43,-19.92 v -25.81 c 0,-10.02 7.22,-18.58 17.1,-20.28 l 14.01,-2.4 c 12.57,-2.15 24.05,7.53 24.05,20.28 v 4.75 c 0,13.28 12.39,23.08 25.31,20.02 l 15,-3.55 c 9.51,-2.25 16.12,-10.87 15.83,-20.63 l -0.44,-14.74 c -0.31,-10.36 7.13,-19.33 17.37,-20.94 l 13.47,-2.12 c 12.48,-1.96 23.77,7.69 23.77,20.32 0,12.63 12.15,22.91 24.98,20.09 l 24.16,-5.3 V 207.82 c 0.5,-4.69 0.77,-9.45 0.77,-14.27 0,-73.39 -59.49,-132.88 -132.88,-132.88 -73.39,0 -132.89,59.5 -132.89,132.88 0,4.82 0.27,9.58 0.77,14.27 z"
       id="path27" />
  </g>
  <g
     id="g43"
     transform="matrix(0.99985456,0,0,1,-78.468499,-23.035)">
    <circle
       class="cls-5"
       cx="201.94"
       cy="179.62"
       r="21.450001"
       id="circle31" />
    <circle
       class="cls-5"
       cx="344.48999"
       cy="180.71001"
       r="21.450001"
       id="circle33" />
    <circle
       class="cls-3"
       cx="201.94"
       cy="183.69"
       r="21.450001"
       id="circle35" />
    <circle
       class="cls-3"
       cx="344.48999"
       cy="184.78"
       r="21.450001"
       id="circle37" />
    <ellipse
       class="cls-6"
       cx="353.75"
       cy="177.64999"
       rx="5.6199999"
       ry="6.04"
       id="ellipse39" />
    <ellipse
       class="cls-6"
       cx="213.07001"
       cy="177.64999"
       rx="5.6199999"
       ry="6.04"
       id="ellipse41" />
  </g>
</svg>
